<svg width="23" height="20" xmlns="http://www.w3.org/2000/svg" xmlns:xlink="http://www.w3.org/1999/xlink"><defs><path id="a" d="M0 0h23v20H0z"/></defs><g fill="none" fill-rule="evenodd"><mask id="b" fill="#fff"><use xlink:href="#a"/></mask><path d="M18.515 20a.925.925 0 0 1-.51-.153l-5.784-3.813-3.101 2.17a.934.934 0 0 1-.84.115.895.895 0 0 1-.572-.608L6.15 11.973.585 9.905A.886.886 0 0 1 0 9.085a.886.886 0 0 1 .574-.83L21.734.07a.92.92 0 0 1 .41-.068.918.918 0 0 1 .63.3.868.868 0 0 1 .208.76L19.41 19.282a.89.89 0 0 1-.545.652.927.927 0 0 1-.35.067zm-5.786-5.77l5.152 3.397L20.66 3.45l-10.038 9.39 2.083 1.373.024.016zm-4.288-.756l.69 2.541 1.486-1.04-1.946-1.283a.877.877 0 0 1-.23-.218zM3.415 9.061l3.822 1.42c.273.102.48.326.555.601l.484 1.786a.877.877 0 0 1 .275-.546l9.564-8.946-14.7 5.685z" fill="#000" mask="url(#b)"/></g></svg>