<svg width="20" height="20" xmlns="http://www.w3.org/2000/svg" xmlns:xlink="http://www.w3.org/1999/xlink"><defs><path id="a" d="M0 0h20v20H0z"/></defs><g fill="none" fill-rule="evenodd"><mask id="b" fill="#fff"><use xlink:href="#a"/></mask><path d="M16.198 14l-1.828.026s-.393.078-.91-.277c-.683-.47-1.328-1.69-1.83-1.53-.51.161-.494 1.26-.494 1.26s.004.233-.112.358c-.127.136-.374.164-.374.164h-.818s-1.805.108-3.395-1.547c-1.733-1.805-3.265-5.387-3.265-5.387s-.088-.235.008-.349c.108-.127.402-.136.402-.136l1.955-.012s.185.03.316.127c.11.08.17.23.17.23s.316.799.735 1.522c.817 1.412 1.197 1.72 1.475 1.57.404-.221.283-1.996.283-1.996s.007-.645-.204-.932c-.163-.222-.471-.287-.607-.305-.11-.015.07-.27.304-.385.352-.172.974-.182 1.708-.174.572.005.737.041.96.095.675.163.446.792.446 2.3 0 .482-.087 1.162.262 1.387.15.097.516.014 1.432-1.542.435-.737.76-1.604.76-1.604s.071-.155.182-.221c.113-.068.266-.047.266-.047l2.058-.013s.618-.073.718.206c.105.293-.23.977-1.071 2.098-1.381 1.84-1.535 1.667-.388 2.731 1.095 1.017 1.322 1.511 1.359 1.573.453.752-.503.81-.503.81m.72-14H3.082A3.082 3.082 0 0 0 0 3.082v13.836A3.082 3.082 0 0 0 3.082 20h13.836A3.082 3.082 0 0 0 20 16.918V3.082A3.082 3.082 0 0 0 16.918 0" fill="#000" mask="url(#b)"/></g></svg>