<svg xmlns="http://www.w3.org/2000/svg" viewBox="0 0 16 16"><path d="M13.2974,0.30957c-1.44043,-0.141601 -3.52832,-0.30957 -5.29736,-0.30957c-1.76904,0 -3.85693,0.167969 -5.29639,0.30957c-1.5415,0.149414 -2.70361,1.43262 -2.70361,2.98438v5.41211c0,1.55176 1.16211,2.83496 2.70264,2.98438c1.44043,0.141602 3.52832,0.30957 5.29736,0.30957c1.76904,0 3.85693,-0.167969 5.29639,-0.30957c1.5415,-0.149414 2.70361,-1.43262 2.70361,-2.98438v-5.41211c0,-1.55176 -1.16211,-2.83496 -2.70264,-2.98438Zm-7.29736,8.69043v-6l5,2.99854l-5,3.00146Z" transform="translate(0 2)"/></svg>