<svg width="20" height="20" viewBox="0 0 20 20" xmlns="http://www.w3.org/2000/svg"><title>Instagram</title><path d="M10 0c2.716 0 3.056.012 4.123.06 1.064.05 1.79.218 2.427.465.658.256 1.216.597 1.772 1.153s.897 1.114 1.153 1.772c.247.636.416 1.363.465 2.427.048 1.067.06 1.407.06 4.123s-.012 3.056-.06 4.123c-.05 1.064-.218 1.79-.465 2.427-.256.658-.597 1.216-1.153 1.772s-1.114.897-1.772 1.153c-.636.247-1.363.416-2.427.465-1.067.048-1.407.06-4.123.06s-3.056-.012-4.123-.06c-1.064-.05-1.79-.218-2.427-.465-.658-.256-1.216-.597-1.772-1.153S.78 17.208.525 16.55C.278 15.914.11 15.187.06 14.123.012 13.056 0 12.716 0 10s.012-3.056.06-4.123c.05-1.064.218-1.79.465-2.427.256-.658.597-1.216 1.153-1.772S2.792.78 3.45.525C4.086.278 4.813.11 5.877.06 6.944.012 7.284 0 10 0zm0 1.802c-2.67 0-2.986.01-4.04.058-.976.045-1.505.207-1.858.344-.466.182-.8.4-1.15.748-.35.35-.566.684-.748 1.15-.137.353-.3.882-.344 1.857-.048 1.054-.058 1.37-.058 4.04s.01 2.986.058 4.04c.045.976.207 1.505.344 1.858.182.466.4.8.748 1.15.35.35.684.566 1.15.748.353.137.882.3 1.857.344 1.053.048 1.37.058 4.04.058s2.987-.01 4.04-.058c.976-.045 1.505-.207 1.858-.344.466-.182.8-.4 1.15-.748.35-.35.566-.684.748-1.15.137-.353.3-.882.344-1.857.048-1.054.058-1.37.058-4.04s-.01-2.986-.058-4.04c-.045-.976-.207-1.505-.344-1.858-.182-.466-.4-.8-.748-1.15-.35-.35-.684-.566-1.15-.748-.353-.137-.882-.3-1.857-.344-1.054-.048-1.37-.058-4.04-.058zm0 3.063c2.836 0 5.135 2.3 5.135 5.135 0 2.836-2.3 5.135-5.135 5.135-2.836 0-5.135-2.3-5.135-5.135 0-2.836 2.3-5.135 5.135-5.135zm0 8.468c1.84 0 3.333-1.492 3.333-3.333 0-1.84-1.492-3.333-3.333-3.333-1.84 0-3.333 1.492-3.333 3.333 0 1.84 1.492 3.333 3.333 3.333zm6.538-8.67c0 .662-.537 1.2-1.2 1.2-.663 0-1.2-.538-1.2-1.2 0-.664.537-1.2 1.2-1.2.663 0 1.2.536 1.2 1.2z" fill="#fff" fill-rule="evenodd"/></svg>