<?xml version="1.0" encoding="utf-8"?>
<!-- Generator: Adobe Illustrator 18.0.0, SVG Export Plug-In . SVG Version: 6.00 Build 0)  -->
<!DOCTYPE svg PUBLIC "-//W3C//DTD SVG 1.1//EN" "http://www.w3.org/Graphics/SVG/1.1/DTD/svg11.dtd">
<svg version="1.1" id="Layer_1" xmlns="http://www.w3.org/2000/svg" xmlns:xlink="http://www.w3.org/1999/xlink" x="0px" y="0px"
	 viewBox="0 0 526.5 331.2" enable-background="new 0 0 526.5 331.2" xml:space="preserve">
<g>
	<path d="M237.8,330.8c5.1,0,15.4-7.4,15.4-19.5c0-12.1-8.4-12.1-8.4-24.2c0-12.1,8.4-12.1,8.4-24.2c0-12.1-8.4-12.1-8.4-24.2
		c0-12.1,8.4-12.1,8.4-24.2c0-12.1-8.4-12.1-8.4-24.2c0-12.1,8.4-12.1,8.4-24.2c0-16.9-19.5-14.9-23.2-14.9l-13.3,0.1h-89.3
		c0,0-5.1-43.3,8.3-84c8.8-26.7,6.2-45.6-2-56.9c-6.9-9.5-15.5-13.7-24-7c-10.4,8.1-5.4,35.9-6,37.6c-1.5,4.2-80.2,143.6-80.2,143.6
		H0v146.8c0,0,203-0.4,212.3-0.4L237.8,330.8z"/>
	<path d="M288.7,0.5c-5.1,0-15.4,7.4-15.4,19.5c0,12.1,8.4,12.1,8.4,24.2c0,12.1-8.4,12.1-8.4,24.2c0,12.1,8.4,12.1,8.4,24.2
		c0,12.1-8.4,12.1-8.4,24.2c0,12.1,8.4,12.1,8.4,24.2c0,12.1-8.4,12.1-8.4,24.2c0,16.9,19.5,14.9,23.2,14.9l13.3-0.1h89.3
		c0,0,5.1,43.3-8.3,84c-8.8,26.7-6.2,45.6,2,56.9c6.9,9.5,15.5,13.7,24,7c10.4-8.1,5.4-35.9,6-37.6c1.5-4.2,80.2-143.6,80.2-143.6
		h23.4V0c0,0-203,0.4-212.3,0.4L288.7,0.5z"/>
</g>
</svg>
