<?xml version="1.0" encoding="UTF-8"?>
<svg width="43px" height="27px" viewBox="0 0 43 27" version="1.1" xmlns="http://www.w3.org/2000/svg" xmlns:xlink="http://www.w3.org/1999/xlink">
    <!-- Generator: Sketch 48.2 (47327) - http://www.bohemiancoding.com/sketch -->
    <title>Group 2</title>
    <desc>Created with Sketch.</desc>
    <defs></defs>
    <g id="podval" stroke="none" stroke-width="1" fill="none" fill-rule="evenodd" transform="translate(-413.000000, -25.000000)">
        <g id="Group-2" transform="translate(414.000000, 26.000000)" stroke="#231F20">
            <g id="Page-1">
                <path d="M17.8467358,24.9652039 C18.2284801,24.9652039 19,24.4092206 19,23.4950107 C19,22.5808009 18.3701143,22.5808009 18.3701143,21.666591 C18.3701143,20.7523057 19,20.7523057 19,19.8379449 C19,18.9235841 18.3701143,18.9235841 18.3701143,18.0092987 C18.3701143,17.0949379 19,17.0949379 19,16.1805771 C19,15.2662163 18.3701143,15.2662163 18.3701143,14.3518555 C18.3701143,13.4373437 19,13.4373437 19,12.522832 C19,11.2467726 17.5379477,11.3960714 17.2615846,11.3960714 L16.2626394,11.4057328 L9.55741927,11.4057328 C9.55741927,11.4057328 9.17432389,8.13919878 10.1828765,5.06543989 C10.8434609,3.04877388 10.6459086,1.62552909 10.0333612,0.773967369 C9.51703814,0.0554763229 8.87311664,-0.25700954 8.23137182,0.247270182 C7.4504697,0.860919957 7.82921173,2.95729251 7.78109964,3.08409837 C7.66708673,3.39809382 1.75898127,13.9216968 1.75898127,13.9216968 L0,13.9216968 L0,25 C0,25 15.2373488,24.9668644 15.931409,24.9668644 L17.8467358,24.9652039 Z" id="Stroke-1"></path>
                <path d="M23.1532642,0.0347961311 C22.7715199,0.0347961311 22,0.590779432 22,1.50498928 C22,2.41919913 22.6298857,2.41919913 22.6298857,3.33340898 C22.6298857,4.24769431 22,4.24769431 22,5.16205511 C22,6.07641592 22.6298857,6.07641592 22.6298857,6.99070125 C22.6298857,7.90506206 22,7.90506206 22,8.81942287 C22,9.73378367 22.6298857,9.73378367 22.6298857,10.6481445 C22.6298857,11.5626563 22,11.5626563 22,12.477168 C22,13.7532274 23.4620523,13.6039286 23.7384154,13.6039286 L24.7373606,13.5942672 L31.4425807,13.5942672 C31.4425807,13.5942672 31.8256761,16.8608012 30.8171235,19.9345601 C30.1565391,21.9512261 30.3540914,23.3744709 30.9666388,24.2260326 C31.4829619,24.9445237 32.1268834,25.2570095 32.7686282,24.7527298 C33.5495303,24.13908 33.1707883,22.0427075 33.2189004,21.9159016 C33.3329133,21.6019062 39.2410187,11.0783032 39.2410187,11.0783032 L41,11.0783032 L41,0 C41,0 25.7626512,0.0331355782 25.068591,0.0331355782 L23.1532642,0.0347961311 Z" id="Stroke-3"></path>
            </g>
        </g>
    </g>
</svg>