<?xml version="1.0" encoding="utf-8"?>
<!-- Generator: Adobe Illustrator 18.0.0, SVG Export Plug-In . SVG Version: 6.00 Build 0)  -->
<!DOCTYPE svg PUBLIC "-//W3C//DTD SVG 1.1//EN" "http://www.w3.org/Graphics/SVG/1.1/DTD/svg11.dtd">
<svg version="1.1" id="Layer_1" xmlns="http://www.w3.org/2000/svg" xmlns:xlink="http://www.w3.org/1999/xlink" x="0px" y="0px"
	 viewBox="0 0 121 120.3" enable-background="new 0 0 121 120.3" xml:space="preserve">
<g>
	<g>
		<g>
			<path d="M14.6,13.1h-3.9V20H8.4v-8.9H17V20h-2.3V13.1z"/>
		</g>
		<g>
			<path d="M19.4,11.1h3l0.3,1.1h0.1c0.6-0.9,1.6-1.3,3-1.3c0.5,0,1,0.1,1.5,0.3c0.5,0.2,0.8,0.4,1.2,0.8c0.3,0.4,0.6,0.8,0.8,1.4
				c0.2,0.6,0.3,1.2,0.3,2c0,0.8-0.1,1.4-0.3,2.1c-0.2,0.6-0.5,1.1-0.9,1.6c-0.4,0.4-0.8,0.8-1.4,1c-0.5,0.2-1.2,0.3-1.9,0.3
				c-0.4,0-0.7,0-1.1-0.1c-0.4-0.1-0.7-0.1-0.9-0.3v3.7h-2.3V13h-1.3V11.1z M25.1,12.8c-0.4,0-0.9,0.1-1.2,0.3
				c-0.4,0.2-0.6,0.6-0.8,1v3.7c0.2,0.1,0.4,0.2,0.7,0.3c0.3,0.1,0.6,0.1,1,0.1c0.3,0,0.6-0.1,0.9-0.2c0.3-0.1,0.5-0.3,0.7-0.5
				c0.2-0.3,0.4-0.6,0.5-0.9c0.1-0.4,0.2-0.8,0.2-1.4c0-0.8-0.2-1.4-0.6-1.8C26.2,13,25.7,12.8,25.1,12.8z"/>
		</g>
		<g>
			<path d="M32,11.7c0.5-0.2,1-0.4,1.7-0.6c0.6-0.2,1.4-0.2,2.2-0.2c0.6,0,1.1,0.1,1.6,0.2c0.4,0.1,0.8,0.4,1.1,0.6
				c0.3,0.3,0.5,0.6,0.6,1c0.1,0.4,0.2,0.8,0.2,1.3c0,0.6,0,1.1-0.1,1.5c0,0.4-0.1,0.8-0.1,1.1c0,0.2,0,0.5,0,0.8
				c0,0.2,0,0.3,0.1,0.5h1.2v2h-3l-0.2-1.2h-0.1c-0.2,0.4-0.6,0.7-1,1c-0.4,0.3-1,0.4-1.8,0.4c-0.9,0-1.6-0.2-2.1-0.7
				c-0.5-0.5-0.8-1.1-0.8-1.9c0-0.5,0.1-0.9,0.3-1.3c0.2-0.4,0.4-0.7,0.8-0.9c0.3-0.2,0.8-0.4,1.3-0.5c0.5-0.1,1-0.2,1.6-0.2
				c0.2,0,0.4,0,0.7,0c0.2,0,0.5,0.1,0.9,0.1c0-0.1,0-0.2,0-0.4v-0.3c0-0.4-0.1-0.8-0.4-1c-0.3-0.2-0.6-0.3-1.2-0.3
				c-0.6,0-1.1,0.1-1.6,0.2c-0.5,0.2-0.9,0.3-1.2,0.5L32,11.7z M35.1,18.2c0.6,0,1-0.1,1.3-0.3c0.3-0.2,0.5-0.4,0.6-0.7v-1.1
				c-0.1,0-0.3,0-0.5-0.1c-0.2,0-0.5,0-0.8,0c-0.2,0-0.4,0-0.7,0.1c-0.2,0-0.4,0.1-0.6,0.2c-0.2,0.1-0.3,0.2-0.4,0.3
				c-0.1,0.1-0.2,0.3-0.2,0.5c0,0.3,0.1,0.6,0.3,0.8C34.3,18.1,34.6,18.2,35.1,18.2z"/>
		</g>
		<g>
			<path d="M45.2,14.7h0.9l2.9-3.6h2.6l-3.5,4.2l2.2,2.8h1.4v2h-2.6l-2.9-3.5h-1.2V20h-2.3v-8.9h2.3"/>
		</g>
		<g>
			<path d="M54.8,18h2.3v-4.9h-1.4v1.5h-2v-3.6h9.2v3.6h-2v-1.5h-1.4V18h2.3v2h-7V18z"/>
		</g>
		<g>
			<path d="M71.9,15.9l0.1-1.3H72L67.7,20h-1.8v-8.9h2.3v4.2l-0.1,1.2h0.1l4.3-5.5h1.8V20h-2.3V15.9z"/>
		</g>
		<g>
			<path d="M80.9,16.5h-1.2V20h-2.3v-8.9h2.3v3.6h0.9l2.9-3.6h2.6l-3.6,4.2l2.2,2.8h1.4v2h-2.5L80.9,16.5z"/>
		</g>
		<g>
			<path d="M88.6,11.7c0.5-0.2,1-0.4,1.7-0.6c0.6-0.2,1.4-0.2,2.2-0.2c0.6,0,1.1,0.1,1.6,0.2c0.4,0.1,0.8,0.4,1,0.6
				c0.3,0.3,0.5,0.6,0.6,1c0.1,0.4,0.2,0.8,0.2,1.3c0,0.6,0,1.1-0.1,1.5c0,0.4-0.1,0.8-0.1,1.1c0,0.2,0,0.5,0,0.8
				c0,0.2,0,0.3,0.1,0.5H97v2h-3l-0.2-1.2h-0.1c-0.2,0.4-0.6,0.7-1,1c-0.4,0.3-1,0.4-1.8,0.4c-0.9,0-1.6-0.2-2.1-0.7
				c-0.5-0.5-0.8-1.1-0.8-1.9c0-0.5,0.1-0.9,0.3-1.3c0.2-0.4,0.4-0.7,0.8-0.9c0.3-0.2,0.8-0.4,1.3-0.5c0.5-0.1,1-0.2,1.6-0.2
				c0.2,0,0.4,0,0.7,0c0.2,0,0.5,0.1,0.9,0.1c0-0.1,0-0.2,0-0.4v-0.3c0-0.4-0.1-0.8-0.4-1c-0.3-0.2-0.6-0.3-1.2-0.3
				c-0.6,0-1.1,0.1-1.6,0.2c-0.5,0.2-0.9,0.3-1.2,0.5L88.6,11.7z M91.7,18.2c0.6,0,1-0.1,1.3-0.3c0.3-0.2,0.5-0.4,0.6-0.7v-1.1
				c-0.1,0-0.3,0-0.5-0.1c-0.2,0-0.5,0-0.8,0c-0.2,0-0.4,0-0.7,0.1c-0.2,0-0.4,0.1-0.6,0.2c-0.2,0.1-0.3,0.2-0.4,0.3
				c-0.1,0.1-0.2,0.3-0.2,0.5c0,0.3,0.1,0.6,0.3,0.8C90.9,18.1,91.2,18.2,91.7,18.2z"/>
		</g>
		<g>
			<path d="M9,32c0-0.1,0-0.2,0-0.4c0-0.2,0-0.4,0-0.5c0-0.2,0-0.4,0-0.5c0-0.2,0-0.3-0.1-0.5H7.7v-1.2H10l0.2,1.2h0.1
				c0.3-0.4,0.7-0.8,1.2-1c0.5-0.3,1.1-0.4,1.8-0.4c1.3,0,2.2,0.4,2.9,1.1c0.6,0.7,1,1.8,1,3.4c0,0.7-0.1,1.4-0.3,2
				c-0.2,0.6-0.5,1.1-0.9,1.5c-0.4,0.4-0.9,0.7-1.5,1c-0.6,0.2-1.2,0.3-1.9,0.3c-0.2,0-0.5,0-0.7,0c-0.2,0-0.4,0-0.5-0.1
				c-0.2,0-0.3-0.1-0.5-0.1c-0.2,0-0.3-0.1-0.5-0.2v3.7H9V32z M13.1,30c-0.4,0-0.7,0.1-1,0.2c-0.3,0.1-0.6,0.3-0.8,0.5
				c-0.2,0.2-0.4,0.4-0.6,0.7c-0.2,0.3-0.3,0.5-0.3,0.8v4.1c0.3,0.2,0.6,0.3,0.9,0.4c0.3,0.1,0.8,0.2,1.3,0.2c1,0,1.7-0.3,2.3-0.9
				c0.6-0.6,0.9-1.5,0.9-2.7c0-1-0.2-1.8-0.6-2.3C14.7,30.3,14,30,13.1,30z"/>
		</g>
		<g>
			<path d="M20.4,37.8v-1.2h2.4v-6.5h-2.4v-1.2h3.3l0.3,1.2h0.1c0.4-0.4,0.9-0.7,1.4-0.9c0.5-0.3,1.1-0.4,1.8-0.4
				c0.4,0,0.7,0.1,1,0.2c0.2,0.2,0.4,0.4,0.6,0.7c0.1,0.3,0.2,0.7,0.3,1.1c0,0.4,0.1,0.9,0.1,1.4l-1.2,0c0-0.8-0.1-1.3-0.2-1.7
				c-0.1-0.4-0.4-0.5-0.8-0.5c-0.4,0-0.7,0.1-1,0.2c-0.3,0.1-0.6,0.2-0.8,0.4c-0.2,0.2-0.4,0.3-0.6,0.5c-0.2,0.2-0.3,0.3-0.3,0.4
				v5.2h3.4v1.2H20.4z"/>
		</g>
		<g>
			<path d="M32.6,29.6c0.5-0.3,1.1-0.5,1.7-0.6c0.6-0.1,1.3-0.2,1.9-0.2c0.6,0,1.1,0.1,1.5,0.3c0.4,0.2,0.7,0.4,0.9,0.7
				c0.2,0.3,0.4,0.6,0.4,1c0.1,0.4,0.1,0.8,0.1,1.2c0,0.5,0,0.9,0,1.4c0,0.5,0,1-0.1,1.5c0,0.6,0,1.2,0.1,1.7h1.2v1.2H38l-0.2-1.3
				h-0.1c-0.1,0.1-0.2,0.2-0.3,0.4c-0.1,0.2-0.3,0.3-0.6,0.5c-0.2,0.2-0.5,0.3-0.8,0.4c-0.3,0.1-0.7,0.2-1.2,0.2
				c-0.9,0-1.6-0.2-2.1-0.7c-0.5-0.4-0.8-1.1-0.8-1.9c0-0.6,0.1-1.1,0.4-1.5c0.3-0.4,0.7-0.7,1.2-0.9c0.5-0.2,1.1-0.3,1.8-0.4
				c0.7,0,1.5,0,2.4,0.1c0.1-0.5,0.1-1,0-1.4c0-0.4-0.1-0.6-0.3-0.9c-0.2-0.2-0.4-0.4-0.6-0.5c-0.3-0.1-0.6-0.1-1-0.1
				c-0.5,0-1.1,0.1-1.5,0.2c-0.5,0.1-0.9,0.3-1.3,0.5L32.6,29.6z M35.2,36.8c0.3,0,0.6-0.1,0.9-0.2c0.3-0.1,0.5-0.2,0.8-0.4
				c0.2-0.2,0.4-0.3,0.5-0.5c0.1-0.2,0.2-0.4,0.3-0.6v-1.2c-0.6-0.1-1.2-0.2-1.7-0.2c-0.5,0-1,0.1-1.4,0.2c-0.4,0.1-0.7,0.3-0.9,0.5
				c-0.2,0.2-0.3,0.5-0.3,0.9c0,0.4,0.1,0.7,0.4,1C34.1,36.6,34.6,36.8,35.2,36.8z"/>
		</g>
		<g>
			<path d="M42.7,25.3h2.9v7.4h1l3.5-3.8h1.7l-3.9,4.2l3.2,3.5h1.2v1.2h-1.8l-3.8-4h-1v4h-1.4V26.5h-1.5V25.3z"/>
		</g>
		<g>
			<path d="M54.6,28.9h2.1v-1.8l1.4-0.4v2.2h4.8v1.2h-4.8v4.2c0,0.9,0.2,1.5,0.6,1.9c0.4,0.4,1,0.6,1.8,0.6c0.5,0,1-0.1,1.4-0.3
				c0.4-0.2,0.8-0.4,1.1-0.7l0.5,1.1c-0.4,0.3-0.9,0.6-1.5,0.8c-0.6,0.2-1.2,0.3-1.8,0.3c-0.5,0-0.9-0.1-1.3-0.2
				c-0.4-0.1-0.8-0.3-1.1-0.6c-0.3-0.3-0.6-0.7-0.8-1.1c-0.2-0.4-0.3-1-0.3-1.6v-4.4h-2.1V28.9z"/>
		</g>
		<g>
			<polygon points="66.8,37.8 66.8,36.6 69.9,36.6 69.9,30.1 66.8,30.1 66.8,28.9 71.3,28.9 71.3,36.6 74.4,36.6 74.4,37.8 			"/>
		</g>
		<g>
			<path d="M69.4,26.3c0-0.3,0.1-0.6,0.3-0.8c0.2-0.2,0.5-0.3,0.8-0.3c0.3,0,0.6,0.1,0.9,0.3c0.2,0.2,0.3,0.5,0.3,0.8
				c0,0.3-0.1,0.6-0.3,0.8c-0.2,0.2-0.5,0.3-0.9,0.3c-0.3,0-0.6-0.1-0.8-0.3C69.5,26.9,69.4,26.6,69.4,26.3z"/>
		</g>
		<g>
			<path d="M76.7,25.3h2.9v7.4h1l3.5-3.8h1.7l-3.9,4.2l3.2,3.5h1.2v1.2h-1.8l-3.8-4h-1v4h-1.4V26.5h-1.5V25.3z"/>
		</g>
		<g>
			<path d="M89.2,29.6c0.5-0.3,1.1-0.5,1.7-0.6c0.6-0.1,1.3-0.2,1.9-0.2c0.6,0,1.1,0.1,1.5,0.3c0.4,0.2,0.7,0.4,0.9,0.7
				c0.2,0.3,0.4,0.6,0.4,1c0.1,0.4,0.1,0.8,0.1,1.2c0,0.5,0,0.9,0,1.4c0,0.5,0,1-0.1,1.5c0,0.6,0,1.2,0.1,1.7H97v1.2h-2.4l-0.2-1.3
				h-0.1c-0.1,0.1-0.2,0.2-0.3,0.4c-0.1,0.2-0.3,0.3-0.6,0.5c-0.2,0.2-0.5,0.3-0.9,0.4C92.4,37.9,92,38,91.5,38
				c-0.9,0-1.6-0.2-2.1-0.7c-0.5-0.4-0.8-1.1-0.8-1.9c0-0.6,0.1-1.1,0.4-1.5c0.3-0.4,0.7-0.7,1.2-0.9c0.5-0.2,1.1-0.3,1.8-0.4
				c0.7,0,1.5,0,2.4,0.1c0.1-0.5,0.1-1,0-1.4c0-0.4-0.1-0.6-0.3-0.9c-0.2-0.2-0.4-0.4-0.6-0.5c-0.3-0.1-0.6-0.1-1-0.1
				c-0.5,0-1,0.1-1.5,0.2c-0.5,0.1-0.9,0.3-1.3,0.5L89.2,29.6z M91.9,36.8c0.3,0,0.6-0.1,0.9-0.2c0.3-0.1,0.5-0.2,0.7-0.4
				c0.2-0.2,0.4-0.3,0.5-0.5c0.1-0.2,0.3-0.4,0.3-0.6v-1.2c-0.6-0.1-1.2-0.2-1.7-0.2c-0.5,0-1,0.1-1.4,0.2c-0.4,0.1-0.7,0.3-0.9,0.5
				c-0.2,0.2-0.3,0.5-0.3,0.9c0,0.4,0.1,0.7,0.4,1C90.8,36.6,91.2,36.8,91.9,36.8z"/>
		</g>
		<g>
			<path d="M9.4,53.7h2.3v-4.9h-1.4v1.5h-2v-3.6h9.2v3.6h-2v-1.5h-1.4v4.9h2.3v2h-7V53.7z"/>
		</g>
		<g>
			<path d="M28.8,54.7c-0.2,0.1-0.4,0.3-0.6,0.4c-0.2,0.1-0.5,0.3-0.9,0.4c-0.3,0.1-0.7,0.2-1.1,0.3c-0.4,0.1-0.8,0.1-1.2,0.1
				c-0.8,0-1.4-0.1-2-0.3c-0.6-0.2-1.1-0.5-1.5-0.9c-0.4-0.4-0.7-0.9-1-1.5c-0.2-0.6-0.3-1.2-0.3-2c0-0.8,0.1-1.5,0.4-2.1
				c0.2-0.6,0.6-1.1,1-1.5c0.4-0.4,0.9-0.7,1.5-0.9c0.6-0.2,1.2-0.3,1.9-0.3c0.4,0,0.9,0.1,1.4,0.2c0.5,0.1,0.9,0.3,1.3,0.6
				c0.4,0.3,0.7,0.7,1,1.2c0.3,0.5,0.4,1.1,0.4,1.9c0,0.5-0.1,1.1-0.2,1.7h-6.4c0,0.4,0.1,0.7,0.2,1c0.1,0.3,0.3,0.5,0.6,0.6
				c0.2,0.2,0.5,0.3,0.8,0.4c0.3,0.1,0.6,0.1,1,0.1c0.7,0,1.3-0.1,1.8-0.2c0.5-0.2,0.8-0.4,1.1-0.6L28.8,54.7z M24.9,48.3
				c-0.3,0-0.6,0-0.9,0.1c-0.3,0.1-0.5,0.2-0.7,0.4c-0.2,0.2-0.4,0.4-0.5,0.6c-0.1,0.2-0.2,0.5-0.3,0.8h4.4c0-0.6-0.2-1.1-0.5-1.4
				C26.1,48.5,25.6,48.3,24.9,48.3z"/>
		</g>
		<g>
			<path d="M32.2,47.3c0.5-0.2,1-0.4,1.6-0.6c0.6-0.2,1.4-0.2,2.2-0.2c0.6,0,1.1,0.1,1.6,0.2c0.4,0.1,0.8,0.4,1.1,0.6
				c0.3,0.3,0.5,0.6,0.6,1c0.1,0.4,0.2,0.8,0.2,1.3c0,0.6,0,1.1-0.1,1.6c0,0.4-0.1,0.8-0.1,1.1c0,0.2,0,0.5,0,0.8
				c0,0.2,0,0.3,0.1,0.5h1.2v2h-3l-0.2-1.2h-0.1c-0.2,0.4-0.6,0.7-1,1c-0.4,0.3-1,0.4-1.8,0.4c-0.9,0-1.6-0.2-2.1-0.7
				c-0.5-0.5-0.8-1.1-0.8-1.9c0-0.5,0.1-0.9,0.3-1.3c0.2-0.4,0.5-0.7,0.8-0.9c0.3-0.2,0.8-0.4,1.3-0.5c0.5-0.1,1-0.2,1.6-0.2
				c0.2,0,0.4,0,0.7,0c0.2,0,0.5,0,0.9,0.1c0-0.1,0-0.2,0-0.4v-0.3c0-0.5-0.1-0.8-0.4-1c-0.3-0.2-0.6-0.3-1.1-0.3
				c-0.6,0-1.1,0.1-1.6,0.2c-0.5,0.2-0.9,0.3-1.2,0.5L32.2,47.3z M35.2,53.9c0.6,0,1-0.1,1.3-0.3c0.3-0.2,0.5-0.4,0.6-0.7v-1.1
				c-0.1,0-0.3,0-0.5-0.1c-0.2,0-0.5,0-0.8,0c-0.2,0-0.4,0-0.7,0.1c-0.2,0-0.4,0.1-0.6,0.2c-0.2,0.1-0.3,0.2-0.4,0.3
				C34,52.4,34,52.6,34,52.8c0,0.3,0.1,0.6,0.3,0.8C34.5,53.8,34.8,53.9,35.2,53.9z"/>
		</g>
		<g>
			<path d="M44,53.7h2.3v-4.9h-1.4v1.5h-2v-3.6h9.2v3.6h-2v-1.5h-1.4v4.9H51v2h-7V53.7z"/>
		</g>
		<g>
			<path d="M54.3,46.7h3l0.3,1.1h0.1c0.6-0.9,1.6-1.3,3-1.3c0.5,0,1,0.1,1.5,0.3c0.5,0.2,0.8,0.4,1.2,0.8c0.3,0.4,0.6,0.8,0.8,1.4
				c0.2,0.6,0.3,1.2,0.3,2c0,0.8-0.1,1.4-0.3,2.1c-0.2,0.6-0.5,1.1-0.9,1.6c-0.4,0.4-0.8,0.8-1.4,1c-0.6,0.2-1.2,0.3-1.9,0.3
				c-0.4,0-0.7,0-1.1-0.1c-0.4-0.1-0.7-0.1-0.9-0.3v3.7h-2.3V48.7h-1.3V46.7z M60,48.4c-0.5,0-0.9,0.1-1.2,0.3
				c-0.4,0.2-0.6,0.6-0.8,1v3.7c0.2,0.1,0.4,0.2,0.7,0.3c0.3,0.1,0.6,0.1,1,0.1c0.3,0,0.6-0.1,0.9-0.2c0.3-0.1,0.5-0.3,0.7-0.5
				c0.2-0.2,0.4-0.6,0.5-0.9c0.1-0.4,0.2-0.8,0.2-1.4c0-0.8-0.2-1.4-0.6-1.8C61,48.7,60.6,48.4,60,48.4z"/>
		</g>
		<g>
			<path d="M7.8,64.6H10v-1.8l1.4-0.4v2.2h4.8v1.2h-4.8V70c0,0.9,0.2,1.5,0.6,1.9c0.4,0.4,1,0.6,1.8,0.6c0.5,0,1-0.1,1.4-0.3
				c0.4-0.2,0.8-0.4,1.1-0.7l0.5,1.1c-0.4,0.3-0.9,0.6-1.5,0.8c-0.6,0.2-1.2,0.3-1.8,0.3c-0.5,0-0.9-0.1-1.3-0.2
				c-0.4-0.1-0.8-0.3-1.1-0.6c-0.3-0.3-0.6-0.7-0.8-1.1c-0.2-0.4-0.3-1-0.3-1.6v-4.4H7.8V64.6z"/>
		</g>
		<g>
			<path d="M19.5,61h2.8v4.7h0.1c0.4-0.4,0.8-0.7,1.3-1c0.5-0.2,1.1-0.3,1.8-0.3c0.6,0,1.1,0.1,1.5,0.2c0.4,0.1,0.8,0.3,1,0.6
				c0.3,0.3,0.5,0.7,0.6,1.2c0.1,0.5,0.2,1.2,0.2,2v5.1h-1.4v-4.9c0-0.5,0-1-0.1-1.3c-0.1-0.4-0.2-0.7-0.3-1
				c-0.2-0.3-0.4-0.4-0.7-0.6c-0.3-0.1-0.7-0.2-1.1-0.2c-0.3,0-0.6,0.1-0.9,0.2c-0.3,0.1-0.6,0.3-0.8,0.5c-0.3,0.2-0.5,0.4-0.7,0.7
				c-0.2,0.3-0.3,0.6-0.4,0.9v5.7h-1.4V62.2h-1.4V61z"/>
		</g>
		<g>
			<path d="M40.5,72.3c-0.2,0.2-0.5,0.4-0.8,0.5c-0.3,0.2-0.6,0.3-1,0.4c-0.3,0.1-0.7,0.2-1.1,0.3c-0.4,0.1-0.8,0.1-1.1,0.1
				c-0.7,0-1.3-0.1-1.9-0.3c-0.5-0.2-1-0.5-1.4-0.9c-0.4-0.4-0.7-0.9-0.8-1.5c-0.2-0.6-0.3-1.2-0.3-1.9c0-0.7,0.1-1.4,0.3-2
				c0.2-0.6,0.5-1.1,0.9-1.5c0.4-0.4,0.9-0.7,1.4-0.9c0.6-0.2,1.2-0.3,1.9-0.3c0.5,0,1,0.1,1.5,0.2c0.5,0.1,0.9,0.4,1.3,0.7
				c0.4,0.4,0.7,0.9,0.9,1.5c0.2,0.6,0.3,1.5,0.2,2.5h-6.9c0,1.1,0.3,1.9,0.9,2.4c0.6,0.5,1.3,0.8,2.3,0.8c0.3,0,0.6,0,1-0.1
				c0.3-0.1,0.6-0.2,0.9-0.3c0.3-0.1,0.5-0.2,0.8-0.4c0.2-0.1,0.4-0.2,0.5-0.4L40.5,72.3z M36.8,65.5c-0.4,0-0.8,0-1.1,0.1
				c-0.4,0.1-0.7,0.2-0.9,0.4c-0.3,0.2-0.5,0.5-0.7,0.8c-0.2,0.3-0.3,0.7-0.3,1.2h5.5c-0.1-0.8-0.3-1.4-0.8-1.8
				C38.1,65.7,37.5,65.5,36.8,65.5z"/>
		</g>
		<g>
			<path d="M44.5,65.2c0.5-0.3,1.1-0.5,1.7-0.6c0.6-0.1,1.3-0.2,1.9-0.2c0.6,0,1.1,0.1,1.5,0.3c0.4,0.2,0.7,0.4,0.9,0.7
				c0.2,0.3,0.4,0.6,0.4,1c0.1,0.4,0.1,0.8,0.1,1.2c0,0.5,0,0.9,0,1.4c0,0.5,0,1-0.1,1.5c0,0.6,0,1.2,0.1,1.7h1.2v1.2H50l-0.2-1.3
				h-0.1c-0.1,0.1-0.2,0.2-0.3,0.4c-0.1,0.2-0.3,0.3-0.6,0.5c-0.2,0.2-0.5,0.3-0.9,0.4c-0.3,0.1-0.7,0.2-1.2,0.2
				c-0.9,0-1.6-0.2-2.1-0.7c-0.5-0.5-0.8-1.1-0.8-1.9c0-0.6,0.1-1.1,0.4-1.5c0.3-0.4,0.7-0.7,1.2-0.9c0.5-0.2,1.1-0.3,1.8-0.4
				c0.7,0,1.5,0,2.4,0.1c0.1-0.5,0.1-1,0-1.4c0-0.4-0.1-0.7-0.3-0.9c-0.1-0.2-0.4-0.4-0.6-0.5c-0.3-0.1-0.6-0.1-1-0.1
				c-0.5,0-1,0.1-1.5,0.2c-0.5,0.1-0.9,0.3-1.3,0.5L44.5,65.2z M47.2,72.4c0.3,0,0.6-0.1,0.9-0.2c0.3-0.1,0.5-0.2,0.7-0.4
				c0.2-0.2,0.4-0.3,0.5-0.5c0.1-0.2,0.3-0.4,0.3-0.6v-1.2c-0.6-0.1-1.2-0.2-1.7-0.2c-0.5,0-1,0.1-1.4,0.2c-0.4,0.1-0.7,0.3-0.9,0.5
				c-0.2,0.2-0.3,0.5-0.3,0.9c0,0.4,0.1,0.7,0.4,1C46.1,72.3,46.5,72.4,47.2,72.4z"/>
		</g>
		<g>
			<path d="M54.6,64.6h2.1v-1.8l1.4-0.4v2.2h4.8v1.2h-4.8V70c0,0.9,0.2,1.5,0.6,1.9c0.4,0.4,1,0.6,1.8,0.6c0.5,0,1-0.1,1.4-0.3
				c0.4-0.2,0.8-0.4,1.1-0.7l0.5,1.1c-0.4,0.3-0.9,0.6-1.5,0.8c-0.6,0.2-1.2,0.3-1.8,0.3c-0.5,0-0.9-0.1-1.3-0.2
				c-0.4-0.1-0.8-0.3-1.1-0.6c-0.3-0.3-0.6-0.7-0.8-1.1c-0.2-0.4-0.3-1-0.3-1.6v-4.4h-2.1V64.6z"/>
		</g>
		<g>
			<path d="M66,73.5v-1.2h2.4v-6.5H66v-1.2h3.3l0.3,1.2h0.1c0.4-0.4,0.9-0.7,1.4-0.9c0.5-0.3,1.1-0.4,1.8-0.4c0.4,0,0.7,0.1,1,0.2
				c0.2,0.2,0.4,0.4,0.6,0.7c0.1,0.3,0.2,0.7,0.3,1.1c0,0.4,0.1,0.9,0.1,1.4l-1.2,0c0-0.8-0.1-1.3-0.2-1.7c-0.2-0.3-0.4-0.5-0.8-0.5
				c-0.4,0-0.7,0.1-1,0.2c-0.3,0.1-0.6,0.2-0.8,0.4c-0.2,0.2-0.4,0.3-0.6,0.5c-0.2,0.2-0.3,0.3-0.3,0.4v5.2h3.4v1.2H66z"/>
		</g>
		<g>
			<path d="M85.8,72.3c-0.2,0.2-0.5,0.4-0.8,0.5c-0.3,0.2-0.6,0.3-1,0.4c-0.3,0.1-0.7,0.2-1.1,0.3c-0.4,0.1-0.8,0.1-1.1,0.1
				c-0.7,0-1.3-0.1-1.9-0.3c-0.5-0.2-1-0.5-1.4-0.9c-0.4-0.4-0.7-0.9-0.8-1.5c-0.2-0.6-0.3-1.2-0.3-1.9c0-0.7,0.1-1.4,0.3-2
				c0.2-0.6,0.5-1.1,0.9-1.5c0.4-0.4,0.9-0.7,1.4-0.9c0.6-0.2,1.2-0.3,1.9-0.3c0.5,0,1,0.1,1.5,0.2c0.5,0.1,0.9,0.4,1.3,0.7
				c0.4,0.4,0.7,0.9,0.9,1.5c0.2,0.6,0.3,1.5,0.2,2.5H79c0,1.1,0.3,1.9,0.9,2.4c0.6,0.5,1.3,0.8,2.3,0.8c0.3,0,0.6,0,1-0.1
				c0.3-0.1,0.6-0.2,0.9-0.3c0.3-0.1,0.5-0.2,0.8-0.4c0.2-0.1,0.4-0.2,0.5-0.4L85.8,72.3z M82.1,65.5c-0.4,0-0.8,0-1.1,0.1
				c-0.3,0.1-0.7,0.2-0.9,0.4c-0.3,0.2-0.5,0.5-0.7,0.8c-0.2,0.3-0.3,0.7-0.3,1.2h5.5c-0.1-0.8-0.3-1.4-0.8-1.8
				C83.4,65.7,82.8,65.5,82.1,65.5z"/>
		</g>
	</g>
	<g>
		<polygon points="121,120.3 0,120.3 0,118.2 118.9,118.2 118.9,2.1 0,2.1 0,0 121,0 		"/>
	</g>
</g>
</svg>
