<?xml version="1.0" encoding="utf-8"?>
<!-- Generator: Adobe Illustrator 18.0.0, SVG Export Plug-In . SVG Version: 6.00 Build 0)  -->
<!DOCTYPE svg PUBLIC "-//W3C//DTD SVG 1.1//EN" "http://www.w3.org/Graphics/SVG/1.1/DTD/svg11.dtd">
<svg version="1.1" xmlns="http://www.w3.org/2000/svg" xmlns:xlink="http://www.w3.org/1999/xlink" x="0px" y="0px"
	 viewBox="0 0 538.1 201.3" enable-background="new 0 0 538.1 201.3" xml:space="preserve">
<g id="Layer_1">
	<path fill-rule="evenodd" clip-rule="evenodd" d="M0,0v158.6v1.6l0.1,1.6l0.2,1.6l0.2,1.5l0.3,1.5l0.3,1.5l0.5,1.3l0.5,1.4l0.6,1.4
		l0.6,1.4l0.7,1.2l0.7,1.3l0.9,1.2l0.9,1.1l1,1l1,1l1,1l1.2,1l1.2,0.9l1.3,0.8l1.3,0.7l1.4,0.7l1.5,0.6l1.4,0.6l1.6,0.5l1.7,0.5
		l1.7,0.4l1.7,0.2l1.8,0.3l1.9,0.2l1.9,0.1l2,0.1h19.6h1.4l1.3,0.1h1.4l1.3,0.2l1.3,0.1l1.2,0.2l1.2,0.2l1.2,0.2l1.2,0.2l1.1,0.2
		l1,0.3l1,0.3l1.1,0.3l1,0.3l1,0.4l1,0.4l1,0.4l0.9,0.5l0.9,0.4l1,0.5l0.9,0.5l0.8,0.5l0.8,0.6l0.8,0.6l0.8,0.6l0.8,0.6l0.7,0.6
		l0.7,0.6l0.7,0.6l0.7,0.6l0.7,0.6l1.4,1.3l1.4-1.3l0.6-0.6l0.7-0.6l0.7-0.6l0.7-0.6l0.7-0.6l0.8-0.6l0.8-0.6l0.8-0.6l0.8-0.6
		l0.9-0.5l0.8-0.5l0.9-0.5l1-0.4l0.9-0.5l0.9-0.4l1-0.4l1-0.4l1-0.3l1-0.3l1.1-0.3l1.1-0.3l1.1-0.2l1.1-0.2l1.2-0.2l1.2-0.2l1.2-0.2
		l1.3-0.1l1.3-0.2h1.3l1.4-0.1h1.4h19.7l2-0.1l1.9-0.1l1.9-0.2l1.7-0.3l1.8-0.2l1.7-0.4l1.7-0.5l1.5-0.5l1.6-0.6l1.4-0.6l1.3-0.7
		l1.3-0.7l1.3-0.8l1.2-0.9l1.2-1l1-1l1-1l1-1l0.9-1.1l0.9-1.2l0.7-1.3l0.7-1.2l0.6-1.4l0.6-1.4l0.5-1.4l0.4-1.3l0.4-1.5l0.3-1.5
		l0.2-1.5l0.2-1.6l0.1-1.6l0.1-1.6V0H0z M168.4,158.6c0,17-10.9,29-32,29h-19.7c-15.2,0-24.9,5.2-32,12.3
		c-7.1-7.1-16.9-12.3-32-12.3H33c-21.1,0-32.1-12-32.1-29V1h83.8h83.7V158.6z"/>
	<path fill-rule="evenodd" clip-rule="evenodd" d="M73.4,165.4L73.4,165.4c0.1,0.7,0.3,1.3,0.7,1.6c0.8,0.6,1,1.6,0.2,2.2l-1.7-1.5
		C72.2,166.7,72.6,166,73.4,165.4L73.4,165.4z"/>
	<path fill-rule="evenodd" clip-rule="evenodd" d="M115,168.9L115,168.9c0.5,1.4,2.7,2.2,1.1,2.5c-0.2,0.4-0.6,0.3-1.5-0.2
		C113.3,170.4,113.6,169.6,115,168.9L115,168.9z"/>
	<path d="M213.2,11.8H234v30.3h3.1v12.1h-4v-8h-22.7v8h-4V42.1h2.7c2.8-4.2,4.1-12.6,4.1-25.2V11.8L213.2,11.8z M229.5,15.9h-12v1.8
		c0,2.9-0.3,6.9-0.8,12c-0.5,5.1-1.5,9.2-3.1,12.5h15.8V15.9z"/>
	<path d="M259,38.1l4.4,0.5c-0.7,2.5-2,4.5-3.8,5.9c-1.9,1.4-4.2,2.1-7.1,2.1c-3.6,0-6.5-1.1-8.6-3.4c-2.1-2.2-3.2-5.4-3.2-9.4
		c0-4.2,1.1-7.4,3.2-9.7c2.2-2.3,4.9-3.5,8.4-3.5c3.3,0,6,1.1,8.1,3.4c2.1,2.3,3.2,5.4,3.2,9.5c0,0.3,0,0.6,0,1.1h-18.5
		c0.2,2.7,0.9,4.8,2.3,6.3c1.4,1.5,3.1,2.2,5.2,2.2c1.5,0,2.9-0.4,4-1.2C257.5,41.2,258.3,39.9,259,38.1L259,38.1z M245.1,31.3H259
		c-0.2-2.1-0.7-3.7-1.6-4.7c-1.3-1.6-3.1-2.4-5.2-2.4c-1.9,0-3.6,0.6-4.9,1.9C246,27.4,245.3,29.2,245.1,31.3z"/>
	<polygon points="268.6,21.3 288.2,21.3 288.2,46.1 284,46.1 284,24.8 272.8,24.8 272.8,46.1 268.6,46.1 	"/>
	<path d="M310.8,43.1c-1.6,1.3-3.1,2.3-4.5,2.8c-1.4,0.5-3,0.8-4.6,0.8c-2.7,0-4.8-0.7-6.3-2c-1.5-1.3-2.2-3-2.2-5.1
		c0-1.2,0.3-2.3,0.8-3.3c0.6-1,1.3-1.8,2.2-2.4c0.9-0.6,1.9-1.1,3-1.4c0.8-0.2,2.1-0.4,3.7-0.6c3.4-0.4,5.9-0.9,7.5-1.5
		c0-0.6,0-0.9,0-1.1c0-1.7-0.4-2.9-1.2-3.6c-1.1-1-2.7-1.4-4.8-1.4c-2,0-3.4,0.3-4.4,1c-0.9,0.7-1.6,1.9-2.1,3.7l-4.1-0.6
		c0.4-1.8,1-3.2,1.8-4.3c0.9-1.1,2.1-1.9,3.7-2.5c1.6-0.6,3.5-0.9,5.6-0.9c2.1,0,3.8,0.3,5.2,0.8c1.3,0.5,2.3,1.1,2.9,1.9
		c0.6,0.8,1.1,1.7,1.3,2.9c0.1,0.7,0.2,2,0.2,3.9v5.6c0,3.9,0.1,6.4,0.3,7.4c0.2,1,0.5,2,1.1,3h-4.4
		C311.2,45.3,310.9,44.2,310.8,43.1L310.8,43.1z M310.4,33.7c-1.5,0.6-3.8,1.2-6.9,1.6c-1.7,0.2-3,0.5-3.7,0.8
		c-0.7,0.3-1.3,0.8-1.7,1.4c-0.4,0.6-0.6,1.3-0.6,2c0,1.1,0.4,2.1,1.3,2.8c0.8,0.7,2.1,1.1,3.7,1.1c1.6,0,3.1-0.4,4.3-1.1
		c1.3-0.7,2.2-1.7,2.8-2.9c0.5-1,0.7-2.4,0.7-4.2V33.7z"/>
	<path d="M321.2,55.7V21.3h3.8v3.2c0.9-1.3,1.9-2.2,3.1-2.8c1.1-0.6,2.5-1,4.1-1c2.1,0,4,0.6,5.6,1.6c1.6,1.1,2.9,2.6,3.7,4.6
		c0.8,2,1.2,4.2,1.2,6.5c0,2.5-0.5,4.8-1.4,6.9c-0.9,2-2.2,3.6-4,4.7c-1.7,1.1-3.6,1.6-5.5,1.6c-1.4,0-2.7-0.3-3.8-0.9
		c-1.1-0.6-2-1.3-2.7-2.2v12.1H321.2L321.2,55.7z M325,33.9c0,3.2,0.6,5.6,1.9,7.1c1.3,1.5,2.9,2.3,4.7,2.3c1.9,0,3.5-0.8,4.8-2.4
		c1.3-1.6,2-4,2-7.4c0-3.2-0.7-5.5-2-7.1c-1.3-1.6-2.9-2.4-4.7-2.4c-1.8,0-3.4,0.8-4.8,2.5C325.7,28.2,325,30.7,325,33.9z"/>
	<polygon points="344.5,21.3 364.7,21.3 364.7,24.8 356.7,24.8 356.7,46.1 352.5,46.1 352.5,24.8 344.5,24.8 	"/>
	<path d="M384.4,43.1c-1.6,1.3-3.1,2.3-4.5,2.8c-1.4,0.5-3,0.8-4.6,0.8c-2.7,0-4.8-0.7-6.3-2c-1.5-1.3-2.2-3-2.2-5.1
		c0-1.2,0.3-2.3,0.8-3.3c0.6-1,1.3-1.8,2.2-2.4c0.9-0.6,1.9-1.1,3-1.4c0.8-0.2,2.1-0.4,3.7-0.6c3.4-0.4,5.9-0.9,7.5-1.5
		c0-0.6,0-0.9,0-1.1c0-1.7-0.4-2.9-1.2-3.6c-1.1-1-2.7-1.4-4.8-1.4c-2,0-3.4,0.3-4.4,1c-0.9,0.7-1.6,1.9-2.1,3.7l-4.1-0.6
		c0.4-1.8,1-3.2,1.8-4.3c0.9-1.1,2.1-1.9,3.7-2.5c1.6-0.6,3.5-0.9,5.6-0.9c2.1,0,3.8,0.3,5.2,0.8c1.3,0.5,2.3,1.1,2.9,1.9
		c0.6,0.8,1.1,1.7,1.3,2.9c0.1,0.7,0.2,2,0.2,3.9v5.6c0,3.9,0.1,6.4,0.3,7.4c0.2,1,0.5,2,1.1,3h-4.4
		C384.8,45.3,384.5,44.2,384.4,43.1L384.4,43.1z M384.1,33.7c-1.5,0.6-3.8,1.2-6.9,1.6c-1.7,0.2-3,0.5-3.7,0.8
		c-0.7,0.3-1.3,0.8-1.7,1.4c-0.4,0.6-0.6,1.3-0.6,2c0,1.1,0.4,2.1,1.3,2.8c0.8,0.7,2.1,1.1,3.7,1.1c1.6,0,3.1-0.4,4.3-1.1
		c1.3-0.7,2.2-1.7,2.8-2.9c0.5-1,0.7-2.4,0.7-4.2V33.7z"/>
	<polygon points="395,21.3 401.5,21.3 408.1,41.2 415.3,21.3 421.4,21.3 421.4,46.1 417.2,46.1 417.2,26.1 409.8,46.1 406,46.1 
		399.1,25.2 399.1,46.1 395,46.1 	"/>
	<path d="M444.8,38.1l4.4,0.5c-0.7,2.5-2,4.5-3.8,5.9c-1.9,1.4-4.2,2.1-7.1,2.1c-3.6,0-6.5-1.1-8.6-3.4c-2.1-2.2-3.2-5.4-3.2-9.4
		c0-4.2,1.1-7.4,3.2-9.7c2.2-2.3,4.9-3.5,8.4-3.5c3.3,0,6,1.1,8.1,3.4c2.1,2.3,3.2,5.4,3.2,9.5c0,0.3,0,0.6,0,1.1h-18.5
		c0.2,2.7,0.9,4.8,2.3,6.3c1.4,1.5,3.1,2.2,5.2,2.2c1.5,0,2.9-0.4,4-1.2C443.3,41.2,444.2,39.9,444.8,38.1L444.8,38.1z M431,31.3
		h13.9c-0.2-2.1-0.7-3.7-1.6-4.7c-1.3-1.6-3.1-2.4-5.2-2.4c-1.9,0-3.6,0.6-4.9,1.9C431.8,27.4,431.1,29.2,431,31.3z"/>
	<polygon points="454.5,21.3 458.7,21.3 458.7,31.6 470.4,31.6 470.4,21.3 474.6,21.3 474.6,46.1 470.4,46.1 470.4,35.1 458.7,35.1 
		458.7,46.1 454.5,46.1 	"/>
	<polygon points="478.6,21.3 498.8,21.3 498.8,24.8 490.8,24.8 490.8,46.1 486.6,46.1 486.6,24.8 478.6,24.8 	"/>
	<path d="M209.5,74.8h4.2v10.7c1.3,0,2.3-0.3,2.8-0.8c0.5-0.5,1.3-2,2.4-4.5c0.8-2,1.5-3.3,2-3.9c0.5-0.6,1.1-1,1.8-1.3
		c0.7-0.2,1.7-0.3,3.2-0.3h0.8v3.5l-1.2,0c-1.1,0-1.8,0.2-2.1,0.5c-0.3,0.3-0.8,1.4-1.5,3.1c-0.6,1.6-1.2,2.7-1.8,3.4
		c-0.5,0.6-1.3,1.2-2.5,1.7c1.8,0.5,3.6,2.2,5.3,5.1l4.6,7.7h-4.6l-4.5-7.7c-0.9-1.5-1.7-2.6-2.4-3.1c-0.7-0.5-1.5-0.7-2.5-0.7v11.5
		h-4.2V74.8z"/>
	<path d="M230.8,109.2l-0.5-4c0.9,0.2,1.7,0.4,2.4,0.4c0.9,0,1.7-0.2,2.2-0.5c0.6-0.3,1-0.7,1.4-1.3c0.3-0.4,0.7-1.5,1.3-3.1
		c0.1-0.2,0.2-0.6,0.4-1l-9.4-24.9h4.5l5.2,14.4c0.7,1.8,1.3,3.7,1.8,5.8c0.5-1.9,1.1-3.8,1.7-5.7l5.3-14.5h4.2l-9.4,25.3
		c-1,2.7-1.8,4.6-2.4,5.6c-0.8,1.4-1.6,2.4-2.6,3.1c-1,0.6-2.1,1-3.5,1C232.7,109.8,231.8,109.6,230.8,109.2z"/>
	<path d="M256,74.8h19.6v24.8h-4.2V78.3h-11.2v12.4c0,2.9-0.1,4.8-0.3,5.7c-0.2,0.9-0.7,1.7-1.5,2.4c-0.8,0.7-2.1,1-3.6,1
		c-1,0-2.1-0.1-3.4-0.2v-3.5h1.9c0.9,0,1.5-0.1,1.9-0.3c0.4-0.2,0.6-0.5,0.8-0.9c0.1-0.4,0.2-1.7,0.2-3.8V74.8z"/>
	<path d="M281.8,74.8h4.2v9.7h5.3c3.5,0,6.2,0.7,8,2c1.9,1.3,2.8,3.2,2.8,5.6c0,2.1-0.8,3.8-2.3,5.3c-1.6,1.5-4.1,2.2-7.5,2.2h-10.5
		V74.8L281.8,74.8z M286,96.2h4.4c2.7,0,4.6-0.3,5.7-1c1.1-0.7,1.7-1.7,1.7-3.1c0-1.1-0.4-2-1.3-2.9c-0.8-0.8-2.7-1.3-5.6-1.3h-5
		V96.2z"/>
	<polygon points="300.8,74.8 321,74.8 321,78.3 313,78.3 313,99.7 308.8,99.7 308.8,78.3 300.8,78.3 	"/>
	<path d="M325.4,109.2l-0.5-4c0.9,0.2,1.7,0.4,2.4,0.4c0.9,0,1.7-0.2,2.2-0.5c0.6-0.3,1-0.7,1.4-1.3c0.3-0.4,0.7-1.5,1.3-3.1
		c0.1-0.2,0.2-0.6,0.4-1l-9.4-24.9h4.5l5.2,14.4c0.7,1.8,1.3,3.7,1.8,5.8c0.5-1.9,1.1-3.8,1.7-5.7l5.3-14.5h4.2l-9.4,25.3
		c-1,2.7-1.8,4.6-2.4,5.6c-0.8,1.4-1.6,2.4-2.6,3.1c-1,0.6-2.1,1-3.5,1C327.3,109.8,326.4,109.6,325.4,109.2z"/>
	<path d="M349,109.2V74.8h3.8V78c0.9-1.3,1.9-2.2,3.1-2.8c1.1-0.6,2.5-1,4.1-1c2.1,0,4,0.6,5.6,1.6c1.6,1.1,2.9,2.6,3.7,4.6
		c0.8,2,1.2,4.2,1.2,6.5c0,2.5-0.5,4.8-1.4,6.9c-0.9,2-2.2,3.6-4,4.7c-1.7,1.1-3.6,1.6-5.5,1.6c-1.4,0-2.7-0.3-3.8-0.9
		c-1.1-0.6-2-1.3-2.7-2.2v12.1H349L349,109.2z M352.8,87.4c0,3.2,0.6,5.6,1.9,7.1c1.3,1.5,2.9,2.3,4.7,2.3c1.9,0,3.5-0.8,4.8-2.4
		c1.3-1.6,2-4,2-7.4c0-3.2-0.7-5.5-2-7.1c-1.3-1.6-2.9-2.4-4.7-2.4c-1.8,0-3.4,0.8-4.8,2.5C353.5,81.7,352.8,84.2,352.8,87.4z"/>
	<path d="M399.3,74.8h4.2v24.8h-4.2V74.8L399.3,74.8z M375.7,74.8h4.2v9.7h5.3c3.5,0,6.2,0.7,8,2c1.9,1.3,2.8,3.2,2.8,5.6
		c0,2.1-0.8,3.8-2.4,5.3c-1.6,1.5-4.1,2.2-7.5,2.2h-10.5V74.8L375.7,74.8z M380,96.2h4.4c2.7,0,4.6-0.3,5.7-1
		c1.1-0.7,1.7-1.7,1.7-3.1c0-1.1-0.4-2-1.3-2.9c-0.8-0.8-2.7-1.3-5.6-1.3h-5V96.2z"/>
	<polygon points="209.5,128.3 223.8,128.3 223.8,131.8 213.8,131.8 213.8,153.2 209.5,153.2 	"/>
	<path d="M224.4,140.8c0-4.6,1.3-8,3.8-10.2c2.1-1.8,4.7-2.8,7.8-2.8c3.4,0,6.2,1.1,8.4,3.4c2.2,2.2,3.2,5.3,3.2,9.3
		c0,3.2-0.5,5.7-1.4,7.5c-1,1.8-2.4,3.3-4.2,4.3c-1.8,1-3.8,1.5-6,1.5c-3.5,0-6.3-1.1-8.4-3.3C225.4,148.2,224.4,145,224.4,140.8
		L224.4,140.8z M228.7,140.8c0,3.2,0.7,5.6,2.1,7.1c1.4,1.6,3.1,2.4,5.2,2.4c2.1,0,3.8-0.8,5.2-2.4c1.4-1.6,2.1-4,2.1-7.3
		c0-3.1-0.7-5.4-2.1-7c-1.4-1.6-3.1-2.4-5.2-2.4c-2.1,0-3.8,0.8-5.2,2.4C229.4,135.2,228.7,137.6,228.7,140.8z"/>
	<path d="M252.6,162.7v-34.4h3.8v3.2c0.9-1.3,1.9-2.2,3.1-2.8c1.1-0.6,2.5-1,4.1-1c2.1,0,4,0.6,5.6,1.6c1.6,1.1,2.9,2.6,3.7,4.6
		c0.8,2,1.2,4.2,1.2,6.5c0,2.5-0.5,4.8-1.4,6.9c-0.9,2-2.2,3.6-4,4.7c-1.7,1.1-3.6,1.6-5.5,1.6c-1.4,0-2.7-0.3-3.8-0.9
		c-1.1-0.6-2-1.3-2.7-2.2v12.1H252.6L252.6,162.7z M256.4,140.9c0,3.2,0.6,5.6,1.9,7.1c1.3,1.5,2.9,2.3,4.7,2.3
		c1.9,0,3.5-0.8,4.8-2.4c1.3-1.6,2-4,2-7.4c0-3.2-0.7-5.5-2-7.1c-1.3-1.6-2.9-2.4-4.7-2.4c-1.8,0-3.4,0.8-4.8,2.5
		C257.1,135.3,256.4,137.7,256.4,140.9z"/>
	<path d="M277.7,140.8c0-4.6,1.3-8,3.8-10.2c2.1-1.8,4.7-2.8,7.8-2.8c3.4,0,6.2,1.1,8.4,3.4c2.2,2.2,3.3,5.3,3.3,9.3
		c0,3.2-0.5,5.7-1.4,7.5c-1,1.8-2.4,3.3-4.2,4.3c-1.8,1-3.8,1.5-6,1.5c-3.5,0-6.3-1.1-8.4-3.3C278.7,148.2,277.7,145,277.7,140.8
		L277.7,140.8z M282,140.8c0,3.2,0.7,5.6,2.1,7.1c1.4,1.6,3.1,2.4,5.2,2.4c2.1,0,3.8-0.8,5.2-2.4c1.4-1.6,2.1-4,2.1-7.3
		c0-3.1-0.7-5.4-2.1-7c-1.4-1.6-3.1-2.4-5.2-2.4c-2.1,0-3.8,0.8-5.2,2.4C282.7,135.2,282,137.6,282,140.8z"/>
	<path d="M308.2,128.3h17.3v21.4h2.7v10.5h-3.5v-7h-19.6v7h-3.5v-10.5h2.2C306.8,145.7,308.3,138.6,308.2,128.3L308.2,128.3z
		 M311.7,131.8c-0.3,8.1-1.6,14-3.7,17.9h13.4v-17.9H311.7z"/>
	<path d="M349,150.1c-1.6,1.3-3.1,2.3-4.5,2.8c-1.4,0.5-3,0.8-4.6,0.8c-2.7,0-4.8-0.7-6.3-2c-1.5-1.3-2.2-3-2.2-5.1
		c0-1.2,0.3-2.3,0.8-3.3c0.6-1,1.3-1.8,2.2-2.4c0.9-0.6,1.9-1.1,3-1.4c0.8-0.2,2.1-0.4,3.7-0.6c3.4-0.4,5.9-0.9,7.5-1.5
		c0-0.6,0-0.9,0-1.1c0-1.7-0.4-2.9-1.2-3.6c-1.1-1-2.7-1.4-4.8-1.4c-2,0-3.4,0.3-4.4,1c-0.9,0.7-1.6,1.9-2.1,3.7l-4.1-0.6
		c0.4-1.8,1-3.2,1.8-4.3c0.9-1.1,2.1-1.9,3.7-2.5c1.6-0.6,3.5-0.9,5.6-0.9c2.1,0,3.8,0.3,5.2,0.8c1.3,0.5,2.3,1.1,2.9,1.9
		c0.6,0.8,1.1,1.7,1.3,2.9c0.1,0.7,0.2,2,0.2,3.9v5.6c0,3.9,0.1,6.4,0.3,7.4c0.2,1,0.5,2,1.1,3h-4.4
		C349.4,152.3,349.1,151.3,349,150.1L349,150.1z M348.6,140.7c-1.5,0.6-3.8,1.2-6.9,1.6c-1.7,0.2-3,0.5-3.7,0.8
		c-0.7,0.3-1.3,0.8-1.7,1.4c-0.4,0.6-0.6,1.3-0.6,2c0,1.1,0.4,2.1,1.3,2.8c0.8,0.7,2.1,1.1,3.7,1.1c1.6,0,3.1-0.4,4.3-1.1
		c1.3-0.7,2.2-1.7,2.8-2.9c0.5-1,0.7-2.4,0.7-4.2V140.7z"/>
	<path d="M373.1,153.2v-34.3h6.8l8.1,24.3c0.8,2.3,1.3,4,1.6,5.1c0.4-1.2,1-3.1,1.8-5.5l8.2-23.9h6.1v34.3h-4.4v-28.7l-10,28.7h-4.1
		l-9.9-29.2v29.2H373.1z"/>
	<path d="M411.6,140.8c0-4.6,1.3-8,3.8-10.2c2.1-1.8,4.7-2.8,7.8-2.8c3.4,0,6.2,1.1,8.4,3.4c2.2,2.2,3.2,5.3,3.2,9.3
		c0,3.2-0.5,5.7-1.4,7.5c-1,1.8-2.4,3.3-4.2,4.3c-1.8,1-3.8,1.5-6,1.5c-3.5,0-6.3-1.1-8.4-3.3C412.7,148.2,411.6,145,411.6,140.8
		L411.6,140.8z M416,140.8c0,3.2,0.7,5.6,2.1,7.1c1.4,1.6,3.1,2.4,5.2,2.4c2.1,0,3.8-0.8,5.2-2.4c1.4-1.6,2.1-4,2.1-7.3
		c0-3.1-0.7-5.4-2.1-7c-1.4-1.6-3.1-2.4-5.2-2.4c-2.1,0-3.8,0.8-5.2,2.4C416.6,135.2,416,137.6,416,140.8z"/>
	<path d="M456.1,144.1l4.1,0.5c-0.4,2.9-1.6,5.1-3.5,6.7c-1.9,1.6-4.2,2.4-6.9,2.4c-3.4,0-6.1-1.1-8.2-3.3c-2.1-2.2-3.1-5.4-3.1-9.6
		c0-2.7,0.4-5,1.3-7c0.9-2,2.2-3.5,4.1-4.5c1.8-1,3.8-1.5,5.9-1.5c2.7,0,4.9,0.7,6.6,2.1c1.7,1.4,2.8,3.3,3.3,5.8l-4.1,0.6
		c-0.4-1.7-1.1-2.9-2.1-3.8c-1-0.8-2.2-1.3-3.6-1.3c-2.1,0-3.8,0.8-5.2,2.3c-1.3,1.5-2,3.9-2,7.2c0,3.3,0.6,5.8,1.9,7.3
		c1.3,1.5,2.9,2.3,5,2.3c1.7,0,3-0.5,4.1-1.5C455.1,147.8,455.8,146.2,456.1,144.1z"/>
	<path d="M463.8,128.3h4.2v10.7c1.3,0,2.3-0.3,2.8-0.8c0.5-0.5,1.3-2,2.4-4.5c0.8-2,1.5-3.3,2-3.9c0.5-0.6,1.1-1,1.8-1.3
		c0.7-0.2,1.7-0.3,3.2-0.3h0.8v3.5l-1.2,0c-1.1,0-1.8,0.2-2.1,0.5c-0.3,0.3-0.8,1.4-1.5,3.1c-0.6,1.6-1.2,2.7-1.8,3.4
		c-0.5,0.6-1.3,1.2-2.5,1.7c1.8,0.5,3.6,2.2,5.3,5.1l4.6,7.7h-4.6l-4.5-7.7c-0.9-1.5-1.7-2.6-2.4-3.1c-0.7-0.5-1.5-0.7-2.5-0.7v11.5
		h-4.2V128.3z"/>
	<path d="M484.8,128.3h9.7c2.4,0,4.2,0.2,5.3,0.6c1.2,0.4,2.2,1.1,3,2.2c0.8,1.1,1.3,2.3,1.3,3.8c0,1.2-0.2,2.2-0.7,3.1
		c-0.5,0.9-1.2,1.6-2.2,2.2c1.2,0.4,2.1,1.1,2.9,2.2c0.8,1.1,1.2,2.3,1.2,3.8c-0.2,2.4-1,4.1-2.5,5.2c-1.5,1.1-3.8,1.7-6.7,1.7
		h-11.2V128.3L484.8,128.3z M489,138.8h4.5c1.8,0,3-0.1,3.7-0.3c0.7-0.2,1.3-0.6,1.8-1.1c0.5-0.6,0.8-1.3,0.8-2
		c0-1.3-0.5-2.2-1.4-2.7c-0.9-0.5-2.5-0.8-4.8-0.8H489V138.8L489,138.8z M489,149.7h5.5c2.4,0,4-0.3,4.9-0.8
		c0.9-0.6,1.4-1.5,1.4-2.9c0-0.8-0.3-1.5-0.8-2.2c-0.5-0.7-1.2-1.1-2-1.3c-0.8-0.2-2.2-0.3-4-0.3H489V149.7z"/>
	<path d="M533.9,128.3h4.2v24.8h-4.2V128.3L533.9,128.3z M510.3,128.3h4.2v9.7h5.3c3.5,0,6.2,0.7,8,2c1.9,1.3,2.8,3.2,2.8,5.6
		c0,2.1-0.8,3.8-2.4,5.3c-1.6,1.5-4.1,2.2-7.5,2.2h-10.5V128.3L510.3,128.3z M514.5,149.7h4.4c2.7,0,4.6-0.3,5.7-1
		c1.1-0.7,1.7-1.7,1.7-3.1c0-1.1-0.4-2-1.3-2.9c-0.8-0.8-2.7-1.3-5.6-1.3h-5V149.7z"/>
</g>
<g id="Layer_3">
</g>
<g id="Layer_2">
	<g>
		<path fill-rule="evenodd" clip-rule="evenodd" d="M103.8,44.4c0.2,2.7,2.1,6,5.2,8.4c-0.2-0.6-2.2-2.7-3.3-4.7
			C104.5,46.1,104.2,44.8,103.8,44.4z"/>
		<path fill-rule="evenodd" clip-rule="evenodd" d="M103,45.9c0.2,2.9,2.4,6.5,5.7,9.1c-0.2-0.7-2.5-2.9-3.7-5.1
			C103.7,47.8,103.5,46.4,103,45.9z"/>
		<polygon fill-rule="evenodd" clip-rule="evenodd" points="103,45.9 103,45.9 103,45.9 		"/>
		<path fill-rule="evenodd" clip-rule="evenodd" d="M113.5,78.5c0-1-0.8-2.1-1.9-2.8c0.1,0.2,0.7,0.9,1.2,1.6
			C113.1,78,113.3,78.4,113.5,78.5z"/>
		<path fill-rule="evenodd" clip-rule="evenodd" d="M123.4,48.7c0.3,0.5,0.5,0.6,0.4,0.4c-0.2-1.2-0.6-2.2-0.6-3.3
			c0-0.5-0.1-0.6-0.3-0.7c-0.2-0.1,0.1,1.2,0.1,1.8C122.9,47.6,123,48.1,123.4,48.7z"/>
		<path fill-rule="evenodd" clip-rule="evenodd" d="M108.5,57.3c-0.2-0.8-2.8-3.2-4.2-5.6c-1.3-2.3-1.6-3.8-2.1-4.4
			C102.5,50.7,105,54.5,108.5,57.3z"/>
		<path fill-rule="evenodd" clip-rule="evenodd" d="M110.5,79.2c0.1,0.4,1.4,1.8,2.2,3.1c0.8,1.3,1,2.1,1.3,2.4
			C113.9,82.8,112.6,80.7,110.5,79.2z"/>
		<path fill-rule="evenodd" clip-rule="evenodd" d="M105.6,41.4c0,2.2,1.5,4.9,4,6.8c-0.1-0.5-1.6-2.1-2.5-3.7
			C106.2,42.9,106,41.8,105.6,41.4z"/>
		<path fill-rule="evenodd" clip-rule="evenodd" d="M104.6,42.9c0.1,2.5,1.8,5.5,4.5,7.6c-0.1-0.6-1.9-2.4-2.9-4.2
			C105.3,44.5,105,43.3,104.6,42.9z"/>
		<path fill-rule="evenodd" clip-rule="evenodd" d="M100.4,161.2C100.3,161.2,100.3,161.2,100.4,161.2
			C100.3,161.3,100.3,161.3,100.4,161.2L100.4,161.2z"/>
		<path fill-rule="evenodd" clip-rule="evenodd" d="M111,77.4c0.1,0.3,1.1,1.4,1.7,2.4c0.6,1,0.8,1.6,1,1.8
			C113.7,80.1,112.7,78.5,111,77.4z"/>
		<path fill-rule="evenodd" clip-rule="evenodd" d="M120.2,47.2c-0.2-1.7-0.6-3.3-0.5-4.7c0.1-0.6-0.1-0.9-0.3-1
			c-0.2-0.2,0,1.7-0.1,2.6c-0.1,0.8,0,1.6,0.4,2.4C120.1,47.2,120.2,47.4,120.2,47.2z"/>
		<path fill-rule="evenodd" clip-rule="evenodd" d="M118.9,46.1c-0.2-1.4-0.4-2.6-0.3-3.7c0.1-0.6-0.1-0.7-0.2-0.9
			c-0.1-0.2-0.1,1.3-0.2,2.1c-0.1,0.7,0,1.3,0.3,2C118.8,46.2,118.9,46.4,118.9,46.1z"/>
		<path fill-rule="evenodd" clip-rule="evenodd" d="M121.4,47.8c-0.2-1.6-0.6-2.9-0.5-4.2c0-0.6-0.2-0.8-0.3-1
			c-0.2-0.1,0,1.6-0.1,2.4c-0.1,0.8,0.1,1.4,0.4,2.1C121.2,47.9,121.5,48,121.4,47.8z"/>
		<path fill-rule="evenodd" clip-rule="evenodd" d="M108.5,62c-0.3-1-3.4-3.7-5.1-6.5c-1.6-2.7-1.8-4.4-2.4-5
			C101.3,54.2,104.3,58.7,108.5,62z"/>
		<path fill-rule="evenodd" clip-rule="evenodd" d="M100.4,52c0.6,4,3.9,9.1,8.3,12.6c-0.3-1-4-4.3-5.7-7.2
			C101.3,54.5,101,52.8,100.4,52z"/>
		<path fill-rule="evenodd" clip-rule="evenodd" d="M108.5,59.6c-0.2-0.9-3.1-3.4-4.6-6c-1.4-2.5-1.7-4.1-2.3-4.8
			C101.9,52.4,104.6,56.5,108.5,59.6z"/>
		<path fill-rule="evenodd" clip-rule="evenodd" d="M125.8,50.1c0.3,0.4,0.5,0.5,0.4,0.3c-0.3-0.9-0.6-1.7-0.7-2.4
			c0-0.3-0.2-0.5-0.3-0.6c-0.2,0,0.1,1,0.2,1.4C125.3,49.4,125.5,49.7,125.8,50.1z"/>
		<path fill-rule="evenodd" clip-rule="evenodd" d="M117.8,45.2c-0.1-1.1-0.2-2.1-0.1-2.9c0.1-0.4-0.1-0.6-0.2-0.7
			c-0.2-0.1-0.2,1.1-0.2,1.7c-0.1,0.5-0.1,0.9,0.2,1.5C117.7,45.3,117.8,45.3,117.8,45.2z"/>
		<path fill-rule="evenodd" clip-rule="evenodd" d="M122.1,48c0.4,0.6,0.6,0.7,0.5,0.5c-0.2-1.4-0.6-2.6-0.6-3.7
			c0-0.6-0.2-0.7-0.3-0.8c-0.2-0.2,0,1.4,0,2.1C121.6,46.7,121.8,47.2,122.1,48z"/>
		<path fill-rule="evenodd" clip-rule="evenodd" d="M124.6,49.4c0.3,0.4,0.5,0.6,0.4,0.4c-0.3-1.1-0.6-2-0.6-2.9
			c-0.1-0.4-0.2-0.6-0.3-0.6c-0.2,0,0.1,1.1,0.1,1.7C124.1,48.4,124.3,48.9,124.6,49.4z"/>
		<polygon fill-rule="evenodd" clip-rule="evenodd" points="101.6,48.9 101.6,48.9 101.6,48.9 		"/>
		<path fill-rule="evenodd" clip-rule="evenodd" d="M110.2,81.1c0.1,0.6,1.7,1.9,2.6,3.6c1,1.6,1,2,1.4,2.3
			C114,84.7,112.7,83.1,110.2,81.1z"/>
		<path fill-rule="evenodd" clip-rule="evenodd" d="M112.8,37.2c-0.2-1-0.3-2.1-0.6-2.2v0c-0.4,1.3,0,3.3,1.3,4.8
			C113.6,39.5,113.1,38.3,112.8,37.2z"/>
		<path fill-rule="evenodd" clip-rule="evenodd" d="M97.5,106.6c-0.1,0-0.2,0.1-0.2,0.2c0,0.2,0.1,0.2,0.2,0.2
			c0.1,0,0.2-0.1,0.2-0.2C97.7,106.7,97.6,106.6,97.5,106.6z"/>
		<path fill-rule="evenodd" clip-rule="evenodd" d="M94.8,108.7l0-1.5l-0.7,0.2l0.3,1.4C94.6,108.8,94.6,108.7,94.8,108.7z"/>
		<path fill-rule="evenodd" clip-rule="evenodd" d="M95.6,108.3V107l-0.3,0.1l0.1,1.4C95.4,108.4,95.5,108.4,95.6,108.3z"/>
		<path fill-rule="evenodd" clip-rule="evenodd" d="M93.7,109v-1.6l-0.4,0.2l0.2,1.4C93.6,109,93.6,109,93.7,109z"/>
		<path fill-rule="evenodd" clip-rule="evenodd" d="M97.3,106.2c0.3-0.1,0.6-0.2,0.5-0.5c-0.1-0.2-0.3-0.2-0.6-0.2
			c-0.3,0.1-0.6,0.3-0.5,0.4C96.8,106.2,97,106.3,97.3,106.2z"/>
		<path fill-rule="evenodd" clip-rule="evenodd" d="M96.2,106.9h-0.2v1.2c0,0,0.2,0,0.2-0.1C96.9,107.4,96.9,107.1,96.2,106.9z"/>
		<path fill-rule="evenodd" clip-rule="evenodd" d="M112.5,40.1c0-0.2-0.5-1.1-0.8-1.9c-0.3-0.9-0.6-1.7-0.9-1.8
			C110.7,37.6,111.2,39.1,112.5,40.1z"/>
		<path fill-rule="evenodd" clip-rule="evenodd" d="M82.9,33.6c0.8,0.2,1.6,0.2,2.3,0.2c1.2-0.7,1.1-1.2-0.2-1.5
			c-0.7-0.2-1.5-0.2-2.2,0C83.4,33,83.1,33.2,82.9,33.6z M83.8,32.9c0.3-0.2,0.8-0.2,1.3,0c0.2,0.2,0.2,0.4-0.1,0.6
			c-0.3,0.1-0.6,0.1-0.9,0C83.8,33.2,84,33,83.8,32.9L83.8,32.9z"/>
		<path fill-rule="evenodd" clip-rule="evenodd" d="M111.5,41.9c0-0.2-0.7-1.3-1.2-2.3c-0.5-1.1-0.7-2-1-2.1
			C109.2,38.9,110,40.7,111.5,41.9z"/>
		<path fill-rule="evenodd" clip-rule="evenodd" d="M110.8,44c-0.1-0.4-1-1.6-1.7-2.9c-0.6-1.2-1-2.2-1.2-2.4
			C107.8,40.4,108.9,42.5,110.8,44z"/>
		<path fill-rule="evenodd" clip-rule="evenodd" d="M159.3,109.4l-0.9-2.9c-0.2-1.2,0-2.1,0.1-3c0.2-2.3,0.3-3.6-2.1-5.3
			c-3.1-3.2-5.7-6.4-7.9-9.8c0.1-4.5-3.8-5.7-6.3-0.8l-4.8,3.3c-1.2,0.8-2-0.5-2-1.8c-0.5-5.9-4.5-10.7-9-15.3
			c-2.4-7.2-5.6-13.3-6.8-18.8c4.5,0.5,7.9,1.4,9.3,2.7c2,2.1,4.5,3.3,5.2,1.7c0.2-0.5-1.2-1.4-1.9-2.1c0.8,0,1.8,0.7,2.9,1.8
			c2,0,2.6-1.5,2.1-3.6c0.2-1.7,0.2-2.9-0.6-3.5l-1.7-1c-2.8-3-5.1-6-7-9.4c-0.2-0.4-0.3-0.7-0.3-1c0-1.3-0.4-2.5-1.7-3.7l0.6-0.3
			l-0.1-0.5l1.4,0.3l-1.4-2.4c-0.8-2.9-3.5-3.4-7.5-2.2c-0.6,0.2-1.3-0.5-2-1.3c-2.5-2.5-5.2-3.8-4.3-2c0.2,0.3,1,1.2,0.1,1.1
			l-4.4-0.7c-1-0.2-1.1,0.2-0.9,0.6c0.8,0.9,1.6,1.7,1.9,2.6l-5.6,0.3c-1.1,0.1-2.1,0.6-3.1,0.5c-3-2.5-6.8-0.6-10.6,2.3l-0.6-0.2
			l-0.1-4.5H90l-0.4-2.9h0.3c0.3-4.4-0.6-7.3-2.2-9.3c-0.3-1.3,1-1.2,1.3-1.6c1.3-1.6,1.2-3.4,1.2-4.4c-0.2-1.9-0.9-2.5-1.8-1.9
			h-1.1c-1.2-0.2-2.1-0.6-2.6-1.1c-1.3-0.9-2.5-0.9-3.7-0.1c-5.7,1.4-6.7,5.9-13.7,2.9c-0.8-0.1-1,0.2-0.6,0.9
			c1.2,1.6,2.9,2.6,4.7,3.4c-0.6,0.5-1.9,0.6-4,0.4c1.2,1.6,3.5,2.4,7.1,2.3c1.3,0.8,2.9,0.5,4.7-0.2c1-0.6,1-0.2,0.4,1
			c-1.8,1.5-3.1,4.4-3.3,9.8c-0.7,1.1-1.1,2.3-1.3,3.7c-2.6-0.7-4.9-1.2-5.9-0.4l-1-0.1c-2.3-1.8-4.5-1.7-6.4-0.5l-4,3.1
			c-1.5,1-2.8,1.1-3-0.2l-1.7-3.6c0.1-2.5-0.9-3.7-2.6-3.9c-0.8-0.7-1.3-1.6-1.5-2.5l-1.2-1.5c0.4-1.3-0.2-1.8-1.1-1.8
			c-1,0-2-0.2-2.5-0.6l-8.3-10.2c-1,0.2-1.4,0.9-1.3,2.1l7.1,10c0.2,0.5,0.7,1,0.6,1.3c-0.6,1.4-0.8,2.2,0.4,3.4l2.4,2.3
			c0.2,1.7,0.6,3,1.1,3.5c-0.6,1.1,0.2,2.1,1.1,3.2c0.2,0.3,0.3,0.7,0.7,1l0.4,3.4c-3.3,2.8-5,4.8-5.3,6.1c-0.2,0.7-0.3,1.3,0.2,1.7
			l4.7-0.5c0.4,0.2,0.9,0.3,1,0.6c0.7,1.7-0.2,4.3-2.8,4.6c-5.8,1.4-10,3.4-8.3,7.3c2.1,2.8,1,5.2-2.6,7.5c-0.9,0.8-1.3,1.8-1.1,3.2
			c-1,0.9-1.8,2.2-2.5,3.7c-0.6,1.6-0.6,2.3,0.6,2.1c8.1-2.7,16-3.8,21.7,0.9c2.8,2.3,2.3,3.5,6.7,3.7c-0.5,1.8,0,2.9,1.6,3.2
			l0.2,2.1c-1.7,0.4-3.7,0.4-5.5,0.9c-2,0.5-3.9,1.3-5.6,1.3c-1.5-1.2-3.3-1.9-4.7-2.8c-7.3-4.5-13.4-4.8-18.7,1.4
			c-2.8,3.2-5.3,7.7-7.4,14.5c-0.4,1.2-1.4,1.7-3.3,0.6c-3.8-3.1-4.5-5.9-2.6-7.7c2.7-2.5,3.7-1,2.3,0.3l0.1,0.3
			c2.1,0,2.9,1.4,3.7,2.9C22,95,21,91.9,18.6,89.5L18,89.4l0.2,3.9c-4.2-0.9-6.5,2.4-6.8,5.4c-0.2,2.9,1.1,5.6,4.9,7.8
			c2.1,0.7,2.8,3.2,1.1,5.6c-4.1,6-3.5,12.5,0.2,20.7l0.5-0.2c0.8-9.1,2.7-13.7,5.7-14.5c1-0.3,1.8-1,2.6-2c0.9-1.3,1.3-1.2,2,0.2
			c1.7,3.8,1.5,7.5-0.8,11.1c-5.2,8.5-5.5,15,2,20.2l0.2,0.6l-2,2.5c-0.6,1-0.2,2.3,1.6,3.7c1.3,1.5,1.9,4,2.3,7.1
			c-0.6,1-0.7,2.1-0.3,3.5c1.1,1.6,3.8,2.5,7.6,2.1c0.4-0.1,0.3-0.4,0.3-0.8c0.3-1.7-0.9-3-2.1-5.2c-3.7-3.3-4.5-6.5-3.3-9.6
			l0.6-0.9c2.9,1,6.7,2.2,10.1,2.7c-1.4,2.9-1.3,6.6,0,8.7c2.4,4.1,4.9,6,9.8,5.6c6.4-0.6,9.6-5.9,7.2-13.1c2.3-1.3,3.8-1.2,4.6,0.2
			c-0.1,3.3,1.3,2.2,1.4,5.4c-3.8,3.3-5.2,6.2-1.1,8c2.1,2.1,1,2.9-1.8,3.1c-2.9-0.7-5.1-0.6-5.5,1.8c-2.7,0.2-3.5,1.7-3.4,4.3
			c0.8-1.9,2.3-2.1,3.1-1.6c1.4-0.1,2.9,0.3,4.2-0.2c1.2-0.6,2.5-0.6,4,0.1c0.8,0,1.4,0.3,1.8,1c1.9,2,1.7-0.2,5.9,2.3
			c1,0.1,2.8,0,3.1,1.7l0.4-1.5c0.3-0.6,0.2-1.2-0.5-1.7c-1.3-1.6,0.8-1.7,4.5-1c2,0.9,3.8,1.3,5.2,1c1.7-1.7,2.1-0.6,2.4,1.6
			c1.2-3.3,0.4-5-2.9-5.2c0.6-1.7,0.8,0.9,2-1.3c1-0.5,2.1,0,3.1,1c0.2-1.6-0.7-2.5-2.8-3c-0.5-1.3-1.5-1.4-2.9-0.1
			c-6-1.6-6.7-5.2-3.3-6c1.8-0.5,2.5,1.4,4,2c1.1,0.4,1.7,0.2,3.2,0.4c1.7,0.1,3.2,0.4,4.2,1.1l1.2,0.4c0.6-0.5,1.3-0.4,2.1,0.3
			c0.9,1.3,1.7,1.4,2.5,0.4c2.4-1.9,6-1.9,5.7-0.7c-0.1,1.7,0.2,2.4,0.9,2.2c0.6,0.1,0.8,0.8,0.8,2.1c-2.3-0.1-3.9,0.3-3.9,2
			c-2.1,0.6-2.1,2.1-1.1,4.1c-0.2-3.8,3-0.7,6.2-2.8l2.2-0.2c0.2,1.1,1.3,1.6,3.3,1.5c0.7-0.3,1.8-0.3,2.5-0.5c3.9-1,7-0.8,9.3,2.4
			c0.5-1,0.4-2-0.2-2.9c2.7-1.8,5.6-1.1,3.9,1.8c1.6-0.8,3.2-4.8,1.1-4.8c0.9-2.4,4.4-0.4,3.4,1.4c1.5-0.8,1.7-2-0.1-3.5
			c-0.2-1.3-1.3-1.7-3.3-1.2c-1.1-1.9-2.5-2-4.4-0.3c-1.9,0.9-3.4,1-4.4-0.3c-1-1.7-0.8-2.5,0.6-1.9c0.7,0.2,1-0.6,1.9-2.3
			c0.3-0.7,1-1.3,1.4-2.2c2.1-0.3,3.7-2.1,5.9-5.8c1.5-0.7,2.2-3.7,2.3-8.3c0.6,0.3,1.4,0.1,2.5-0.6c-0.7-0.1-1-0.3-1-2.1h2
			c0.8-0.3,1.1-0.6,1-1c0-0.3-0.8-0.2-1.3-1.1c-0.2-1.1-0.9-2.2-2.1-3.3l-1.9-3.1c-1.3-4.3-2.9-6.7-4.9-5.2l-0.6-0.3
			c-1.5-1.7-2.6-3.9-3.5-6.4c0.1-3-3.1-3.2-4.8-0.3l-0.5-2.4l-0.8,1.3l-5-7.2c0.6-0.1,1.5-0.6,2.1-0.7c6.1-0.5,12.2-2.3,18.5-5.8
			l4.4-1.4c2-0.8,2.6-0.2,3.7,0.9l4.5,4.7c0.9,1,0.9,1.8,0.4,2.8c-0.5,1,0.6,2.2,2.2,3.6c1.4,1.6,1.6,3.7,0.3,6.4
			c-0.7,1.7-0.6,2.9,0.5,3.4l3.1,2.2c2.1,1.7,3.1,1.1,3-1.8c-0.2-1.5-0.6-2.9-1.5-4.4c-1-1.8-1.7-3.6-1.8-5.4
			c-0.1-3.6-0.6-5.6-2.1-6.8c-1.7-1.7-3.3-3.6-4.4-5.6c-0.4-1.2-0.7-1.9-1.4-2.2c-0.2-3.8-2.9-5.7-4.7-4.7c-1.5,0.3-2.9,0.5-4.5,0.2
			v-0.9c2-1.1,5.4-4.6,8.8-8.4c1.3-1.6,1.9-1,3.2,0.3l4.9,5.2c-0.2,2.5,0.2,4.2,2,4c1.2,2.1,1.7,4.1,0.6,4.9c-1.1,1-2,1.6-2,2.9
			c0.2,2,2.5,4,5.1,5c0.2,0.1,0.6-0.1,0.8-0.4C159.9,113.5,160,111.5,159.3,109.4z M153.8,128.9c-0.4,0.4-1.3,0.4-1.9,0.6l0.6,1
			l-0.6,0.3l-0.2,0.9c-1.2-1-1.9-1.8-1.5-2.8l0.8-1.7c0.4-0.6,0.7-0.6,1-0.1L153.8,128.9z M152.3,124.7c0,0.8-0.2,1.5-0.5,1.5
			c-0.3,0-0.5-0.7-0.5-1.5c0-0.8,0.2-1.5,0.5-1.5C152,123.2,152.3,123.9,152.3,124.7z M150.7,116.8L150.7,116.8
			c0.2-0.2,0.6,0.2,0.8,0.6c0.3,0.5,0.4,1,0.2,1c-0.2,0.1-0.6-0.2-0.8-0.6C150.6,117.3,150.5,116.9,150.7,116.8z M133.4,93.4
			c0.2-0.1,0.5,0.2,0.7,0.6c0.2,0.4,0.2,0.8,0,0.9c-0.2,0.2-0.5-0.2-0.6-0.6C133.2,93.9,133.2,93.5,133.4,93.4z M132.9,100.8
			L132.9,100.8c0.2,0,0.2,0.2,0.2,0.3c0,0.2-0.1,0.3-0.2,0.3c-0.2,0-0.2-0.2-0.2-0.3C132.7,101,132.8,100.8,132.9,100.8z
			 M131.2,101.6c0,1.2-1,1.3-1,0.2c-0.3-2.8-0.4-5.4-1-7.7v0c-0.3-1.5,0.2-1.7,0.7-0.3C130.9,95.8,131.3,98.5,131.2,101.6z
			 M128.8,79.1c0-1,0.7-1,0.7,0.2c0.2,2.6-0.2,5.3-0.5,8.1c0,0.4-0.7,1.1-0.7,0.2C128.4,84.2,128.8,81.5,128.8,79.1z M128.2,88.8
			c0.6-0.1,1.3,0.6,1.4,1.4c0.2,1-0.2,1.8-0.7,1.9c-0.6,0.1-1.3-0.5-1.5-1.4C127.3,89.8,127.6,89,128.2,88.8z M126.7,98.1
			c-1-2.3-2.3-4.1-3.7-6.1c-0.6-0.8,0.2-1.2,0.9-0.2c1.3,2.1,2.5,4,3.3,6C127.7,98.7,127.1,98.9,126.7,98.1z M126,99.5
			c-1.5-3.1-3.5-5.8-5.4-8.3c-0.4-0.6,0.6-1,1.4,0.1c1.8,2.5,3.4,5.1,4.7,7.7C127.4,100.5,126.7,100.9,126,99.5z M126.9,94.2
			c-0.2,0.1-0.5-0.2-0.7-0.6c-0.2-0.4-0.2-0.8-0.1-0.9c0.2-0.1,0.5,0.2,0.7,0.6C127,93.8,127,94.2,126.9,94.2z M126.9,90.4
			c0.1,0.1,0.1,0.2,0,0.3l-0.3,0.2c-0.1,0.1-0.2,0.1-0.3-0.1l-1.3-1.5c-0.1-0.1-0.1-0.2,0.1-0.3l0.3-0.2c0.1-0.1,0.2-0.1,0.3,0.1
			L126.9,90.4z M133.2,58.9c0.3,0.3-0.8,0.6-1.8-0.3c-1.2-1.1-0.6-2.1,0.2-1.3L133.2,58.9z M118.1,32.4c2.1-0.1,3.8-1.3,6.3,0.1
			l1.1,1.3c0.7,1.7,0.1,2.5-0.9,1.3c-0.5-0.7-0.1-1.3-1.3-1.9c0.6,1.2,1.1,2.4,1.1,3.7c1.8,1.7,0.2,2.1-0.3,1l-0.7-3.3
			c0.2,1.6,0.2,2.8,0,2.8c-0.6,0-0.2-1.1-0.5-2.5c-0.2-0.6-0.3-1.6-0.6-1.7c-1.4-0.5-2.6-0.1-3.7,0c1.7-0.1,2.9,0,3.3,0.5
			c0.6,0.8,0.6,1.7,0.4,2.5c-0.4,0.6-0.6,0.5-0.6-0.3l-0.2-1c-0.1-0.6-0.7-0.6-1.6-0.6c-0.6,0.1-1.2,0.2-1.8-0.2
			c-0.2-0.2-0.8-0.4-0.1-0.6C117.3,33.1,117.6,32.5,118.1,32.4z M110.4,29.9c2.5,0.5,4.6,0.8,6,1.9c0.8,0.6,0.2,1.1-0.4,0.7
			l-1.7-0.9c0.1,0.7-0.6,0.4-1.5-0.4c-0.6,0.6-1.4,0.3-2.3-0.6l0.6,1.6c0.1,0.3-0.2,0.3-0.4,0.1l-1-1.4
			C109.1,30.2,109.5,29.8,110.4,29.9z M113.4,33.2c-0.2-0.2-0.6-0.8-0.3-1c0.3-0.2,0.8,0.2,0.9,0.7
			C114.1,33.3,113.7,33.5,113.4,33.2z M113.2,34.3l0.2,0.1c-0.2,1.4,0,3,0.8,4.6c0.2-0.3-0.2-1.9-0.3-3.3c0-0.5,0-0.9,0-1.2l0.6,0.2
			c0.1,1.6,0.6,3.1,1.3,3.3c-0.6-0.9-0.6-2-0.6-2.9l0.9,0.2c0,1.7,0.6,3.5,1.3,3.6c-0.7-1-0.7-2.2-0.6-3.3l0.2,0.1
			c0.2,0.6,0.4,1.3,0.7,1.6c0.3-0.4,0.2-1.2-0.1-2.1c0.9-0.5,1.9-0.4,3,0.3c0.4,0.5,0.2,0.7-0.3,0.7l-0.6,0l1.3,0.6
			c0.1,0.2,0.3,0.3-0.4,0.4l-0.5,0.4l1.7,0.2c0.6,0.2,0.5,0.4,0.3,0.6l-0.4,0.5c1.4,0,2.9,0.3,4.8,1.3c-0.1,0.6-0.8,0.6-2.1-0.2
			c0.3,0.8,1.6,0.9,1.5,1.4c-0.2,0.9-2.1,0.1-2.9,1.2l2.1,0.1c0.5,0.3,0.3,0.6-0.4,0.6c1.1,1.3,2,1.7,2.3,0.8c0.3-0.7,0.6-0.7,1,0
			c1.3,0.8,1.6,0.9,0.8,1l-1.3,0.2l1.5,0.2c0.4,0.2,0.4,0.5,0.2,0.7c-1,0.2-1.1,0.3,0.8,0.4c0.8,0.4,1.1,0.8,0.8,1.1
			c-1.7,0.1-1.6,0.3,0.4,0.5c0.5,0.2,0.6,0.6,0.6,0.8c-1,0.2-0.9,0.5,0.4,0.5c0.2,0.2,0.3,0.4,0.1,0.6c-1.2,0.3-1,0.5,0.5,0.5
			c0.1,0.6,1,0.5,1.3,1.2c1.3-0.2,1.8,0.6,0.7,0.6l-0.1,0.2c1.8,0.1,2.6,0.6,2.4,1.7c-0.2,0.5-2.6-1-1.6,2.9l0.4,0.4
			c0.7,0.2-0.1-1.7,1.1-1.6c0.2,0.1,0.3,0.6,0.1,1.6c-0.2,0.9-0.8,1.3-1.7,0.7c-0.8-0.6-1.3-1.1-1.2-1.7l0.1-1.2
			c-0.9,0.1-1-0.5-1.1-1.3c0-0.2-0.3-0.1-0.2-0.3c-1.4-0.2-2.1,0.2-2.5,1.3c-0.1,0.4-0.4,0.1-0.6-0.3c0.1-0.2-0.5,0.1-0.8-0.1
			c-0.2,0-0.2-0.6-0.4-0.5c-0.2,0-0.2,0.2-0.5,0.2c-0.2-0.1-0.2-0.6-0.6-0.2c-0.3,0.3-0.4,0.3-0.5-0.2c0.1-0.4,0.4-1.2-0.5-0.1
			c-0.3,0.2-0.4,0.2-0.6-0.2c-0.5-1.3-0.8-1.4-1-0.2c-0.2,0.5-0.5,0.6-0.5-0.2c-0.5-2.1-0.6-2.1-0.4-0.1c-0.1,0.9-0.3,0.8-0.8-0.2
			c-0.6-1.7-0.8,0.2-1.2-0.6c-0.6-1-0.2-2.3-1.1-2.7l0.6,2.8c0,0.4-0.6,0.5-0.7-0.2c-0.3-1.8-1.5-5-1.3-4l0.7,3.8
			c0.1,0.3-0.8,0.2-1-0.3l-1-4.8c-0.2-1.4-0.2,2.5,0.3,4.2c0,0.2-0.6,0.2-0.6-0.1c0-0.4-0.7-4.9-1-4.7c-0.6,0.6,1,5.1-0.2,4.4
			c-0.2-0.1-0.6-4.6-0.7-4.7c-0.1,0,0,4.4-0.2,4.3c-1.3-1.6,0.1-5.9-0.8-6.1c-0.2,0-0.6,5.2-0.7,5.1c0.6,4,3.8,4.2,3.6,5.4l-2.3-1.2
			c0.6,1.2,1.6,2.5,2.2,3.8c-0.7,0.2,0.1,1.2,0.6,1.7c-0.7-0.1-0.6,0.4,0.8,1.7c0.3,0.2,0.4,0.5,0.3,0.7c-1.7-0.4-1.8-0.4,0.9,1.7
			c-1.7-0.2-1.7-0.1,0.2,1.2c0.3,0.2,0.7,0.7,0.8,1.2c0.1,0.3-0.2,0.2-0.4,0.2c-0.3-0.2-0.8-0.5-0.9-0.6c-0.5-0.1-0.2,0.6,2.1,2.2
			c0.6,0.5,0.8,0.9,0.4,1c-2.7-1.7-2.5-1.3,0.4,1.3c0.7,1.1,0.8,1.6,0.6,1.7c-2.4-2-4-3.2,0.2,0.9c0.7,0.7,0.9,1.2,0.3,1.3
			c-4.1-3.1-1.9-1,0.9,1.8c0.2,0.2,0,0.4-0.2,0.3c-4-2.9-4.1-2.2,0.1,2.1c0.2,0.4,0.4,0.7,0.2,1c-0.1,0.2-0.4,0-0.6-0.1
			c-2.9-2.7-2.6-2.1,0.6,2.3c0.5,0.7,0.7,1.4-0.1,1c-3.6-4-4.7-4.9-0.1,1.3c0.5,0.8,0.6,1.2-0.1,1c-3.3-4.4-3.3-3.9-0.2,0.9
			c0.2,0.6,0.2,0.6,0,0.6c-2.9-3.6-3.8-4.4-0.2,0.8c0.5,1,0.4,1.1-0.1,0.6c-3.6-4.4-3.7-3.9-0.2,0.7c0.3,0.5,0.5,0.9-0.1,0.6
			c-4.1-4.7-4.1-4.5-0.2,0.5c0.1,1.3,0.1,1.2-0.7,0.6c-0.4-0.5-0.4-0.9-0.8-1.3c-2.5-3.1-2.9-2.9,0.2,1.1c-0.3,0.3-0.7,0.3-1.2-0.1
			c-2.6-3.4-2.9-3.4-0.8-0.2l-1.4-0.2c-0.2-0.5-0.5-0.7-0.8-1c-2.5-2.4-3.3-2.6-0.9,0.5c0.1,0.1-0.2,0.2-0.1,0.2l-2.8-0.5
			c-0.3,0-0.7-0.2-1-0.6c-1.2-2.1-1.9-2.9-3.9-4.8c0.2,0.7,1.7,2,2.9,4c0.3,1.3-1.1,0.7-1.6,0.5c-0.9-1.2-1.2-1.3-2.5-2.9
			c-3.6-4.2-7.4-9-10.5-12.3c0.2-0.6,0.2-1.2,0.2-1.7c2.5,4,6.2,8.2,10.2,11.9c-0.3-1.6-5.4-5.9-8.5-10.1c-0.6-1.1-1.2-2.1-1.6-3
			c0.1-0.5,0.1-0.9,0.2-1.4c2.1,4.4,5.6,8.4,10.3,12.5c-0.6-1.4-5.5-5.4-8.1-9.6c-1-1.7-1.7-3-2.1-4.1c0-0.2,0-0.5,0-0.7
			c2.1,4.3,5.9,8.7,10.3,12.5c-0.5-1.4-5.6-5.6-8-9.6c-1-1.7-1.7-3.1-2.1-4.2c0-0.2,0-0.6,0-0.8c2.1,4.1,6.7,9.7,10.9,13.3
			c-0.5-1.3-6.2-6.4-8.6-10.2c-1-1.8-1.7-3.3-2.1-4.4c0-0.3,0-0.8,0-1.1c1.7,4.1,6.2,9.6,10.6,13.2c-0.5-1.3-6-5.9-8.2-9.6
			c-1.2-2-1.8-3.5-2.2-4.6c0-0.4,0-0.9,0.1-1.2c1.5,4.2,5.7,9.3,10.2,12.7c-0.5-1.2-5.6-5.3-7.6-8.8c-1.4-2.3-2-3.8-2.5-4.9
			c0-0.5,0-0.9,0.1-1.3c1.3,4.1,5.2,9.1,9.7,12.6c-0.3-1.2-5.1-4.9-7.1-8.3c-1.5-2.5-2-4.2-2.5-5.3c0-0.1,0-0.2,0-0.2
			c0.1-0.5,0.1-1,0.2-1.5c0.9,4.1,4.7,9.5,9.2,13.1c-0.3-1-4.7-4.8-6.5-7.9c-1.7-2.9-2.1-4.7-2.7-5.6
			C101.3,42.2,106.2,35.5,113.2,34.3z M96.6,84.1c-0.1-0.5-0.2-1-0.2-1.5c1.3,1.4,2.5,2.1,3.8,3.5c-0.4,0.3-0.8,0.3-1.2,0.2
			C98.2,85.4,97.4,84.9,96.6,84.1z M98.2,86.1c-1.2,0.1-1.4-0.2-1.5-1.3C97.3,85.4,97.7,85.6,98.2,86.1z M96.3,81.9
			c0-0.6,0-1.4,0.2-2.1c1.8,2.3,3.5,4,5.3,6.3c-0.2,0.2-0.6,0.2-1,0C99.3,84.6,98,83.5,96.3,81.9z M92.9,77
			c-0.7,0.7-0.9,0.6-0.5-0.3c0.6-1,1.4-1.7,2.5-2.1c1-0.2,0.6,0.3,0.3,0.6C94.5,75.8,93.6,76.2,92.9,77z M94.3,77.4
			c-0.8,1-1.3,2.3-1.9,3.4c-0.2,0.5-1,1-0.8-0.2c0.2-1.5,1-2.9,2.2-3.7C95,76.1,95.2,76.3,94.3,77.4z M94.7,73.8L92,76.1
			c-0.9,0.5-1.9,2-3.4,4.3c-1,0.4-1,0.2-0.5-0.6c0.4-0.7,1.2-1.3,1.7-2c0.4-0.6,0.4-1.2,0.9-1.7c1.1-1.5,2.3-2.8,3.7-3.8
			c1.6-1,2.8-2.9,3.8-5.6l0.2,0.5C98,71.1,96.8,73.3,94.7,73.8z M91.4,78.6c0,0.5-0.2,0.8-0.2,0.8c-0.2,0-0.2-0.3-0.2-0.8
			c0-0.4,0.1-0.8,0.2-0.8C91.2,77.8,91.4,78.2,91.4,78.6z M86.2,76.1c0.4-1.8,1.4-3.4,2.9-4.7c1.7-1.3,3.5-1.8,5.6-3.2
			c0.6-0.4,0.8-0.2,0.4,0.7c-1,1-2,1.5-3.1,1.7c-1.7,0.4-2.9,1.9-4.1,3.8l3.5-2.5c0.8-0.2,0.9,0,0.5,0.6c-3.7,1.9-3.3,4.3-4.8,4.8
			c-0.3-0.4-0.2-1,0.2-1.7L86.2,76.1z M85.8,46.2c0.4,0.2,0.6,0.5,0.8,0.7c0.2-0.6,0-1.3-0.3-1.9c0.8,0.4,1.3,1.1,1.4,2.1
			c0.2-0.6,0.2-1.3-0.2-2.2c0.7,0.2,1.2,0.9,1.8,1.9l-0.2,1.6c0.2,0.5,0.2,0.9-0.1,1.2c-0.3-0.4-0.6-0.6-1-0.3l-0.1,1.3
			c-0.2-0.6-0.6-0.6-0.9-0.2l-1.1,1l-0.3-0.7l-0.2-3.2l0.5-0.3L85.8,46.2z M86.2,36.2L86.2,36.2c-0.1-0.6,0.2-1.3,0.9-1.8
			c0.5-0.3,0.6,0.2,0.4,0.6C86.9,35.5,86.5,35.5,86.2,36.2z M95,38.3c-0.4,0.1,0-1.3-0.6-0.2L93,39.3c-1,0.3-0.7-0.6-0.2-0.2l1-1.3
			c0.9-1.2,1.9-2.1,2.9-2.9c0.9-0.1,1,0.2,0.4,0.7L96,36.2C96.2,36.8,95.4,38.2,95,38.3z M95.9,44.6c2-3.3,4.1-4.9,6.3-5.6
			c0.7,0.1,1,0.3,0.5,1c-1.7,0.7-3.4,2.1-5,4c0.2,0.7-0.2,1.4-1,1.8c0,1.2-0.7,1.7-1.9,1.9l-1.7,2.2c0.4,0.6-0.2,1.4-1.5,2.7
			c-0.8,0.9-1.1,0.6-1-0.8c1-2.6,2.8-6.4,3.7-6.4c0.5,0,0.5-0.2,0.6-1c0.1-0.6,0.7-0.5,0.6,0C95.4,45,95.5,45.1,95.9,44.6z
			 M96.9,40.5c-0.2,0.2-0.3,0-0.1-0.6c1.4-1.7,3.9-2.8,8.5-2.7c1,0.1,0.8,1-0.1,1c-0.7-0.1-1.5,0.2-2.2,0.4
			c-0.9,0.2-1.8,0.3-2.6,0.8c-1.6,0.9-3,2.3-4.3,4.3c-0.5,0.2-0.6,0.1-0.3-0.5c1.6-2.9,3.5-4.4,5.5-4.5l0.1-0.2
			C100.3,38.2,98.9,38.7,96.9,40.5z M98.6,37.4c1.7-1.1,3.7-1.7,6-1.4c1.4,0.2,1.4,1,0.6,1c-2.2-0.3-4.4-0.2-6.5,0.8
			C98,38.1,98.1,37.7,98.6,37.4z M102.7,41.4c-0.8,0-1.9,0.7-3.7,3c-0.5,0.6-1,0.1-0.4-0.7c1.1-1.4,2.5-2.3,3.7-2.9
			C103.8,40.2,103.7,41.4,102.7,41.4z M92.2,45h0.7c0,0.2,0,0.4-0.2,0.4C92.6,45.4,92.4,45.3,92.2,45z M92.4,43.7
			c0.2,0.4,0.3,0.7,0.3,1h-0.9c-0.2-0.2-0.3-0.5-0.5-0.8c-0.1,0-0.1-0.1-0.1-0.2H92.4z M91.2,43.3c-0.3-0.6-0.4-1.2-0.2-1.2
			c0.2,0,0.8,0.5,1.2,1.2H91.2z M91.2,45.7c0.2,0.5,0.3,0.9,0.2,0.9c-0.1,0.1-0.4-0.2-0.6-0.7c-0.3-0.5-0.4-1-0.3-1h0
			C90.6,44.9,90.9,45.2,91.2,45.7z M95.9,49c1.2-2.1,3-4.2,5.2-6.2c1.6-1.1,1.9-0.9,1,0.9c-2.3,3.3-4.6,7.1-6.7,8.3
			c-1,0.1-1.7,0.6-2.2,1.5l1.4-0.7c0.7-0.1,0.8,0.2,0.3,0.6c-1.2,0.6-3.2,3.7-3.7,1.7c-0.8,1.5-2.1,1.3-2.2,2.8l-0.2,2
			c-0.3,0.6-0.6,0.6-0.9,0c-0.2-2.9,0.4-4.5,1.7-5.5C93.5,52.2,94.7,48.9,95.9,49z M98.4,57.6c-0.1,0.6-0.1,1.2-0.6,1.4
			c-0.2,2.1-0.4,3.9-1,4.4c-1,1.2-1.3,1-1-0.6l0.6-2.9c0.1-1.1,0.5-2.1,1.2-3l0.9-2.4c0.2-1,0.6-0.9,0.6,0.3l-0.6,1.5
			C98.9,56.6,98.7,57.1,98.4,57.6z M93.3,63.4c-0.3,0.3-0.9,0.3-0.6-0.2l1.5-3l-1.9,2.6c-0.6,0.7-0.6,0.2-0.4-0.4l1.3-3.1
			c0.3-1.1,0.9-1.7,1.6-1.8l1.7-1.7c0.4-0.5,0.6,0.2,0.4,0.6l-1.3,2.1C95.4,60.1,94.8,61.6,93.3,63.4z M95,63.8
			c-0.3,1.3-1.3,2.8-3.3,3.5c-1.7,0.6-2.1-0.2-1-0.9v0c1.2-0.7,2.2-1.4,3-2.6C94.9,62.2,95.4,62.2,95,63.8z M91.9,60.3
			c-0.4,0.8-1,1.9-1,3.9c0,1.6-2,1.3-1.3-0.6c0.7-1.9,1-2.9,1.7-3.6C92.3,59.2,92.5,59.3,91.9,60.3z M91.9,68c1.7-0.6,3-1.8,4.2-3.2
			c1.3-0.8,1-0.1,0.6,0.8c-0.5,0.8-0.8,1-1.6,1.5c-1,0.8-2.4,1.5-3.5,2c-1.3,0.5-2.6,1.3-3.8,2.7c-0.7,0.6-1,0.3-0.8-0.8
			C87.7,69.6,89.4,68.8,91.9,68z M96.4,54.6c-1.4,1.8-2.2,2.5-2.7,1.7c-1,1.3-2.1,2.1-2.9,2.8l-0.7,2c-0.3,0.5-0.4,0.6-0.5,0
			c0.1-1.7,0.6-2.5,1.3-3c0-0.6,0.2-1.1,0.6-1.4c1.7-0.8,2.9-2.5,4.4-2.9c0.5-1.2,1.4-1.8,2.7-3.5c0.9-0.9,1.1-0.6,0.7,0.7
			C98.9,52.6,98.1,53.8,96.4,54.6z M89.7,57.2L89.7,57.2c0.2-0.2,0.5-0.3,0.6-0.2c0.2,0.2,0.2,0.5-0.1,0.7c-0.2,0.3-0.5,0.4-0.7,0.2
			C89.5,57.8,89.5,57.5,89.7,57.2z M89.9,45.5c0.3,0.6,0.5,1.1,0.3,1.2c-0.1,0.1-0.5-0.3-0.9-0.9c-0.3-0.6-0.5-1.1-0.3-1.2
			C89.1,44.5,89.5,44.9,89.9,45.5z M89.6,38.7c0.3-0.2,0.6-0.3,0.7-0.2h0c0.2,0.2,0,0.4-0.2,0.7c-0.2,0.2-0.6,0.3-0.7,0.2
			C89.2,39.2,89.3,38.9,89.6,38.7z M87.5,78.2c1.6-3.1,3.9-5.1,6-6.8c1.9-1.5,3.1-4,4.1-6.9c0.5-1.2,1.2-0.6,0.6,1.3
			c-1,3.3-3.6,5.7-5.3,7.1c-1.9,1.6-3.2,3.3-5,5.9C87.4,79.4,87,79.1,87.5,78.2z M96,76.4c0.2-0.6,0.6-1,0.9-0.9
			c0.2,0.2,0.3,0.6,0.2,1.2c-0.2,0.5-0.6,0.9-0.8,0.8C95.9,77.4,95.8,76.9,96,76.4z M96.6,79.3c0-0.2,0-0.2,0.1-0.4
			c0.2-0.3,0.2-0.6,0.4-1c2.4,2.9,5,5.9,7.1,8.6c-0.2,0.2-0.7,0.2-1.4-0.1C100.7,83.8,98.7,81.7,96.6,79.3z M97.2,77.3
			c0.2-0.4,0.2-0.8,0.3-1.2c2.6,3.2,4,4.7,6.3,7.5c0.3,0.4,2.2,2.7,2.5,3c-0.3,0.2-0.7,0.2-1.1-0.1C102.3,83.2,99.9,80.4,97.2,77.3z
			 M104.6,83.9c-3.1-3.6-4.1-5.1-7-8.3h0c0.1-0.5,0.2-1,0.3-1.5c2.5,3.2,6.8,8.3,9.3,11.4c0.8,1,0.2,0.6,0.8,1.2
			c0.6,0.6-0.7,0.6-1.1-0.2C106.6,86.1,105,84.4,104.6,83.9z M108,85.4c-3.3-3.9-7-8.4-9.9-11.7c0.1-0.5,0.2-0.9,0.2-1.3
			c2.4,3,7.1,8.7,9.8,12c1.4,1.7,1.3,1.7,2.1,2.5c0,0.4-0.3,0.2-0.9,0.1C108.6,86.3,108.7,86.4,108,85.4z M108.4,33.1
			c1.4,0.2,1.4,1.3-0.2,1.2c-3.7-0.2-6.4-0.1-8.2,1.1c2.5-0.6,5-0.7,7.5-0.3c0.4,0,0.3,0.2,0.1,0.4c-0.2,0.2-0.6,0.3-1,0.2
			c-0.7-0.1-1.4-0.2-2.2-0.2c-2.9-0.1-5.4,0.5-7.2,2.7h0.6c0,0.2-0.3,0.6-0.8,0.9c-0.4,0.2-0.4,0.6-0.6,0.9
			c-0.3,0.5-0.6,0.9-0.7,1.4l0.6,0.2c-1,1.3-1.7,2.2-1.9,1.8c0.2-2.4,1-4.5,2.5-6.4C98.6,34.7,101.8,32.5,108.4,33.1z M93.7,34.1
			c1.2-1,2.3-1.3,3.3-1.3c0.3,0.1,0.8,0.2,1.4,0.1c0.6,0.4,0.4,0.7-0.3,0.9c-0.3-0.2-0.6-0.3-0.9-0.2c-0.7,0.2-0.8,0.6-1.3,0.8
			L95.6,34c-1,0.6-1.6,2.4-2.3,3.3l-0.2-0.9c-0.5,0.1-0.8,1.1-1.5,1.7c0.1-0.6-0.1-1-0.3-1c-1.2,0.8-2.1,1.2-2.4,0.9
			C88.9,37.4,91,36,93.7,34.1z M88.7,25.8v0.5l-2.5,0.8l0.2-1.6c-0.7-0.2-1.2-0.1-1.4,0.6l-0.1,0.6c-0.3-0.2-0.6-0.4-0.9-0.7
			c-0.3-0.3-0.9-0.2-2-0.1c-0.2,0-0.6-0.1-0.7-0.1l0.5,0.7c-0.3,0.2-0.6,0.6-0.9,1.1c0.3,0,0.6,0,1,0.2c0.8,0.6,1.7,0.5,2.5,0.2v2.1
			l-0.5,0.1c-0.4,0.2-0.5,0.6-0.2,0.8l1.4,0.6c0.6,0.2,0.8-0.5,0.8-0.9l0.3-2.5l1.1,0.5c0.4,0.1,0.7,0,1.2-0.2v1.9L88,31
			c0,0.6-0.2,1-0.6,1.2c0,0.7-0.1,1.2-0.3,1.3c-0.8,0.9-1,1.5-2,2.2c-0.6,0.1-1,0.1-1.5-0.2c-0.6-0.4-1.2-0.8-1.5-1.3l-0.5-0.2
			l0.2-0.6l-0.5-0.1l0.2-0.6l-0.6-0.1L81,32l-0.5-0.3l0.4-1l-0.5-0.2l0.6-0.8h-0.9l0.6-0.5L80,29.1c-0.2-1.9,0.2-3.3,1-4.3
			c1.6-0.4,3.1-0.7,4.2-0.6C87,24.5,88.2,25,88.7,25.8z M88.2,27.9c0,0.2-0.3,0.4-0.6,0.3c-0.4,0-0.6-0.2-0.6-0.5
			c0-0.2,0.3-0.3,0.6-0.3C88,27.4,88.2,27.6,88.2,27.9z M85.3,26.8c0-0.2,0.1-0.3,0.1-0.6c0.4-0.4,0.6-0.6,0.6-0.2
			c0,0.3,0,0.6-0.1,0.8L85.3,26.8z M85.8,27.5c-0.1,0.9-0.2,1.8-0.5,3.3c-0.2,0.3-0.3,0.2-0.5-0.2h0c0.1-1,0.2-1.9,0.4-3.2H85.8z
			 M83.3,27.1c0,0.2-0.3,0.5-0.7,0.4c-0.4,0-0.7-0.2-0.6-0.5c0-0.2,0.3-0.5,0.7-0.4C83.1,26.7,83.4,26.9,83.3,27.1z M84.2,30.6
			c0,0.1-0.1,0.2-0.2,0.2c-0.1,0-0.2-0.1-0.2-0.2c0-0.2,0.2-0.2,0.2-0.2C84.2,30.4,84.2,30.5,84.2,30.6z M82.7,66.9
			c-0.2-0.5-0.7-0.7-1.8-0.7c-0.5-0.2-0.5-0.6,0-0.7h2.9c1,0,1.1,0.5,0.5,1.4C84.6,68.4,82.6,69.5,82.7,66.9z M79.6,65.6L79.6,65.6
			c0.2,0,0.3,0.2,0.3,0.3c0,0.2-0.2,0.4-0.3,0.4c-0.1,0-0.2-0.2-0.2-0.4C79.3,65.7,79.5,65.6,79.6,65.6z M78.8,64.8
			c-0.3,0-0.6-0.2-0.6-0.2c0-0.2,0.3-0.3,0.6-0.3c0.4,0,0.7,0.2,0.7,0.3C79.5,64.6,79.2,64.8,78.8,64.8z M79.6,55.7
			c-0.1-1.4-0.1-2.8-0.2-4.1c-0.2-0.1-0.5-0.1-0.8-0.2c0,1.3-0.2,2.5-0.4,4.3c-0.1-1.5-0.2-2.9-0.2-4.4c-0.2-0.1-0.5-0.2-0.7-0.2
			c-0.1,1.2-0.3,2.4-0.6,4c0-1.4,0-2.7,0.1-4.1c-0.2-0.1-0.5-0.2-0.7-0.2c-0.1,1.6-0.2,3-0.3,4.7c-0.2-2.1-0.4-3.5-0.2-4.9
			c-0.2-0.1-0.5-0.2-0.6-0.3c-0.4,1.9-0.6,3.6-0.4,5.5c-0.6-2.5-0.6-3.9-0.1-5.6c-0.2-0.2-0.3-0.2-0.5-0.3c-0.2,0.6-0.6,1.4-1.1,2.1
			c0.4-0.8,0.6-1.6,0.8-2.3c-0.2-0.2-0.6-0.3-0.8-0.5c-0.2,1-0.6,2.1-1.4,3.5c1-2.5,1.1-4.9,1.2-7.9c0.2,1.2,0.4,2.1,0.4,3
			c0.3,0.2,0.6,0.2,0.9,0.4c0.2-1.4,0.2-2.6,0.2-4.1c0.4,1.7,0.6,3,0.3,4.2c0.2,0.1,0.5,0.2,0.7,0.2c0.1-0.2,0.2-0.4,0.4-0.6
			c-0.1,0.2-0.2,0.5-0.2,0.7c0.2,0,0.4,0.1,0.6,0.1c0.2-0.5,0.2-1,0.5-1.7c0,0.6-0.1,1.2-0.1,1.8c0.2,0,0.4,0.1,0.6,0.1
			c0-0.4,0.1-0.9,0.1-1.3c0.2,0.6,0.2,1,0.2,1.4c0.2,0,0.6,0.1,0.8,0.1c0-0.6,0-1.2,0-1.8c0.2,0.7,0.3,1.3,0.4,1.8
			c0.3,0.1,0.6,0.1,1,0.1c0-0.6,0-1.2,0.1-1.9c0.2,0.7,0.2,1.3,0.4,1.9c0.2,0,0.6,0,0.8,0c0-1,0-1.8,0-2.8c0.3,1.1,0.5,2,0.6,2.8
			c0.2,0,0.5-0.1,0.7-0.1c0-0.6-0.2-1.3-0.2-2.1c0.3,0.7,0.6,1.3,0.6,2c0.2,0,0.3-0.1,0.5-0.1c-0.1-0.7-0.2-1.4-0.3-2.2
			c0.3,0.8,0.6,1.4,0.7,2.1c0.2,0,0.3,0,0.5-0.1c-0.2-1.1-0.2-2.3-0.5-3.6c1.8,4.5,1.8,6.6,0.2,11.2c0.4-1.7,0.6-3.3,0.5-4.9
			c-0.2,0.1-0.2,0.1-0.4,0.2c-0.1,0.9-0.3,1.9-0.8,3.2c0.2-1,0.4-2.1,0.3-3.1c-0.2,0.1-0.3,0.2-0.5,0.2c-0.1,0.7-0.3,1.5-0.6,2.5
			c0.2-0.9,0.2-1.7,0.2-2.5c-0.2,0-0.5,0.1-0.7,0.1c-0.1,1-0.2,2.1-0.5,3.6c0-1.2-0.1-2.4-0.1-3.5c-0.2,0-0.5,0-0.8,0
			C80,52.8,79.9,54,79.6,55.7z M77.6,63.8c0,0.5-0.2,0.9-0.3,0.9c-0.2,0-0.2-0.4-0.2-0.9c0-0.6,0.1-1,0.2-1
			C77.4,62.8,77.6,63.2,77.6,63.8z M76.7,63.7c0,0.3-0.2,0.6-0.4,0.6c-0.2,0-0.3-0.3-0.3-0.6c0-0.3,0.2-0.6,0.3-0.6
			C76.5,63.1,76.7,63.4,76.7,63.7z M71.1,43.5c0.9,2.2,0.7,2.9-0.6,5.2C71.2,46.8,71.3,45.9,71.1,43.5z M80.7,22.9
			c0.3-0.2,0.7-0.2,0.8,0c0.1,0.2-0.1,0.4-0.5,0.6c-0.3,0.1-0.7,0.1-0.8-0.1C80.2,23.2,80.4,22.9,80.7,22.9z M82.7,21
			c0.4-0.7,1-1,2-0.9c0.7,0,1.1,0.2,1.1,0.9c0,0.7,0.1,1.5-0.1,2.1c-0.2,0.6-0.3,0.6-1.1,0.6c-0.9,0-1.2-0.4-2.1,0.2
			C83,22.5,82.3,22,82.7,21z M86.1,17.9c-0.4-0.6,0.1-0.9,0.5-0.4c0.5,0.4,0.8,1,0.8,1.5c0.1,0.6-0.6,1-1,0.6
			C86,19.1,86.5,18.6,86.1,17.9z M86.8,15.8c-0.2,0.2-0.5,0.2-0.6,0.1c-0.1-0.1-0.1-0.3,0.1-0.6c0.2-0.2,0.5-0.2,0.6-0.1
			C87,15.3,86.9,15.6,86.8,15.8z M85.5,15.3c-0.2-1.3-0.7-2-1.4-2.2C83.8,13,83.6,13,83.3,13v-0.5c0.6-0.2,1-0.1,1.7-0.1
			c1,0.3,1.5,0.9,1.6,1.6C86.3,14.8,86,15.2,85.5,15.3z M85.1,16.4c-0.2,1,0.5,1.7,0.1,2.6c-0.2,0.9-2.1,0.7-2.1-0.1c0,0,0,0,0,0v0
			c0,0,0,0,0,0C83.1,17.5,83.9,16.7,85.1,16.4z M82.4,18.7c-0.2,0.2-0.4,0.3-0.5,0.2c-0.2-0.1-0.2-0.3,0-0.5
			c0.2-0.2,0.3-0.3,0.5-0.2C82.6,18.3,82.6,18.5,82.4,18.7z M87.9,21.7c0.6,0.6,0.6,1.5,0.1,2.5c-0.4-0.3-0.9-0.2-1.2-0.6
			c-0.1-0.3-0.3-0.2-0.2-1.3c0.1-0.5,0.1-0.9-0.2-1.4h0c-0.2-0.8,0.1-0.9,1-0.5C88.1,21,88.2,21.4,87.9,21.7z M87.8,16.8
			c-0.2,0.2-0.5,0.2-0.6-0.1c-0.2-0.2,0-0.4,0.3-0.6c0.2-0.1,0.5-0.1,0.6,0.1C88.2,16.4,88.1,16.8,87.8,16.8z M89.4,11.7
			c-0.4,0.4-0.5,1-0.5,2.1c0,0.8-0.3,1.4-1,1.7c-0.4,0.2-0.6,0-0.4-0.6l0.6-1.2c0.2-1,0.2-1.7,0-1.9C88,10.6,88.7,10.5,89.4,11.7z
			 M87.7,12.9c0.1,0.7-0.1,1.3-0.6,1.6c0.2-1.5-0.5-1.3-0.6-2.2h0C87.1,12.3,87.6,12.4,87.7,12.9z M83.1,10.8c1-0.1,2-0.1,3,0.1
			c2,0.7,1.2,1.4-0.1,0.9c-0.8-0.5-1.7-0.4-2.9,0c-0.1,0.8-1.4,0.2-2.2,0.7c-0.6,0.2-0.6,0.1-0.3-0.4C81.4,11.4,82.2,10.9,83.1,10.8
			z M82.8,12.5V13c-0.3,0.1-0.3,0.1-0.6,0.2c-0.3,0.1-0.6-0.2-0.1-0.3h0C82.4,12.7,82.5,12.6,82.8,12.5z M71,15.4
			c-1-0.5-2.1-1.1-3-1.8c-0.2-0.4-0.5-0.6,0.6-0.4c0.9,0.6,2.1,0.8,3.3,0.8l0.1,0.6c1.9,0,3.9-0.9,5.9-2.2c-0.1-0.1-0.5-0.2-0.9,0
			c-1.4,0.7-1.3,0.2,1.4-1.1c0.4-0.2,0.7,0.1,1.3-0.2l1.7-0.4C80,12,78.6,13.3,77,14.5C74.8,15.7,72.8,16,71,15.4z M80,13.9
			c0,0.2-0.2,0.3-0.4,0.3c-0.2,0-0.3-0.2-0.3-0.3c0-0.2,0.2-0.3,0.3-0.3C79.8,13.6,80,13.7,80,13.9z M73.8,17.6
			c-0.7,0.5-1.8,1.1-3.5,0.6c-0.9-0.2-0.6-0.7,0.2-0.8c0.9-0.1,2.1-0.4,3.7-1.1l1.8-0.9c0.9-0.4,1-0.3,0.3,0.4
			C75.6,16.7,74.6,17.1,73.8,17.6z M77.8,17.5c-0.2,0.1-0.5,0-0.6-0.2c0-0.2,0.2-0.3,0.4-0.4c0.2-0.1,0.5,0,0.6,0.2
			C78.2,17.3,78.1,17.5,77.8,17.5z M79.7,17.5c-1.4,0.4-1.6,0.2-0.4-0.6c0.4-0.3,0.7-0.6,1.1-0.8c0.9-0.6,1.8-0.7,2.7-0.8
			c-1.4-0.9-4,0.5-6.6,1.8c-0.8,0.4-1,0.2-0.4-0.5c1-1,1.7-1.2,3.1-1.8c1.3-0.5,2.7-0.7,4.1-0.7c1-0.9,1.8,0.3,0.8,1.3
			c-0.3,0.3-0.7,0.5-1.1,0.7C81.9,16.9,80.8,17.2,79.7,17.5z M82.3,35.7c0.9,0.7-0.1,1.3-0.9,0.6c-2.1-1.8-2.8-4.4-3.3-6.7
			c-0.2-0.7,0.3-1,0.5-0.2C79.2,31.7,80.2,33.7,82.3,35.7z M78.1,27.2c0.6-0.8,0.7-1.4,0.6-2.1c-0.1-0.6,0.6-0.6,0.6,0
			c0.2,1.1,0,2-0.6,2.5C78.4,27.9,77.8,27.7,78.1,27.2z M70.4,33.6c1.7,0.2,3.5,0.8,5.2,1.7c0.1,0.2,0.2,0.4-0.2,0.2
			c-0.6-0.5-1.2-0.7-1.7-0.7c0.2,0.7,0.1,1-0.2,1c-0.6-1.1-1.2-1.3-1.7-1c-0.2,0.1-0.2,0.2-0.4,0.1c-0.5-1-0.7-1-1-0.6
			C70,33.8,70,33.6,70.4,33.6z M61.5,34.1c1.5-1.2,3.2-1.6,5-0.8c2.1,1.4,2.9,1,4.8,2.4c1.6,1.2,3.8,2.2,6.5,3.2
			c0.5,0.2,0.4,0.4-0.4,0.8c-1.3-0.9-2.2-1.4-1.4,0c-0.2,0.1-0.3,0-0.5-0.2c-1.4-1.3-2.5-1.9-3.3-1.8c-1-1.3-1.5-1.4-1.3-0.3
			c-0.1,0.4-0.2,0.2-0.6-0.2c-1.2-1.7-1.7-2-1.7-0.7c0,0.2-0.2,0.2-0.5-0.2c-1-1.9-1.3-2-0.8-0.2c-0.1,0.2-0.3,0.2-0.6-0.2
			c-0.9-1.7-0.9-1.6-0.9-0.6c-1.4-1.9-1.7-1.6-1.4-0.3c-0.9-1.3-1.3-1.3-1.3-0.3c-0.7-0.7-1.3-0.6-1.8-0.2
			C61.1,34.5,61.1,34.3,61.5,34.1z M57.6,36.6c3.3-1.1,7.3-1.1,12.2,1.5c3.7,2.1,7.2,3.7,10.6,2.9c0.6-0.2,0.7,0.3,0,0.6l-2.3,0.7
			c-0.5,0.2-0.6,0.5-0.8,0.3c-1-0.4-1.4-0.6-1.5-1.1h-1c0.5,0.7,0.5,1,0.2,0.8L73.3,41c-0.5-0.3-0.6-0.2-0.4,0.2l0.3,0.5
			c0.2,0.2-0.2,0.4-0.6,0.1l-1.9-1.6c-0.5-0.4-0.8-0.4-0.7,0l0.2,0.6c0.1,0.3-0.8-0.4-1.4-1.2c-0.2-0.3-0.6-0.3-0.6,0v0.7
			c0,0.7-1.4-1.2-2.5-2.3c-0.3-0.3-0.8-0.3-0.6,0c0.3,1,0.6,1.6,0.3,1.3l-1.8-1.6c-0.3-0.3-1-0.6-0.9-0.1l0.6,1.4
			c0.1,0.2-1.2-0.5-2.5-1.7h-0.5c-0.9,0,0.9,1.3,0.6,1.5c-0.4,0.2-0.9-0.1-1.3-0.9c-0.2-0.5-0.5-0.6-1-0.5c-0.3,0.1-0.6,0.1-1,0
			C56.6,37.3,56.6,36.9,57.6,36.6z M68.7,47.1c0.1-0.3,0.2-0.6,0.2-0.9l0.2-0.2c0-0.1,0.1-0.2,0.2-0.3c0.2-0.2,0.3-0.4,0.5-0.6
			C69.6,46.1,69.4,46.4,68.7,47.1z M69.5,47.6c0,1.2-0.1,1.5-1,1.8C68.3,48.6,68.5,48,69.5,47.6z M66.4,43.8l-0.1,0.2L66.2,44
			c-0.2,0.4-0.4,0.6-0.8,1c0.1-0.6,0.2-1,0.5-1.4c-0.2-0.1-0.4-0.2-0.6-0.4c-0.4,0.9-1,1.6-1.7,2.6c0.6-1.7,1.1-2.9,2.3-4.2
			c-0.2,0.6-0.3,1-0.5,1.4c0.2,0.2,0.4,0.3,0.6,0.5c0.2-0.2,0.3-0.3,0.4-0.5C66.4,43.3,66.4,43.6,66.4,43.8L66.4,43.8z M65,45.3
			c-0.1,0.6-0.2,0.7-0.6,1.1C64.6,46,64.7,45.7,65,45.3z M63.4,41.5c0.2,0.2,0.4,0.3,0.6,0.4c0.1-0.1,0.2-0.2,0.4-0.4
			c-0.1,0.6-0.2,0.7-0.6,1.1c0.1-0.2,0.2-0.5,0.2-0.6C63.8,41.8,63.6,41.7,63.4,41.5z M48.5,27.3c0.2,0,0.4,0.2,0.4,0.5
			c0,0.2-0.2,0.5-0.4,0.5c-0.2,0-0.4-0.2-0.4-0.5C48.1,27.5,48.3,27.3,48.5,27.3z M43,24L43,24c0.2-1.1,1-1.7,1.7-1.7l1.8,0.3
			c0.6,0.5,0.6,0.6-0.2,0.7c-1.4-0.2-2.2,0.1-2.6,1C43.1,25.1,42.9,25.2,43,24z M41.9,22.9c-2.6-3.7-4.6-6.7-6.6-9.6
			c-0.4-0.6,0.1-0.6,0.3-0.3c2.4,2.9,4.6,5.7,7.1,9C42.8,22.5,42.6,22.9,41.9,22.9z M46.1,29.2c0.2,1.2-0.4,1.4-1.5,0.6l-1.3-1.6
			c-1-1-1.1-1.7-0.6-2.5l1.2-1.4c0.7-0.6,1.6-0.8,2.5-0.7c0.4,0.3,0.5,0.6,0.4,1c-1.4,0-2.4,0.8-3,2.1c1-1.1,2.1-1.9,3.3-1.9
			c0.6,0.2,0.7,0.6,0.7,1c-0.5-0.2-0.8-0.1-1,0.2c-0.2,0.4-1,0.9-1.9,1.5c0.7-0.2,1.6-0.5,2.6-1.2c0.6,0.2,0.6,0.5,0.5,1.1
			c-0.2,0.4-0.6,0.6-1,0.7C46.1,28.1,45.9,28.4,46.1,29.2z M47.6,33.3c0.2,0.6-0.2,1-0.7,0.3c-1-1.2-0.8-2.7,0.3-4.1
			c1.2-1.4,2.7-1.4,4.1-0.4c0.8,0.6,0.6,0.7-0.4,0.7C48.2,29.9,47.2,31.3,47.6,33.3z M54.5,47.5l-0.8-4.8l-0.6,2.1l-0.5-2.9
			c-0.4-0.3-0.5,1.5-0.4,4.1c-0.7-0.7-0.6-2.8-0.6-5.1L51,43c-0.5-1.2-0.2-2.8,0-4.3c-0.5-0.4-0.8,0.4-1,2.8
			c-0.6-1.6-0.4-2.9-0.2-4.4l-0.6,1.2l-0.2-2.8c2.6,2.5,4.8,5.6,6.6,9v2.9l-1-3.3C54.9,46.4,54.8,48,54.5,47.5z M52.9,50.3
			c-0.2,0.1-0.5-0.3-0.6-0.9c-0.2-0.5-0.2-1-0.1-1c0.2,0,0.5,0.3,0.6,0.9C53,49.8,53,50.3,52.9,50.3z M44.1,47.4
			c1.2-1.8,2.1-2.4,2.8-1c0.8-2.5,1.7-2.8,2.8-0.6c1.5,0,1.8,2.3,1.6,5.7l-1.4-3.8v2.5C48.8,46.1,42.7,48.5,44.1,47.4z M39.5,66.9
			c2.5-0.8,4.5-0.9,6.1-1.1c2.8-0.4,4.5-0.6,6.8-1.7c1-0.4,2.2-0.9,3.5-1.9c0.6-0.5,0.4-0.6-0.3-0.6l-2.9,0.2v-1.3l-1.1,1.5
			l-0.2-1.5l-1,2.6l-0.4-3l-0.7,3.3l-0.4-3.2l-1.2,3.6l-0.3-3.8L46.6,64l-0.7-4l-0.5,4l-0.8-3.7l-0.3,3.6l-1-3.6L43.2,64L42,60.3
			l-0.2,3.3L41,60.4l-0.3,2.9L40,60.7l-0.4,2.9c-1.2-2.2-1.7-4-0.9-5.1c1.2-1.3,2.8-1.7,4.4-1.4c0.3-0.6,1-1,1.7-1.5l0.2,0.7
			l1.9-0.6l0.2,0.6l2.1-1.1c-1.2,1.5-1.4,2.1-1,2.1c0.3,0,1.8-1.7,2.3-1.3c-1,1.6-0.1,1.1,1.7-0.3c0.5,0.2-0.6,1.3-0.5,1.4
			c0.2,0.2,0.8-0.3,2.1-1.2c0.3-0.2,1-1,1.2-0.6c0.1,0.5-0.4,0.7-0.6,1c-1.3,1.5-1,1.3,1.3-0.2c0.3-0.2,0.8-0.6,1.1-0.4
			c-1.5,2-0.9,1.6,1.4,0.2c0.3-0.2,0.7-0.7,1.1-0.3c-2.8,2.5-2.3,2.8,1.3,1c-1.7,1.9-1.3,2,1.3,0.3c0.2-0.1,0.6,0,0.9-0.2
			c-1.2,1.2-1.3,2.1-0.8,1.7c0.9-0.4,2-0.9,2.5-0.7c-1.1,1.1-1,1.6,0.4,1.4c0.5,0.2,0,0.7-1.4,1.7c-0.2,0.4-0.5,0-0.7-0.9
			c-0.2,0.5-0.4,0.5-0.6,0.2l-0.3,2.1l-0.5-0.1V61c-0.2-0.3-0.5-0.3-0.7,0L60,62.6l-0.7-0.4c-0.2,0.6-0.6,1.1-1.1,1.5
			c-0.5-0.6-0.8-0.5-1,0.1c-0.3,0.1-0.5-0.2-0.8-0.1c-0.2,0.7-0.5,0.9-0.9,0.4c-0.6,0.4-1.2,0.8-1.8,1.4l-0.3-0.8
			c-0.6,0.8-1,1.3-1.3,1.1l-0.6-0.6l-0.9,1.4l-1.4,0.4c0,0.4,0.6,0.4,1.5,0.2c1.3-0.2,3.7-0.7,5.3-1.2c1.6-0.5,3.3-0.7,5.2-1.5
			c1.5-0.7,3.3-2,5-2.9c0.4,0.3,0.1,1.1-3.3,3.7L61.5,65l0.9,1.2c-0.4,0.4-0.7,0.6-1.1,0.5L59.8,66l0.5,1.5c-1,0-1.5-1.3-2.5-0.7
			l0.4,1.2l-2.1-0.6l0.4,1.4L54.6,68l-0.4,0.8c-0.6,0-0.9,0.2-1,0.4c4.2,0.7,8.8-0.8,13.6-3.1c0.2-0.1,0.3,0.1,0.3,0.5
			c-0.4,1.9-1.7,3.6-3.9,5.1l0.6-2.5c-1.4,0.6-3,3.7-4.2,4.1l1.3-3.3L57.2,73c-0.3-0.4,0.2-1.3,1-2.4c-1.1,0-3,2.6-3.3,2.5
			c-0.8-0.4,0.6-1.2,1-1.8c-1-0.1-1.7,0.9-2.6,1.4c-0.1-0.5,0.5-1,1.4-1.9l-3.1,1.4c0-0.6,1.2-1,1.4-1.8c-1.4,0.9-2.7,1.6-3,1.5
			l1-1.5l-2.7,1.4l1.7-1.7L47,71.4l0.8-1.5l-2.1,1.3l0.9-1.7c-1,0.9-2,1.4-2.5,1.4c0.6-0.7,1-1.3,0.9-1.7c-1,0.8-1.9,1.4-2.3,1.4
			l0.4-1.4c-0.8,0.8-1.7,1.4-2.6,1.7l1-1.6c0.2-0.2,0.1-0.6-0.2-0.3L39,70.8c0.5-0.9,0.7-1.4,0.4-1.7l-1.5,0.8l0.2-0.9L36.3,71
			c-0.2-0.1,0.1-0.6,0.3-1.4l-1.8,1.2C35.7,68.8,37.3,67.6,39.5,66.9z M70,78.8l-1.4,2.8c-0.1,0.3,0.1,0.5,0.5,0.4
			c1-2.5,1.8-4,2.5-4l-1.3,3.8c0.6-1.2,1-1.7,1.2-1.4l-0.3,1.2c0.6-1.3,1.1-1.8,1.4-1.6L72.3,81c0.2-0.5,0.6-0.8,1-1l0.4,0.9
			c0.2-0.7,0.6-1.3,1-1.7L75,80c0.5-0.9,1.1-1.7,2.1-2.5l-0.5,1.6l1.9-1c1-0.3,1.1-0.1,0.4,0.8l-3.9,1.8c-3.1,1.7-6.2,2.8-9.4,1.8
			c-0.8-0.3-1-0.7-0.6-1.4c0.4-0.6,0.9-1,1.4-1.1v1l2.1-2.7l-1.1,3.2C68.4,79.7,69.2,78.7,70,78.8z M69.6,76.8
			c0.6-0.7,0.9-1.3,1.1-1.1c0.1,0-0.2,0.6-0.8,1.3c-0.5,0.7-1,1.2-1,1.1C68.8,78.1,69.2,77.4,69.6,76.8z M82.3,86.4
			c0.7-0.6,1.6-1.1,2.3-1.4c-0.6,0.6-1.1,1.2-1.7,1.7l0.6,0.3c0.7-0.6,1.6-1,2.4-1.1c-0.4,0.3-0.8,0.6-1.1,1c0.6-0.2,1.2-0.2,2-0.2
			c-1,0.5-1.7,0.6-2.5,1l0.6,0.4c0.8-0.5,1.7-0.7,2.4-0.7c-0.6,0.3-1.2,0.7-1.8,1l0.6,0.3c0.7-0.4,1.6-0.6,2.3-0.5
			c-0.6,0.2-1.2,0.5-1.7,0.8l0.3,0.2c0.7-0.3,1.4-0.5,2.1-0.5c-0.6,0.2-1.1,0.6-1.7,0.8l0.5,0.2c0.6-0.2,1.3-0.2,1.8-0.2
			c-0.5,0.2-1,0.2-1.4,0.5l1.7,1l-0.3,0.2L87,90.4c-0.2,0-0.2,0.1-0.3,0.2c0-0.1,0.1-0.2,0.2-0.2l-0.6-0.2c-0.3,0.2-0.7,0.4-1.1,0.6
			c0.2-0.3,0.4-0.6,0.6-0.7l-0.6-0.2c-0.3,0.2-0.7,0.4-1.1,0.6c0.2-0.2,0.4-0.6,0.6-0.8L84,89.2c-0.5,0.3-0.9,0.6-1.4,0.9
			c0.2-0.4,0.5-0.7,0.8-1l-0.9-0.3c-0.4,0.4-0.8,0.7-1.2,1c0.1-0.4,0.3-0.9,0.6-1.2l-0.8-0.3c-0.4,0.4-0.9,0.8-1.4,1.2
			c0.2-0.5,0.5-1,0.8-1.4l-1.3-0.5c-0.4,0.5-1,1-1.5,1.3c0.2-0.5,0.5-1.1,0.8-1.6l-0.2-0.1c0.2-1,0.9-1.7,1.8-2.1l0.2,0.1
			c0.3-0.3,0.7-0.6,1.2-0.8c-0.2,0.4-0.4,0.8-0.6,1.1l0.2,0.2c0.6-0.6,1.3-1,2.1-1.3c-0.5,0.6-1,1.1-1.5,1.6L82.3,86.4z M94.3,105
			c0.2,0,0.4,0.2,0.4,0.4c0,0.2-0.2,0.4-0.4,0.4c-0.2,0-0.3-0.2-0.3-0.4C94,105.1,94.2,105,94.3,105z M94,104.1l0.1-1.2
			c0.1-0.8,0.7-0.2,0.7,0.3l-0.2,1.3C94.3,104.7,94.2,104.6,94,104.1z M95.2,106.2c0.6-0.2,0.9-0.6,0.7-1.2l-0.3-5.2
			c-0.2-1,0.5-0.6,0.7-0.1c0.6,0,0.6,0.4,0.2,1c1.4,0.2,1.7,0.6,1,1.1l-1.1,0.2l1.4,0.2c0.6,0.2,0.5,0.7,0.1,0.8l-1.3,0.2l1.7,0.2
			c0.8,0,0.8,0.2-0.2,0.7l-0.7,0.5l1.2,0.2c0.6-0.1,0.7,0.2,0.5,0.8c0.4,1.9,0,3.1-1.6,3.1l-5.3,1.2c-0.3-0.2-0.5-0.2-0.3-0.3
			c0-0.1-0.1-0.2-0.1-0.2c0-0.2,0.2-0.3,0.3-0.3c0.1,0,0.2,0.1,0.2,0.2c0.3-0.1,0.6-0.1,0.8-0.2v-1.6l-0.7,0.2c0,0.1,0,0.2,0,0.2
			c0,0.3-0.2,0.6-0.3,0.6c-0.2,0-0.3-0.2-0.3-0.6v-0.1l-0.3,0.1c-0.7-0.2-0.7-0.6-0.1-1L95.2,106.2z M101,109.4
			c0.1-0.9,1-0.6,0.6,0.2l-0.5,1.1h-0.2L101,109.4z M101.1,106.6c0.2,0,0.4,0.3,0.5,0.7c0.1,0.4,0.1,0.8-0.2,0.8
			c-0.1,0.1-0.3-0.2-0.4-0.6C100.9,107.1,101,106.7,101.1,106.6z M101.2,111.5c0.2,0,0.2,0.1,0.2,0.3c0,0.2-0.1,0.3-0.2,0.3
			c-0.2,0-0.3-0.2-0.3-0.3C100.8,111.6,101,111.5,101.2,111.5z M100.9,113.2c0,0.3-0.1,0.6-0.2,0.6c-0.1,0-0.2-0.2-0.2-0.6
			c0-0.3,0.1-0.6,0.2-0.6C100.8,112.7,100.9,112.9,100.9,113.2z M100.6,106.2c-0.1,0.8-0.7,1.4-0.7,0.8c-0.1-0.7,0-1.5-0.6-2.5
			c-0.3-0.4,0.2-0.6,0.6-0.2C100.6,105,100.7,105.7,100.6,106.2z M99.4,108.6c0.8-0.5,1.1-0.4,1,0.5c-0.2,2.5-0.6,4.5-1.3,5.2V110
			l-0.3,0.1c-0.2,2.1-0.6,3.7-1.1,4.4l0.2-4h-0.4l-0.9,3.9l0.2-3.4c0-0.5-0.2-0.6-0.4-0.3c-0.6,4-1.3,5.6-2.1,6.2
			c0.8-2.5,0.8-4.3,0.6-5.8l-0.2-0.2c-0.2,2.1-0.6,4-1.3,5.6c-0.8-1.2,0.7-3.3,0.4-5.2h-0.2l-1.4,4.9c-0.5,0-0.3-0.6,0.2-1.9
			l0.2-2.8l-0.2,0.2c-0.4,1.5-0.8,2.6-1.4,3.6l0.2-3.7l-1,2.6l0.1-2.1l-1.1,0.5c0.5-0.9,1.2-1.5,2.2-1.9
			C94.2,110.1,96.9,109.6,99.4,108.6z M92.3,122.6c1.1,0.2,0.7,0.8-0.2,0.8c-1.2,0-2.5-0.1-3.7-0.7c-1.2-0.6-2.3-1.3-3.3-2.1
			c-0.4-0.3-0.1-0.8,0.6-0.5C88.2,121.4,90.3,122,92.3,122.6z M86.6,118.8l2.9-0.2c0.6,0,1,0.3,1.5,0.9l1.3,1.5
			c0.6,0.7,0.1,1.3-0.5,1.1c-1.9-0.6-3.7-1.3-5.5-2.1C86,119.5,86.1,119.1,86.6,118.8z M91.5,93.4l-4.8,5.1c0.6-0.6,1.1-0.8,1.6-1.3
			c2.1-1.8,3.4-3.2,3-2.1c-0.6,1.4-1.6,2.5-3.1,3.3l-2,2.1l-0.2,0.5c2.1-2.2,3.3-2.8,3.5-2.3l-3.8,4.5L90,100
			c-1.3,2-2.9,3.7-5.2,5.2l0,0.4c2.3-1.9,4.1-3.1,4.2-2.5c-0.4,0.9-1.8,2.4-3.6,4l2.1-1c0.2,0.9-0.3,1.5-1.3,2
			c-1.2,0.3-1.8,0.8-1.8,1.3l1.4-0.6c0.1,0.5-0.7,1.3-1.9,2.2l1.7-0.5c0.1,0.4-0.6,1.2-2.1,2.3l1.5-0.3c0.1,0.4-0.2,0.8-0.9,1.4
			l2.1-0.7c-0.1,0.5-0.3,0.9-1,1.1l0.2,0.4c1.3-0.7,1.3-0.2,0.9,0.1c0.3,0.2,1.2-0.2,0.5,1c0.9-0.4,1.4-0.1,1.3,0.6
			c1.7,0.2,1.6,1.9,0.1,1.7c-0.8,0.1-1.6,0.2-2.4,0.4c-1,0.4-1.4,0.3-1.7-0.8c-0.6-2.1-1.3-3.3-2.1-3.7c-2.9-1.2,0.6-2.6,0.9-3.9
			c0.2-1.3,0.7-1.9,1.5-2.2c-1,0.1-1-0.6,0.1-2.1c-0.5-0.1-0.7-0.3,0.8-2.1c-1.2,0.4-1.4,0.1,0.3-2.1c-1.5,0.9-1.5,0.3,0.1-1.7
			c-0.7-0.2-0.6-0.8,0.2-1.6c-1.3,0.1-1-0.5-0.4-1c2.6-1.3,5.7-4.9,6.2-4.4L91.5,93.4z M70,92.1l-1,0.6l1.2,0.3L70,93.3l-1.7,0.4
			l0.7,0.6l-0.6,0.5l1.1-0.2L69.6,95l-1.2,0.5c0.9,0.1,1.3,0.3,1,0.6l-1,0.6l0.9,0.3l-1.1,0.5l1,0.6l-1.2,0.4
			c0.8,0.2,1.1,0.6,1.2,0.9l-1.3,0.6c0.7,0.3,0.9,0.5,0.9,0.9l-1.2,0.5l1,0.7l-1,0.3c0.8,0.3,0.9,0.7,1,1l-1.1,0.3
			c0.9,0.3,1.3,0.6,1.1,0.9l-1.4,0.6l1.3,0.2v0.3l-1.3,0.4c1,0.4,1.3,0.7,1.3,1l-1.2,0.7l1.3,0.2l-1.2,0.9c0.7-0.1,1.1,0.1,1.1,0.5
			l-1.1,0.6c0.9,0.2,1.8,0.3,2.7,0.6l0.3,0.4l0.2-0.4c0.6-0.2,1.1-0.2,1.7,0l0.6,0.8l0.4-1l0.6,1l0.5-1.3l0.6,1.8l0.5-1.8l0.6,1.5
			l0.5-1.7l0.4,1.4l0.4-1.6l0.7,1.5l0.6-1.9l0.7,1.6l0.5-1.3l0.6,1.1l0.4-1.3l0.5,0.9c0.4,0.8-0.5,1.5-1.3,1.7l-11.8,1.9
			c-0.7,0.1-1.4-0.5-1.7-2.1c-0.6-2.9-0.3-5.8,0.1-8.7c0.7-6.4,1.7-9.6,2.8-11.7v0C69.5,91.5,69.8,91.6,70,92.1z M72.3,92l0.2,0.5
			c-1.7,6-1.8,11.4-0.7,16.3c-0.7-8.3-0.1-13,1.3-15.6v0.8c-1.1,5.8-1.2,10.5-0.2,14.3l0.3-0.2c-0.7-6-0.3-10.7,0.6-15.4l0.6,0.1
			c-1.1,6.1-1.1,10.9-0.3,15.3l0.3-0.3c-0.6-6.3-0.6-10.6,0.4-14.6l0.5,0.1c-0.9,6-1,10.8-0.2,14.7l0.3-0.1
			c-0.6-6.6-0.3-11.3,0.6-14.8l0.3,0.3c-0.6,5.2-0.6,9.8,0,14.2l0.3-0.2c-0.2-5.7-0.5-10.2,0.2-13.6l0.4-0.5
			c-0.6,4.2-0.6,8.9,0.2,14.1h0.3c-0.6-6.2-0.4-10.9,0.2-14.7l0.3,0.2c-0.3,5-0.3,9.5,0.1,14.5l0.3-0.1c-0.3-6.8-0.1-11.5,0.6-14.3
			c0.6-0.2,0.6,0.6,0.1,1.4c-0.4,4.1-0.6,8.3,0,12.8l0.5,0.1c-0.5-6.6-0.1-10.4,0.6-14.1c0.4-0.4,0.8,0.1,0.3,1
			c-0.6,4.6-0.9,7.9-0.4,13.1h0.6c0.6,0.2,0.7,0.5,0.1,0.7c-3.9,0.8-7.6,1.5-11.2,1.7c-0.7,0.1-1-0.3-1-1.4
			c-0.2-5.6,0.4-10.8,1.7-15.5l0.2-0.1c-1,5.6-1.5,11-0.7,15.9C70,101.4,70.9,93.4,72.3,92z M76.5,85.4c1-0.7,2.1-1.2,2.2-1
			c0.2,0.2-0.6,1-1.7,1.8C76,87,75,87.4,74.8,87.2C74.7,86.9,75.4,86.1,76.5,85.4z M75.9,84.6c0-0.2,0.2-0.4,0.3-0.4
			c0.2,0,0.4,0.2,0.4,0.4c0,0.2-0.2,0.5-0.4,0.5C76.1,85,75.9,84.8,75.9,84.6z M75,85.6c-0.3,0-0.5-0.2-0.5-0.5
			c0-0.3,0.2-0.6,0.5-0.6c0.2,0,0.5,0.2,0.5,0.6C75.4,85.4,75.2,85.6,75,85.6z M81.3,105.9h-0.2c-0.2-4.5-0.1-8.4,0.8-12.2
			c0.2-0.3,0.6-0.2,0.6,0.2C81.8,97.3,81.4,101.3,81.3,105.9z M83.1,93.8c0.3-0.6,1-0.5,0.7,0.2c-0.6,3.5-1.3,6.4-1.4,11l-0.3-0.7
			C82.5,100.2,82.5,97.8,83.1,93.8z M81.4,114.1l1.3,1.3c0.7,0.6,0.2,1.2-0.4,0.9l-1.6-1C79.8,114.7,80.8,113.6,81.4,114.1z
			 M80.4,115.5l2.4,1.7c0.7,0.6,0,1.5-0.6,1.1l-2.5-1.6C78.8,116.2,79.8,115,80.4,115.5z M83.9,96.4l0.5-2.4
			c0.6-0.3,0.8-0.2,0.7,0.5l-1,2L83.9,96.4z M80.7,83.5c-0.6,0.5-1.3,0.9-1.3,0.7c-0.2-0.2,0.3-0.7,1-1.2c0.6-0.6,1.3-0.9,1.3-0.8
			C81.9,82.3,81.4,82.9,80.7,83.5z M57.4,80.6c-0.8,0-1.4-0.2-1.4-0.6c0-0.2,0.6-0.5,1.4-0.5c0.7,0,1.3,0.2,1.3,0.5
			C58.8,80.4,58.1,80.6,57.4,80.6z M59.9,80.2c-0.3,0.4-0.6,0.6-0.8,0.6c-0.1-0.2,0-0.6,0.3-1c0.3-0.5,0.6-0.7,0.7-0.6
			C60.3,79.2,60.2,79.7,59.9,80.2z M61.6,80c-0.4,0.6-0.8,0.9-1,0.7c-0.2-0.2,0-0.7,0.4-1.3c0.3-0.6,0.7-0.9,0.9-0.7
			C62.1,78.8,61.9,79.4,61.6,80z M60.5,77.3l0.4-1.7c-0.5,1-1.1,1.8-2.4,2.4c0.9-1.4,1-2,0.8-2.4c-1,1.3-2.1,2.2-3.3,2.5l0.6-1.5
			c-0.8,0.4-1.2,1.3-2.4,1.2l1-1.7l-1.8,0.8l0.2-1.1l-1.7,1l0.6-1.4l-1.9,0.8l-0.1-1l-1.3,0.3v-1l-1.1,0.6l-0.2-0.8L46.6,75l0.1-1.2
			l-1.1,0.6l-0.4-0.6l-1.3,0.5l-0.2-1l-1.2,1.2l-0.2-0.9c-0.5,0.3-0.8,1.1-1.3,1l-0.3-1c-0.6,0.6-1.1,1.4-1.8,1.5l0.2-1.4
			c-0.7,0.6-1.3,1.7-2.1,1.8l0.3-1.5c-0.6,0.6-1,1.6-1.7,1.6l0.6-1.4c-0.8,0.6-1.9,1.8-2.4,1.7l0.3-1.4c-0.4,0.2-0.7,0.8-1.1,0.7
			l0.3-0.9c0.8-1.8,2.5-2.1,4.4-2.1c4.4,0.2,8.9,0.3,13.2,1.5c6.7,2,11.2,1.4,14.6-1c1-0.4,1.3,0,0.9,1.2c-0.3,1.3-1.2,1.7-2,1.4
			c-0.3,0.8-0.8,1.4-1.4,1.9l0.1-1.6C62.1,76.5,61.3,77.2,60.5,77.3z M63.5,79.2c-0.5,0.7-1,1.1-1.2,0.9c-0.2-0.2,0.1-0.9,0.5-1.6h0
			c0.5-0.7,1-1,1.2-0.9C64.2,77.8,63.9,78.5,63.5,79.2z M56.7,92.7c1.5-1.3,3.2-1.7,5.1-1.7h3.3c1.3,0,1.1,1.3-0.1,1.2h-2.4
			c-2.1-0.1-3.9,0.6-5.6,1.5C56.1,94.1,56,93.3,56.7,92.7z M65.8,92.8c0,0.2-0.7,0.3-1.6,0.3c-0.9,0-1.6-0.1-1.6-0.3
			c0-0.2,0.7-0.3,1.6-0.3C65.1,92.5,65.8,92.7,65.8,92.8z M19,112c0.6-1,0.9-0.3,0.8,0.6c-1.3,2-2.4,3-3.3,3.6
			C16.9,114.7,17.9,113.9,19,112z M17.2,125.3c-0.4-0.6-0.6-1.3-0.6-2c0.1-0.9,0.8-0.9,1-0.2C17.8,124.3,17.2,124.3,17.2,125.3z
			 M26.8,111.4c-0.2,0.4-0.4-0.3-0.5,0.2c0.4-3.5,1.1-6.9,2.5-10c1.3-3.2,3.9-7.1,6.6-9.6c1.7-1.6,3.1-2,5.2-3.4h-0.4
			c-1.8,0.6-2.9,1.2-4.2,2.3c-2.9,2.5-5.6,6.1-7.2,9.4c-1.6,3-2.5,6.5-3,11.1c-0.3,2.2-1.4,4.1-2.1,5.1c-1.3,1.6-2.3,0.6-4,5.2
			l-0.4,0.2c0.2-1,0.7-2.3,1.2-3c0.6-0.8,1.1-1.2,1.8-2.1c1.3-1.6,2.5-3.5,2.9-6.7c0.4-2.5,0.9-5.6,1.6-7.7c0.8-2.4,1.5-3.7,2.5-4.9
			c2.8-3.8,3.9-6.3,10.3-9.7L39,87.9c-4.7,1.8-7.6,5.1-11.4,11.4c-2.9,4.8-2.1,10.7-4.4,15.2c-0.7,1.5-2.6,3.7-3.6,4.7l-0.4,0.1
			c0.6-1.8,2.5-3.2,3.5-5.1c0.6-1.2,0.9-3.2,1.1-4.6C25,101,27.5,97,31.1,92.8h-0.6c-7.6,8.3-6.5,14.2-8.2,19.9
			c-1.2,3.7-2.5,3.3-5.2,8.5c-0.1-0.8,0.2-1.5,0.4-1.9c0.2-0.8,1-1.5,2.3-3.2c1.2-1.7,2.2-4.5,2.7-8.7c0.2-2,0.8-3.7,1.4-5.2
			c0.6-1.7,1.1-2.8,1.8-4c2.9-4.7,5.6-7.7,9.2-9.7v-0.3c-3.7,1.6-7,5.4-9.5,9.6c-1.4,2.4-2.2,4.2-3,6.9c-0.6,2.1-0.9,4.8-1.6,7.6
			c-0.5,2.1-1.6,3.3-2.5,4.5c-0.7,0.9-1.3,1.9-1.7,2.2c0.4-1.3,0.2-2.7,2.5-4.4c0.6-0.6,1-1.3,1.3-2.1c0.3-6.5,2.3-12.1,5.8-17.7
			c-1.3,0.4-2.3,1.7-3.5,3.8c2.1-6.2,5.5-12.7,12.5-14.3c3.7-0.8,8.7,1.6,13.8,6.1h0c-4.1,0.4-7.6,1.2-9.9,2.7l-0.2-0.5
			c1.2-1.1,3.1-1.9,5.2-2.6l-0.5-0.1c-3,0.7-6.1,2.2-9.2,5.6l-0.5,0.1c2.5-3.9,5.9-5.6,9.4-6.5l-1.5,0.1c-2.3,0.6-4.8,2.1-6.8,4.3
			C31.2,97.3,28.3,103.1,26.8,111.4z M42.1,116.2c0.3,5.6,1.3,9-2,12.4c-3,3.1-5.3,2.7-5.8,6.3c-0.3,2.3-0.9,4.5-1.5,6
			c-2.3-1.3-2.5-4-0.8-8.2c4.7-8.7,3.7-16.1-2.1-22.7c3.3-12.3,8.7-18.9,17.5-16.4C44,97.3,41.5,104.3,42.1,116.2z M31.5,124.4
			c0.5-0.2,1-0.2,1.4,0c-0.2,0.4-1.3,0.6-2.5,0.8L31.5,124.4z M31.3,123.3l1-0.2c0.5,0,1,0.2,1.1,0.6
			C33.2,123.9,32.2,123.7,31.3,123.3z M32.2,126.8c-0.1,0.2-0.8,0.3-1.5,0.3l0.6-0.4C31.7,126.6,32.1,126.6,32.2,126.8z M31,127.8
			c0.6-0.1,1.3,0,1.6,0.4c-0.3,0.4-1.5,0.5-2.9,0.2L31,127.8z M45.4,92l3.1-0.6l-0.2,0.6L45.4,92z M27.2,132.9
			c0.4-0.2,0.9-0.3,1.2-0.2c-0.1,0.4-1,0.8-2,1L27.2,132.9z M26.8,135.1c0.6-0.4,1.2-0.5,1.7-0.2c-0.2,0.5-1.3,1-2.7,1.4L26.8,135.1
			z M27,136.5c0.6-0.3,1.3-0.4,1.7-0.1c-0.2,0.4-1.5,0.9-2.9,1.1L27,136.5z M27.2,137.7c0.6-0.3,1.2-0.3,1.7-0.1
			c-0.2,0.5-1.4,0.9-2.8,1L27.2,137.7z M26.7,139.8l0.7-0.8c0.4-0.2,0.9-0.3,1.2-0.2C28.5,139.2,27.6,139.6,26.7,139.8z M27.9,142.4
			c0.1-0.5,0.6-0.9,1.2-1h1.4C29.5,142.1,28.3,142.6,27.9,142.4z M28.2,143.9c0.1-0.6,0.6-1.2,1.4-1.5l1.7-0.2
			C30,143.3,28.7,144.1,28.2,143.9z M29.1,144.7L29.1,144.7l0.7-0.4c0.3-0.1,0.7,0,0.9,0.1C30.6,144.6,29.9,144.7,29.1,144.7z
			 M34,166.1c-0.6,0-1.1-0.2-1.6-0.7c-0.8-1-1-2.1-0.3-3.1c0.6-0.9,1.4-0.6,1.7,0.6H33c1,0.5,1.5,1,1.5,1.7l-1.2-0.3
			c0.9,0.6,1.3,1.2,1.3,1.7l-1-0.6L34,166.1z M35.4,164.6c-0.2,0.1-0.6-0.3-0.6-0.8c0-0.5,0.2-0.9,0.4-0.9c0.3-0.1,0.6,0.3,0.6,0.8
			C35.9,164.1,35.7,164.5,35.4,164.6z M34.7,159.5c1.8,1.5,1.5,2.1-1,1.9c-0.8-0.2-1.3-0.8-1.3-1.9l-0.8-3.3c1-0.4,1.3,0.1,1.6,1.3
			C34.1,158.2,34.7,158.9,34.7,159.5z M33.6,144.4c-0.6,2.1-1.5,3.7-2.5,5.1c1.1-0.7,1.8-2.2,2.7-4.3c0.2-0.6,0.9,0.2,0.6,1.4
			l-0.6,0.6l0.1,1l-0.8,0.1v1.3l-0.7,0.3c0.7,1.7-0.2,2.9-1.9,2c-0.6,2.1-2.9,1-1.7-0.9c2.9-4.8,5.8-9.5,6.4-16
			c0.2-2.3,1.6-3.3,3.4-4.4c3.9-2.1,5.2-5.8,5.2-9.9c-0.9-17.9,4.1-25.8,11.8-28.9l-0.2,0.7c-6.9,4.2-9.8,12.3-9.8,23.3
			c-0.1,2.5-0.3,5,0,7.7l0.2-0.6c0.2-6.5,0.2-12.1,1-15.9c0.9-4.2,2.2-6.8,3.6-8.6c0.5-0.6,0.9-1.4,1.4-1.9c0.6-0.6,1.3-0.8,1.9-1.4
			l-0.1,0.6c-2.6,2.6-4.8,6-5.9,10.3c-1.1,5-1.2,10.8-0.8,16.8c-0.1,0.9-0.2,1.6-0.6,2.2l0.3-0.2c0.5-0.9,0.7-2.1,0.7-3.4
			c-0.6-7.3,0-14.7,2.6-19.8c1.8-3.6,2.9-4.9,8-7.8l-0.2,0.6c-4.3,2.9-8.3,6.4-9.1,17.9l0.2-0.2c0.8-8.8,4-15.3,9.8-17.7
			c2.1-0.9,4.5-0.7,7.2-0.7l-0.5,0.4c-4.1-0.4-7.7,1-10.8,4.3l0.5,0.2c2.9-3,6.4-4.7,10.6-3.7l-0.3,0.6c-3-0.5-5.6,0.6-7.9,2.5v0.3
			c2.7-1.8,5.2-2.7,7.5-2.2c0.8,0.1,1,0.7,0.8,1.7l-0.5,4.4c-0.1,4.2-0.3,8.3-1.4,12.1l-0.4,0.3l0.4-7.3l-1.7,9.1
			c-0.2,1-0.9,0.9-0.7-0.1c0.4-1.9,1-4.5,1.4-7.3c-0.4,0.1-0.7,0.3-0.8,0.9c-0.5,3.9-1.1,7.1-2,8.2c0.6-2.5,0.9-4.9,1-7.4l-0.5,0.4
			l-1.2,6.9c0.9,0.5-0.2,1.2-0.6,0.3l0.4-3.8l-0.3-0.1l-1.7,6.1l0.6-4.2l-1.4,4.2H56l0.7-3.6l-2.4,6.5c-0.7,0.2-0.8-0.1-0.2-1.2
			l1.5-4.5l-0.5,0.1c-1,3.3-1.7,5.6-2.9,6.3l-0.4,0.1c1.7-2.9,1.9-4.4,2-5.8c-0.9,2.8-1.7,4.8-3.3,6.4c-0.2-0.2,0.1-1,1-2.7l0.9-2.3
			c-0.4-0.5-0.6-0.3-0.9,0.4c-0.6,2-1.1,3.3-2.1,4.6l1-3.9l-0.2-0.5c-0.7,2.3-1.7,4.3-3,5.5l0.6,0.3c2.1-1.4,5.1-1,8.1-2.3
			c0.6-0.3,1.3-0.5,1.7-0.2l-0.6,1.5l-0.6-0.9c-0.3,1.2-0.8,2.3-1.4,2.8l-0.2-1.7c-1.3,2.8-2.1,4.3-2.2,2.9l0.2-1.7
			c-1,1-1.6,2.1-1.8,3.4c-0.5-0.1-0.6-1-0.4-2.4l-0.8,2.9c-0.7,0.2-0.9-0.6-0.5-2.4c-0.6,1.6-1.2,2.7-1.4,2.9
			c-0.3-0.5-0.4-1.3-0.2-2.3l-0.8,1.5c0,1.1-0.3,1.5-0.8,1.4c0.2-1.7,0.2-2.3-0.1-1.9l-1,2.5c-0.6,0.3-0.7-0.3-0.6-1.7
			c-0.9,0.5-0.6,2.2-1.3,2.9c-0.5-0.3-0.6-1.1-0.5-2c-0.4,1.4-0.8,2.2-1.3,2.2l-0.2-2.6c-0.2,1.2-0.6,2.1-1,2.9l-0.7-1.9l-0.3,1.8
			c-0.6,0.3-1-0.2-1.4-1.4c-0.1,2.5-0.3,4.5-1.9,5.6c0.2,0.6-0.6,2.3-1.5,4.2l2.5-3.7c0.6-0.2,0.8,0.2,0.6,1.4l-2.6,4.3
			C34.5,144.9,34.1,144.7,33.6,144.4z M64.7,118.8l-0.2,1.4c0,0.2-0.7,0.4-0.7,0.1l0.2-1.4C64.1,118.5,64.7,118.4,64.7,118.8z
			 M63.6,120.7c0,0.2-0.2,0.4-0.3,0.4c-0.1,0-0.2-0.2-0.2-0.4c0-0.2,0.2-0.4,0.2-0.4C63.4,120.3,63.6,120.4,63.6,120.7z M62.8,121.9
			c0.1,0.3-0.7,0.6-0.7,0.1l-0.2-1.1c0-0.4,0.6-0.7,0.7-0.1L62.8,121.9z M61.5,122.2c0,0.3-0.2,0.5-0.4,0.5c-0.2,0-0.4-0.2-0.4-0.5
			c0-0.2,0.2-0.5,0.4-0.5C61.3,121.7,61.5,122,61.5,122.2z M60.3,122.3v1c0,0.3-0.6,0.6-0.6,0l0.1-1
			C59.8,121.9,60.2,121.7,60.3,122.3z M59.2,124.1c0,0.3-0.7,0.4-0.7-0.1v-1c0-0.4,0.6-0.4,0.6,0.1L59.2,124.1z M56.3,121.2l-0.3,1
			l-0.3-0.2l0.2-0.9H56.3z M36.7,147.9l0.8-1.7c0.4-0.6,1.1-0.9,1.8-0.9C39.2,145.9,38.1,147,36.7,147.9z M43.3,146.3
			c-0.1,0.5-1,1.4-2.2,2l0.7-1.3c0.2-0.2,0.3-0.3,0.6-0.5c-0.2,0-0.3,0-0.5,0c-0.3,0.4-1,0.9-1.7,1.4l0.6-1.1
			c0.1-0.2,0.2-0.2,0.3-0.3c-0.2-0.1-0.5-0.1-0.8-0.2l1.4-0.6C42.4,145.7,43,145.9,43.3,146.3L43.3,146.3z M44.6,159.3
			c0-0.2,0.6-0.2,1.3-0.2c0.6,0.2,1.1,0.4,1.1,0.6c-0.1,0.2-0.6,0.3-1.3,0.2C45.1,159.7,44.5,159.5,44.6,159.3z M45.1,160.5
			c0-0.1,0.5-0.2,1-0.1c0.6,0.1,1,0.3,1,0.5c0,0.2-0.5,0.2-1,0.2C45.5,160.9,45.1,160.7,45.1,160.5z M46.5,161.9
			c-0.4-0.1-0.8-0.2-0.7-0.3c0-0.2,0.4-0.2,0.8-0.2c0.5,0.1,0.8,0.2,0.8,0.4C47.2,161.9,46.8,162,46.5,161.9z M48,153.9l-1.3-1.1
			l0.4,2.1l-1-1l-0.2,1.9c-0.3-0.8-0.7-1.5,0-3.3c0.6-1.7,1.4-2.1,1.9-2.1C48.4,151,47.7,152.3,48,153.9z M49.1,147.2
			c-0.1,0.5-1.1,1.3-2.2,2.1l0.6-1.4c0.2-0.2,0.3-0.3,0.5-0.5c-0.2,0-0.4,0-0.6,0c-0.3,0.4-0.9,0.9-1.6,1.4l0.5-1.2
			c0.1-0.1,0.2-0.2,0.3-0.2c-0.2,0-0.3-0.1-0.4-0.1c-0.2,0.3-0.7,0.6-1.2,1l0.3-0.8c0.6-0.7,1-0.6,1.8-0.9
			C47.6,146.3,49.3,146.7,49.1,147.2z M44.6,145.9c-0.5-1.2-1.8-1.5-4.1-1.1c-0.6-0.7-1.7-1.2-3-1.5c1.3-4.8,4.2-7.2,9.1-8
			c4.7-0.8,9.8-3.4,15.5-6c2.4-1.7,2.7-1,1,2.5l-2.7,3.1c-1.4,1.6-1.7,3.2,0.2,4.8c2.7,1.3,3.8,2.6,3.4,3.7
			c-2.9-0.8-5.6-0.4-7.9,1.7c-1.7-0.5-3.6-0.2-6.4,1.1C48.1,145.4,46.5,145.3,44.6,145.9z M57.2,157.8c0.2,0.3,0.3,0.6,0.2,0.7
			c-0.1,0-0.3-0.2-0.6-0.5c-0.2-0.3-0.3-0.6-0.2-0.7C56.9,157.4,57.1,157.5,57.2,157.8z M52.8,159.5c-1.2-0.5-1.1-1.5,0.3-2.5
			C54.4,157.6,54.4,158.8,52.8,159.5z M54.9,146.2c0,0.1-0.2,0.2-0.5,0.3c0,0.4,0.1,0.9,0.1,1.4l-0.6-1.2c-0.2,0-0.2,0-0.3,0
			c0,0.6,0,1.3,0.1,1.9l-0.8-1.7c-0.2,0.1-0.2,0.1-0.4,0.1c0.1,0.9,0.1,1.8,0.1,2.8l-1.1-2.3c0-0.1,0-0.2,0-0.2
			c-0.2,0.5-0.2,1-0.4,1.5l-0.2-1.6c-0.2,0.6-0.6,1.4-0.8,2.2l-0.1-1.7c0-0.1,0-0.2,0-0.3c0,0,0,0,0,0v-0.1v-0.1h0.2l2-1.3
			C53.4,145.3,55.1,145.1,54.9,146.2z M55.8,163.2c-0.2,0-0.5-0.5-0.6-1c-0.2-0.6-0.2-1.2-0.1-1.3c0.2-0.1,0.6,0.4,0.7,1
			C56.1,162.6,56.1,163.2,55.8,163.2z M56.6,161.4c-0.1,0.1-0.3-0.2-0.6-0.6c-0.2-0.4-0.2-0.8-0.1-0.9c0.1,0,0.3,0.2,0.6,0.6
			C56.7,161,56.8,161.4,56.6,161.4z M57.6,160.2c-0.2,0.1-0.5-0.2-0.8-0.6c-0.3-0.5-0.5-0.9-0.3-1c0.2-0.1,0.5,0.2,0.8,0.6v0
			C57.6,159.7,57.6,160.2,57.6,160.2z M64.7,145.1c0,0-0.1,0-0.2,0l-0.4,1l-0.9,1.6l0.6-1.7L64,145c-0.2-0.1-0.6-0.2-1-0.3l-0.7,0.7
			l-1.2,1.4l1-1.6l0.4-0.6c-0.2,0-0.3-0.1-0.5-0.1l-0.7,0.7l-1.2,1.3L61,145l0.4-0.6c-0.2,0-0.5,0-0.6,0l-0.5,0.7l-1.1,1.4l0.8-1.7
			l0.2-0.4c-0.3,0.1-0.6,0.2-0.9,0.2l-0.6,1.3l0.2-1.3c-0.7,0.3-1.4,0.7-1.6,1.5c0-1.4,1-2.1,3-2.4C62.7,143.6,65.5,144,64.7,145.1z
			 M65.9,115.7c0.2-0.6,0.7-0.9,1.7-1l10.6-1.6c0.6-0.1,0.6,0.2,0.6,1c-0.2,1-0.3,2-0.8,2.8c-0.4,0.3-0.5-1-0.4-3.1
			c-0.8,1.9-0.5,3.9-1.7,4.2c-0.6-0.9,0.3-2.5,0.5-3.8c-1.2,1.1-0.8,2.5-1.8,3.9c-0.4,0.1-0.3-1.3-0.1-3.4c-0.6,1.6-1,2.9-1.6,3.4
			c-0.3-0.5-0.3-1.7-0.2-2.9c-0.5,2.1-1,3.5-1.5,3.7c-0.2-1.2-0.1-2.3,0.1-3.4l-0.2-0.2c-0.3,2-0.6,3.2-1.1,3.7
			c-0.4-1.1-0.5-2.4,0.2-3.7h-0.5c-0.3,1-0.5,1.9-1,2.2c-0.6-0.1-1-0.8-1-2c-0.6,2.2-1.3,3.4-2.2,4.1
			C65.3,118.4,65.4,117,65.9,115.7z M66.8,131.5c-0.3-0.3,0.2-0.7,0.5-0.5l1,1c0.2,0.2-0.4,0.6-0.6,0.4L66.8,131.5z M67.1,133
			l-0.8-0.8c-0.2-0.2,0.2-0.6,0.4-0.4l0.8,0.8C67.7,132.8,67.3,133.2,67.1,133z M67.2,130.3c-0.3-0.4,0.4-1,0.8-0.7l1.4,1.4
			c0.4,0.4-0.6,1-0.8,0.7L67.2,130.3z M68.7,129c-0.5-0.5,0.2-1.1,0.6-0.7l1.7,1.5c0.5,0.4-0.2,1.1-0.6,0.8L68.7,129z M69.7,128.2
			c-0.4-0.4,0.1-0.9,0.5-0.6l1.5,1.3c0.4,0.4-0.2,1-0.6,0.7L69.7,128.2z M71.1,127.8c-0.3-0.3,0.1-0.8,0.4-0.6l1.3,1.1
			c0.3,0.3-0.2,0.9-0.5,0.6L71.1,127.8z M65.6,132.8c-0.3-0.3,0.2-0.6,0.4-0.5l1,0.9c0.2,0.2-0.3,0.6-0.6,0.5L65.6,132.8z
			 M66.9,165.1c-0.5-0.6-0.3-1.4,0.1-2c0.3-0.4,0.7-0.2,0.6,0.3c-0.2,0.5-0.1,0.8,0.2,1.4C68,165.2,67.5,165.9,66.9,165.1z
			 M68,154.6L68,154.6C68,154.6,68,154.6,68,154.6c0.2,1.1,0.6,2.1,1.1,2.5c0.2,0.6-0.2,0.9-0.4,0.6C67.9,156.7,67.8,155.5,68,154.6
			C68,154.6,68,154.6,68,154.6z M68.8,165.5c-0.6-0.3-0.7-1-0.6-1.6c0.2-0.3,0.6-0.3,0.6,0.1c0.1,0.4,0.2,0.6,0.5,0.9
			C69.6,165.2,69.4,165.9,68.8,165.5z M70,172.3c-0.1-0.2,0.2-0.3,0.6-0.3s0.8,0.2,0.8,0.3c0,0.1-0.2,0.2-0.6,0.2
			C70.3,172.5,70,172.5,70,172.3z M71.7,174L71.7,174c0.6-0.2,1.4-0.2,1.4-0.1c0.2,0.2-0.3,0.4-1,0.6c-0.6,0.2-1.3,0.2-1.4,0
			C70.7,174.4,71.1,174.1,71.7,174z M71.6,156c0-0.6,0.2-0.9,0.3-0.9c0.2,0,0.3,0.4,0.3,0.9c0,0.6-0.2,1-0.3,1
			C71.8,157.1,71.6,156.6,71.6,156z M71.2,175.2c-0.2-0.2,0.3-0.5,1.1-0.6c0.7-0.2,1.4-0.2,1.6-0.1c0.1,0.2-0.4,0.5-1.1,0.6
			C72,175.4,71.4,175.4,71.2,175.2z M72.5,175.7c-0.1-0.1,0.3-0.3,0.8-0.4c0.5-0.2,1-0.2,1,0c0.1,0.1-0.2,0.3-0.7,0.5
			C73,175.9,72.6,175.9,72.5,175.7z M74.1,176.5c-0.4,0-0.8-0.1-0.8-0.2c0-0.2,0.2-0.3,0.6-0.3c0.5,0,0.8,0.2,0.8,0.3
			C74.8,176.4,74.5,176.5,74.1,176.5z M75.5,151.9c-0.2,0.5-0.5,0.8-0.6,0.7c-0.2,0-0.1-0.5,0.1-0.9c0.2-0.5,0.5-0.8,0.6-0.7
			C75.7,151.1,75.7,151.5,75.5,151.9z M76.2,149.9c-0.2,0.4-0.6,0.6-0.6,0.6c-0.1-0.1,0-0.5,0.2-0.8c0.2-0.4,0.6-0.6,0.6-0.6
			C76.6,149.3,76.5,149.6,76.2,149.9z M78.4,145.9c-2.5,2.4-4.4,4.8-4.8,7.2c-0.9-1.2,1-4.2,3.8-7.9c-1.7,1.3-3.3,3.1-4.8,5.1
			c0.3-1.3,1.4-3,2.8-4.9c-3.1,2.3-5.2,5.7-4.9,12.1c-1.2-3.8-0.4-7.5,2.1-11l-3.4,3.6l3.1-4.8l-1.9,0.6l0.2-0.7l-1.2,0.6v-0.8
			l-1.6,1.3l0.3-1.3c-0.6-0.3-1,0.2-1.4,0.8c0,0,0,0,0,0h0c0,0,0,0,0,0c-0.5-1.6,1.3-2.1,3.1-1.3c1.4,0.6,3.2,0.8,5.5,0.3
			c1.1-0.2,2.3-0.2,3.5-0.1C79.8,145.1,79.7,145.7,78.4,145.9z M79.7,171.2c-0.1-0.2,0.2-0.4,0.6-0.6c0.4-0.2,0.7-0.1,0.8,0
			c0.1,0.2-0.2,0.5-0.6,0.6C80.1,171.3,79.8,171.3,79.7,171.2z M83.8,172.8c0.2,0.2-0.3,0.7-1,1c-0.6,0.2-1.3,0.2-1.3-0.1
			c-0.1-0.2,0.3-0.6,1-1C83.1,172.5,83.7,172.5,83.8,172.8z M81.3,172.1c0.5-0.2,1-0.2,1,0c0.1,0.2-0.2,0.6-0.7,0.7
			c-0.5,0.2-1,0.2-1,0C80.4,172.5,80.8,172.2,81.3,172.1z M82.8,146.3c-0.2-0.1-0.4-0.4-0.5-0.8c-0.1-0.4,0-0.6,0.2-0.6
			c0.2,0.1,0.4,0.5,0.5,0.9C83.1,146.2,83,146.4,82.8,146.3z M82.6,138.5c-0.2-0.3-0.6-0.2-1-0.4c-0.4-0.2-0.2-0.2-1-0.4
			c0.7,0.1,1.4,0.2,2.1,0.2l0.5,0.8l-0.1-0.1C82.9,138.6,83.8,141.2,82.6,138.5z M84.2,146.3c-0.2,0-0.3-0.2-0.5-0.6
			c-0.2-0.5-0.2-0.8-0.1-0.8c0.1-0.1,0.3,0.2,0.4,0.6C84.2,145.9,84.3,146.2,84.2,146.3z M84.3,138.9l-0.6-1c0.2,0,0.4,0,0.6,0.1
			l0.6,1C84.8,139.1,84.6,139,84.3,138.9z M85.4,146.3c-0.3,0.1-0.2-0.2-0.3-0.7c-0.1-0.5-0.1-1,0-1c0.2,0,0.5,0.5,0.6,1
			C85.8,146.1,85.8,146.3,85.4,146.3z M87.2,146.3c-0.2,0.1-0.4-0.3-0.6-1c-0.2-0.6-0.2-1.1-0.1-1.2h0c0.1,0,0.4,0.4,0.6,1
			C87.3,145.7,87.3,146.3,87.2,146.3z M88.5,146.6c-0.2,0-0.5-0.6-0.6-1.2c-0.2-0.7-0.2-1.3,0-1.3c0.2-0.1,0.5,0.5,0.6,1.1
			C88.7,145.9,88.6,146.5,88.5,146.6z M90,146.7c-0.6,0.1-0.4-0.2-0.6-1c-0.1-0.6-0.1-1.4,0.1-1.4c0.2-0.1,0.6,0.7,0.7,1.4
			C90.4,146.3,90.4,146.7,90,146.7z M91.2,146.6c-0.2,0.1-0.5-0.5-0.6-1.2c-0.2-0.7-0.2-1.3-0.1-1.3h0c0.2-0.1,0.5,0.5,0.7,1.2
			C91.4,145.9,91.4,146.6,91.2,146.6z M91.8,152.1c-0.2-0.4-0.2-0.8-0.2-0.8c0.1-0.1,0.2,0.2,0.4,0.6c0.2,0.4,0.2,0.8,0.2,0.8
			C92.1,152.8,91.9,152.4,91.8,152.1z M92.2,146.8c-0.2,0-0.4-0.7-0.4-1.6c0-0.9,0.2-1.6,0.4-1.6c0.2,0,0.4,0.7,0.4,1.6
			C92.6,146.1,92.4,146.8,92.2,146.8z M93.2,152.6c-0.3,0.2-0.2-0.2-0.4-0.6c-0.2-0.4-0.2-1-0.1-1c0.2,0,0.4,0.4,0.6,0.9
			C93.5,152.3,93.5,152.5,93.2,152.6z M93.5,146.8c-0.2,0-0.3-0.6-0.3-1.3c0-0.7,0.1-1.4,0.3-1.4c0.2,0,0.3,0.6,0.3,1.4
			C93.9,146.3,93.7,146.8,93.5,146.8z M95.2,155.2c-0.3-0.1-0.2-0.5-0.2-0.9h0.5C95.5,154.8,95.5,155.2,95.2,155.2z M96.2,155.2
			c-0.5-0.1-0.4-0.6-0.2-1c0.2-0.6,0.2-0.7,0.4-0.7c0.2,0.1,0.2,0.2,0.2,0.8C96.6,154.8,96.6,155.2,96.2,155.2z M97.2,155.1
			c-0.3-0.1-0.3-0.7-0.2-1.4h0.5C97.5,154.5,97.5,155.1,97.2,155.1z M97.1,152.9c0.1-0.2,0.2-0.4,0.2-0.4c0.1,0,0.1,0.2,0.2,0.4
			H97.1z M97.9,153.2c0.2-0.6,0.3-0.9,0.6-0.9c0.2,0,0.2,0.3,0.2,1c0,0.7,0,1.3-0.6,1.3C97.6,154.6,97.7,154,97.9,153.2z
			 M108.3,156.4c-1.3,3.5-3.3,5.6-4.9,7.9c0,0.1-0.2,0.2-0.2,0.2c-0.1,0.1-0.2,0.2-0.2,0.3c0.1-0.2,0.2-0.2,0.2-0.4
			c-0.1-0.4-0.2-0.8-0.2-1.2c0.2,0.3,0.3,0.5,0.4,0.9c0.2-0.4,0.5-0.8,0.7-1.2c-0.1-0.4-0.2-0.8-0.2-1.3c0.2,0.3,0.3,0.6,0.5,0.9
			c0.2-0.3,0.4-0.6,0.6-0.9c-0.2-0.4-0.2-0.9-0.4-1.3c0.2,0.3,0.4,0.6,0.6,0.9c0.2-0.4,0.5-0.8,0.6-1.2c-0.1-0.4-0.2-0.8-0.3-1.2
			c0.2,0.2,0.3,0.5,0.5,0.8c0.2-0.7,0.4-1.3,0.5-1.7l-8.2,5.1c0.7-0.6,1.5-1.2,2.1-1.8c-0.1-0.5-0.2-1-0.2-1.5
			c0.2,0.4,0.4,0.9,0.6,1.3c0.2-0.2,0.4-0.3,0.6-0.5c-0.1-0.6-0.2-1.3-0.2-1.9c0.3,0.6,0.5,1.1,0.6,1.6c0.2-0.2,0.5-0.4,0.7-0.6
			c-0.1-0.8-0.2-1.7-0.3-2.5c0.4,0.7,0.6,1.4,0.8,2.1c0.2-0.2,0.4-0.4,0.6-0.6c-0.1-1.1-0.2-2.4-0.4-3.6c0.6,1.1,1,2.1,1,3
			c0.2-0.2,0.3-0.2,0.5-0.4c-0.1-1.2-0.2-2.6-0.5-3.9c0.6,1.2,1,2.4,1.1,3.3c0-0.1,0.2-0.2,0.2-0.2c0-1.3-0.2-3-0.5-4.6
			c0.8,1.5,1.2,2.9,1,4c0.2-0.2,0.3-0.3,0.5-0.5c-0.1-2.3-0.9-4.4-1.6-6.5c-0.3,1.1-0.3,1.5-0.6,1.4c0.2-1.3,0.1-1.8-0.2-2
			c-0.2,1.7-0.6,2.9-1.1,3.4l0.3-2.9h-0.5c-0.4,2.1-0.5,2.7-1.3,3.4c0.3-1.3,0.2-2.2,0.2-2.5c-0.2,0.1-0.4,0.2-0.6,0.2
			c0,0.1,0,0.2,0,0.2c0.1,0.8,0.1,1.8-0.9,3.1c-0.1-1.1,0.4-2.1,0.4-3.3c-0.2,0.1-0.4,0.2-0.6,0.2c0,0.2,0,1,0,1.1
			c-0.1,0.5-0.6,1.7-0.6,1.7c0.1,0,0.4-2.3,0.2-2.8c-0.2,0.1-0.4,0.1-0.6,0.2c0,0.1,0,0.2,0,0.3c-0.1,0.2-0.1,0.5-0.2,0.5
			c-0.1,0-0.2-0.2-0.2-0.4c-0.1-0.1-0.1-0.2-0.2-0.3c-0.1,0-0.2,0-0.4,0.1v0.1c0.1,0.2,0.1,0.4,0,0.5c-0.1,0-0.2-0.2-0.4-0.5
			c-0.2,0-0.3,0.1-0.4,0.1c0.1,0.4,0.1,0.6-0.2,0.7c-0.4,0.2-0.4-0.2-0.5-0.6c-0.2,0.1-0.5,0.1-0.7,0.2c0.1,0.3,0,0.6-0.1,0.6
			c-0.1,0.1-0.2-0.2-0.4-0.5c-0.2,0-0.4,0-0.6,0c0.1,0.3,0.1,0.5,0,0.6c-0.1,0-0.2-0.2-0.4-0.5l-0.1,0.1c0-0.1,0-0.1,0.1-0.1
			c-0.1-0.1-0.1-0.2-0.2-0.4c-0.2-0.5-0.3-0.9-0.2-1c0.2-0.1,0.4,0.2,0.6,0.8c0.1,0.2,0.2,0.4,0.2,0.6c0.2-0.1,0.4-0.2,0.6-0.2
			c0-0.2,0-0.2-0.1-0.3c-0.2-0.6-0.2-1.2,0-1.3c0.2-0.1,0.4,0.4,0.6,1c0,0.1,0.1,0.2,0.1,0.4c0.2-0.1,0.4-0.2,0.6-0.2
			c-0.1-0.4-0.1-0.6-0.1-0.8c0-0.3,0-0.5,0.1-0.5c0.1-0.1,0.5,0.5,0.6,1.1c0.2-0.1,0.2-0.1,0.4-0.2c-0.1-0.1-0.1-0.1-0.1-0.2
			c-0.2-0.5-0.2-0.6-0.2-1c-0.1-0.2-0.1-0.3,0-0.4c0.1-0.1,0.5,0.6,0.6,1.1c0,0.1,0,0.2,0.1,0.2c0.2-0.1,0.2-0.1,0.4-0.2
			c0,0,0-0.1,0-0.2c0-0.4,0-0.8,0-1.1c0-0.3,0.1-0.5,0.2-0.5c0.1,0,0.2,0.2,0.2,0.4c0.1,0.3,0.2,0.7,0.2,1.1c0.2,0,0.3-0.1,0.5-0.2
			c0-0.3,0-0.5,0-0.6c0.1-0.2,0.1-0.4,0.2-0.4c0.1-0.1,0.2,0.4,0.3,0.8c0.2-0.1,0.4-0.2,0.6-0.2c0-0.3,0-0.6,0-0.9
			c0-0.2,0.1-0.5,0.2-0.5c0.1-0.1,0.2,0.1,0.2,0.3c0.1,0.2,0.2,0.5,0.2,0.8c0.2-0.1,0.3-0.1,0.5-0.2c0-0.5,0.1-0.9,0.1-1.3
			c0.1-0.3,0.2-0.6,0.2-0.6c0.1-0.1,0.2,0.1,0.2,0.4c0.1,0.3,0.1,0.7,0.1,1.2c0.2-0.1,0.3-0.2,0.5-0.2c0.6-2.2,1.3-5.2,1.3-7.9
			c-0.2-0.3-0.3-0.6-0.5-0.9c-0.2,3-0.4,5.6-1.3,7.2c0.5-2.5,0.6-5.1-0.1-8.1h-0.1c-0.1,0-0.1,0-0.2,0c0.1,3.3,0.1,6-0.8,7.8
			c0.3-2.6,0.2-5.4-0.8-8.5c-0.2-0.1-0.3-0.2-0.5-0.2c0.7,0.6,0.6,3.2,0.2,3.6c-0.5-1.5-0.1-2-1.4-3c-0.2,0-0.2,0-0.4,0
			c0.7,0.8,0.8,2,0.6,2.9c-0.4-0.9-1-1.9-1.7-2.5c-0.2,0-0.5,0-0.7,0c1,1.2,1,1.4,0.9,2.4c-0.4-1-2-1.8-2.6-2.2
			c-0.3,0-0.4,0.1-0.7,0.1c0.8,0.4,1.9,1.8,1.5,2.3c-0.6-0.6-1.7-1.3-2.2-2.1c-0.3,0-0.2,0.2-0.5,0.2c0.2,0.5,0,0.8,0.1,1.4
			c-0.7-0.2-1.1-0.2-2-1.2c-0.2,0-0.5-0.1-0.5,0c0.1,0.2,0.4,0.8,0.5,1c-0.2-0.2-1.8-1.1-2-1.3c-0.1-0.1,0.3-0.1-0.6-0.2
			c0.1,0.2,0.6,1.5,0.7,1.7c-0.2-0.2-1.3-1.5-1.5-1.7c-0.4-0.1-0.7-0.1-1.1-0.2l-0.7-1.2c3.6,0.2,7.5,0.1,12.3-0.8l4.4-0.9
			c1.5-0.5,2.5,0.3,2.9,2.6l0.2,2.5c1,1.4,1.4,3,0.4,5.3c0.4,1.7,1.3,3.1,2.8,4.3C109.7,152.4,109.8,154,108.3,156.4z M98.9,160.8
			c0.2,0.4,0.4,0.8,0.5,1.2l-0.2,0.2C99,161.7,98.9,161.3,98.9,160.8z M94.6,145.3c0-0.9,0.2-1.6,0.3-1.6c0.2,0,0.3,0.7,0.3,1.6
			c0,0.9-0.2,1.6-0.3,1.6C94.7,146.9,94.6,146.2,94.6,145.3z M95.8,145.1c0.1-1,0.2-1.7,0.5-1.7c0.2,0.1,0.3,0.8,0.2,1.8
			c-0.2,0.9-0.3,1.7-0.6,1.7C95.8,146.8,95.8,146,95.8,145.1z M97.6,144.9c0.2-1,0.5-1.7,0.6-1.7c0.2,0,0.2,0.8,0.1,1.7
			c-0.2,1-0.4,1.7-0.6,1.7C97.5,146.7,97.4,145.9,97.6,144.9z M99.5,144.6c0.2-1.2,0.1-2.3,0.2-2.2c0.2,0,0.6,1.2,0.5,2.3
			c-0.2,1.2-0.6,2.1-0.8,2.1C99.2,146.7,99.3,145.7,99.5,144.6z M93,129.6L93,129.6c2,0.5,4,2.1,6.1,3.9c0.3,0.6,0.2,0.7-0.3,0.5
			C97.3,133.5,95.3,131.1,93,129.6z M99.8,134.5c0.1-0.1,0.4,0,0.8,0.2c0.4,0.2,0.6,0.5,0.5,0.6c-0.1,0.2-0.4,0.1-0.8-0.2
			C100,134.9,99.7,134.6,99.8,134.5z M110.5,145.8c-0.2-0.6-0.8-1.3-1-1.9c-0.1-0.4,0.2-0.3,0.5,0
			C110.8,144.8,110.6,145.1,110.5,145.8z M111,143.6c-0.6-0.7-1-1.9-1.7-2.6c1,0.6,1.5,0.6,2.1,2.1C111.5,143.6,111.4,144,111,143.6
			z M111.4,141.8c-0.8-1.1-1-2.8-2-4v0c1.4,0.9,1.9,1.1,2.5,3.3C112.1,142,111.9,142.5,111.4,141.8z M112.7,139.5
			c0,0.9-0.4,1.4-0.6,0.6c-0.3-1.1-0.9-3.4-2-4.5h0C111.6,136.1,112.7,137.9,112.7,139.5z M110.7,134.4c1.3,0.6,2.2,1.5,2.7,2.9
			c0.1,0.8,0,1.2-0.6,0.6C112.5,136.7,111.7,135.5,110.7,134.4z M113.5,175.5c-0.2,0.1-0.4-0.2-0.6-0.6c-0.1-0.4-0.1-0.8,0.1-0.8
			c0.2-0.1,0.4,0.2,0.6,0.6C113.6,175.1,113.6,175.5,113.5,175.5z M112.9,166.1c-0.2-0.2-0.1-0.6,0.2-1.1c0.4-0.5,0.9-0.7,1-0.6
			c0.2,0.2,0.1,0.6-0.3,1.1C113.5,166,113.1,166.3,112.9,166.1z M114.2,174.9c-0.1,0-0.2-0.2-0.3-0.5c-0.1-0.2-0.1-0.5,0.1-0.6
			c0.1,0,0.2,0.2,0.3,0.5C114.3,174.6,114.3,174.8,114.2,174.9z M114.6,164.4c-0.2,0.1-0.1-0.1-0.4-0.7c-0.1,0.1-0.2,0.2-0.2,0.2
			c-0.3,0.3-0.6,0.6-0.7,0.4c-0.2-0.1-0.1-0.5,0.2-0.8c0.2-0.2,0.2-0.2,0.3-0.3c-0.1-0.1-0.1-0.2-0.2-0.2c-0.1,0.1-0.1,0.2-0.2,0.2
			c-0.3,0.4-0.7,0.6-0.9,0.5c-0.2-0.1-0.1-0.6,0.2-1c0.1-0.2,0.2-0.2,0.3-0.3c-0.1-0.1-0.1-0.2-0.2-0.2c-0.3,0.4-0.7,0.6-0.9,0.5
			c-0.2-0.2-0.1-0.6,0.2-1c0-0.1,0.1-0.2,0.2-0.2c-0.2-0.2-0.2-0.2-0.2-0.3c-0.2,0.2-0.4,0.2-0.6,0.2c-0.1-0.1,0-0.4,0.2-0.7
			c-0.2-0.3-0.2-0.6,0-0.8c0.5-0.4,0.7,0.2,1.2,1.2c0.2,0.4,0,0.6,0.2,0.9c0.2,0.3,0.6,0.5,0.8,0.7
			C114.7,163.6,114.7,164.3,114.6,164.4z M115.8,174.9c-0.2,0-0.5-0.2-0.5-0.4c0-0.3,0.2-0.5,0.5-0.5c0.3,0,0.6,0.2,0.6,0.5
			C116.3,174.8,116.1,174.9,115.8,174.9z M119.8,159.4c-0.2,0.5-0.6,1-0.7,0.9c-0.2-0.1-0.1-0.6,0.2-1.1c0.2-0.6,0.6-1,0.7-0.9
			C120.1,158.2,120.1,158.7,119.8,159.4z M123,172.8c0.6,0.2,0.6,1,0.6,1.5c-0.4-0.4-0.8-0.9-1.2-0.4c-1.1-0.9-1.5-0.4-2.3-0.1
			C120.4,172.9,121.6,172.1,123,172.8z M122.5,160.7c-0.4,0.6-0.8,1.2-1,1.1c-0.2-0.1-0.2-0.7,0.2-1.4c0.3-0.7,0.8-1.2,1-1.1v0
			C122.9,159.4,122.8,160,122.5,160.7z M123.8,160.7c-0.2,0.5-0.5,0.8-0.6,0.7c-0.1,0,0-0.5,0.2-0.9c0.2-0.5,0.5-0.8,0.6-0.7
			C124,159.7,123.9,160.2,123.8,160.7z M129.4,136.1c0.2-0.2,0.2-0.6-0.2-0.7c-0.4-0.1-0.6-0.1-0.9-0.5c-0.3-0.9,0.2-1.4,1-1.7
			c0.6,0,0.9,0.2,0.7,0.6l-0.4,0.3c0.7,0.2,1.2,0.5,1.4,0.9c-0.4,0-0.6,0.1-0.7,0.4c1.3-0.2,1.3,1.9,0.1,1.5
			c-0.8-0.2-1.2,0.1-0.8,1.4c0.3,1.6,1.4,2,1.3,0.3c-0.2-0.8,2.5-1,2.9,0.8l-1-0.4c0.2,1.3,1.3,0.7,1.4,1.8l-0.9,0.1
			c1,0.7,1.8,1.6,2.2,2.6c-1.1-0.2-1.2-1.4-2.2-1.4c1.3,1.8,2.9,1.4,3.7,3.3c-1.1-0.1-2.5-1-4-2.4c1.4,1.9,2.2,3.5,1.9,4.3
			c-2-0.9-2.4-3.8-3.2-4.7c0,1.5,1.1,2.4,0.7,4c-0.8-0.9-1.2-2.5-1.2-4.8c0.8,0.2,1.1-0.4,1.1-1.7c-0.2-1.4-0.9-1.3-0.7,0
			c0,1-0.7,1.3-2.9,0.1c-0.3,0.3,0.2,0.7,1.3,1.4l-0.1,1.2l0.6-1l0.2,3.3c-0.1,0.9-0.3,0.7-0.6-0.2l-0.2-1.7c0,1.2-0.2,1.7-0.6,1.7
			l-0.3-3.1l-0.9,1.1l-0.2-1.7l-0.8,0.6v-2.1c-0.6,0.3-1.2,0.1-1.8-0.9c0.9,0.2,1.4,0.1,2.1-0.3C127.4,137,128.1,136.2,129.4,136.1z
			 M123.1,127.8c0.7-0.8,1-0.1,1.8,0.2l-1,0.5l1,0.3l-1,0.5l1.7,0.9l-1.1,0.3l1.4,0.9l-1.3,0.3c1.3,0.4,2.1,0.7,2,1.1l-1.3,0.3
			c0.6,0.2,1.7,0.3,1.7,0.8c0.1,0.4-0.9,0.2-1.3,0.2l1.2,0.8H126l0.8,0.4c-0.1,0.7-0.4,1.1-0.9,1.2c-1.3-0.2-0.2-0.9-1.1-2.1
			C122.4,131.2,122.6,128.6,123.1,127.8z M123.4,135.9c-0.3,0.2-0.8,0.1-1-0.2c-0.2-0.2-0.1-0.6,0.3-0.7c0.4-0.2,0.8-0.1,1,0.2
			C123.9,135.5,123.8,135.8,123.4,135.9z M122.7,134.3c-0.2,0.4-0.8,0.6-1.2,0.6c-0.4-0.2-0.5-0.6-0.2-1c0.2-0.4,0.8-0.7,1.3-0.6h0
			C122.9,133.5,123,133.9,122.7,134.3z M120.8,133c-0.3-0.1-0.4-0.5-0.2-0.9c0.2-0.4,0.5-0.6,0.7-0.5c0.3,0.1,0.4,0.5,0.2,0.9
			C121.4,132.9,121.1,133.2,120.8,133z M121.5,127.8c-0.2,0.2-0.3,0.7-0.3,2.1c-0.5-1-0.6-1.9-0.3-2.7c0.6-1.4,1.1-1.8,1.6-1.8
			C123.4,126.4,121.8,127,121.5,127.8z M120.8,125c0.4-0.4,0.9-0.6,1-0.5c0.2,0.2-0.1,0.6-0.5,1c-0.4,0.4-0.9,0.7-1,0.6
			C120.1,125.9,120.4,125.5,120.8,125z M120.4,130.1c0.2,0,0.5,0.2,0.5,0.6c0,0.2-0.2,0.5-0.5,0.5c-0.3,0-0.6-0.2-0.6-0.5
			C119.8,130.3,120.1,130.1,120.4,130.1z M120.1,133c0.3,1,1,2.4-1,0.4c-1.3-0.6-1.4,0-0.4,2l2.1,3.1c0.2,1.4,0.7,2.6,1.8,3.7
			l1.7,3.6c0,0.6,0.3,1.1,0.5,1.6c0.2,1.3,0.6,2.1,1.7,2.2c-1.1,2.1-2.5,4.1-4.9,5.4c-4.7,2.5-8.4,1.5-8-4.7c0.2-3.3,0.9-6.1,1-9.5
			c1.3-5.3,0.1-8-4.5-8.3c-2.4,0.1-4.2,0.1-5.6,1c-1.3,0.9-3.1,0.6-5.6-0.9c-4.8-3.6-8.3-5.5-10.7-5.5c2.3,2.6,2.9,5.2,1.1,7.9
			c1.9,0.9,1.8,1.8-0.1,2.6c-4.6,0.2-9.8-0.8-15.2-2.3c-1.7-0.3-2.1,0-0.9,1c4,1.6,6.1,4,6.1,7.3c-2.5,0.1-4.7,0.2-5.9,0.5
			c-1.1,0.7-2.3,0.6-3.4-0.7c-2.9-2.9-3.2-5.6,0.1-7.8c1.8-1.3,4.5-4.2,7.9-8.7c2.2-0.2,4.2-0.6,6.4-1c8.9-1.1,17.3-3,24.1-6.8
			c1.3-0.4,2.2-0.2,2.8,0.8l5.2,6.9l-1.5,0.6l4,3c-0.7,0.6-0.2,1,0.6,1.3C119,132.4,119.3,133.1,120.1,133z M118.5,126.1l0.5-0.3
			l0.8,3.2l-2.4-1.3l0.2-0.6C89.2,88.5,65.1,55.7,49.2,33.3c-0.2-1.2,0.1-1.7,1.2-1.3C71.3,59.7,96.6,95.6,118.5,126.1z M139,103.1
			c0.8,0,1.5,0.4,1.8,1c0.4,0.6,0.9,1.3,1.7,1.8c-1.8-2.9-1.9-4.1-0.3-3c1.4,0.9,2.2,2.3,2,4.4c0.4,1.1,0.2,1.3-1.8,0
			c-0.8-0.5-0.9-0.7,0-1.1l-2.5-1.9c2.1,3.3,0.6,2.5-1,0.2c1.2,2.6,0.3,1.7-1.3,0.4h-0.4c2.8,2.2,0.5,1.7-1.3,0.3l-0.3,0.2
			c4.8,3.4-0.2,1.6-2.4,0.2c1.5,1.3,3.3,2.3,2.9,2.4c-1.1,0.3-3.2-0.6-5.6-1.7c1.9,1.2,3.6,1.9,2.5,2.2c-0.4,0.2-2.2-0.6-5.4-1.9
			c-0.8-0.2-1-0.1-0.7,0.2c2.8,1,4.4,1.9,4,2.3c-0.5,0.6-2.6-0.5-5.6-2c-0.9-0.4-1.9-0.8-2.9-1.4c1.7,1.8,8.7,4.3,7.2,5
			c-0.6,0.2-1.7-0.2-3.3-1c-1.7-1-3.7-2.2-5.7-3.6c-1.7-1.4-3.2-2.7-4.4-3.7l-0.1,0.4c4.1,4.5,12.1,8.6,9.6,8.4
			c-1,0-0.6,0.1-1.4-0.3c-5.6-2.9-9.4-7.4-12.1-11.1l-0.2,0.2c3.4,5.3,9.8,9.7,9.1,10.2c-0.6,0.5-4.6-2.8-7.1-5.6
			c-1.8-1.9-2.1-2.7-4.1-5.4l-0.1,0.6c5.3,9,12.2,10.6,10.8,11.8c-0.4,0.3-0.6-0.1-1-0.3c-6.4-3.8-8.1-8.3-11.4-12.3l-0.2,0.3
			c2.2,3.6,5.9,7.5,9,11.2c0.4,0.5,0.1,1-0.3,0.7c-3.4-2.2-6.5-7.1-10-12.4l-0.1,0.3c2.9,5.6,9.4,12.4,7.5,11.9
			c-0.4-0.2-1.7-2.1-3.3-4.2c-1-1.5-2.3-3.3-3.3-4.5l-0.2,0.6c1.6,2.5,4,5.2,4.8,7.4l-0.2,0.1l-5.2-6.7l-0.3,0.3
			c2.1,2.7,4.8,5.8,4.4,6.5l-4.5-5.2c0.2,1.6,1.7,2.9,1.3,3.3c-0.5-0.5-1.6-1.9-2.3-3.4c-0.3-0.6,0,0.9-0.4,0.4
			c-3.3-3.8-6.3-7.9-8.8-12.1c-0.5-0.8-0.3-0.9,0.6-0.3l6.4,6.7c-4-4.4-6.8-7.9-6.2-8.5c2.1,2.6,4.4,5.1,7,7.4
			c-5.1-5.8-7.3-8.6-6.7-8.5c1.3,0.8,4.5,4.6,7.1,7.5c-3.6-4.9-8-9-8-9.8c0-0.4,1-0.4,1.3,0c2.1,2.9,4.8,5.6,7.5,8.5
			c-2-3.1-7.1-8-6.9-8.5c0.2-0.4,0.8-0.4,1.6,0c1.7,2.6,3.7,4.8,6.1,7.1c-1.7-2.5-5.8-6.6-5.4-7.1c0.1-0.2,0.7-0.3,1,0.1
			c0.8,1.3,1.7,2.2,2.8,3.6c0.7,0.9,1.7,1.8,2.6,2.7l-4.8-6.3c0.2-0.2,0.3-0.2,0.5-0.2c0.2,0,0.5,0,0.7,0.2c1,2,2.9,3.7,4.7,5.8
			l-4-5.7c0.1-0.5,1.4-0.2,1.7,0l3.4,4.9c-1.4-3.4-3.5-5.1-2.5-5c1,0.2,1.7,1,2.6,2.2c0.6,0.8,1.2,1.3,1.6,1.9l-2.2-3.7
			c0-0.3,0.8-0.2,1.5,0.2l1.5,1.7l-0.7-1.4c0.1-0.5,0.6-0.2,1,0l1.3,2.1l0.2-0.2c-0.8-1.4-1.4-2-1-2.1l1.2,0.2l1.1,1.3
			c-0.3-1.4,1-1.1,3.3-0.3c1.4,0.5,2.8,2.1,4.1,4.8c-0.3,0.2-0.9-0.6-1.5-1.4c-0.3-0.4-0.5-0.6-1-1c1.6,2.7,3.2,5.3,3.4,6.7
			c-0.5,0.4-2.2-2.6-4.2-6.1c1,2.8,2.4,5.2,2.8,6.3c-0.2,0.1-1-1.3-2-2.9c-0.3-0.5-0.7-0.7-1-1.3l2.5,5.1c0.5,0.2,0.8,0.8,0.5,1.5
			c-0.5,0.9-0.2,1.2,0.8,2c1,0.6,3,1,5.7,0.6C131.6,103.9,135.3,103.1,139,103.1z M137.5,94.2l-0.2,3.4c-0.3,0.5-0.6,1.3-0.9,0
			l0.5-3.1l-0.6,1.1c-0.5,0-0.6-0.5-0.6-1.4c-0.1-1.1,0-1.5,0.6-1.3l0.4,1l0.3-0.7C137.7,92.9,137.8,93.2,137.5,94.2z M142.1,93.3
			c-1.3,1.6-2.1,1.9-2.5,0.8l-0.4,2.1c-0.3,1-0.6,1.1-0.7,0.4c0.1-1.5,0.4-3.1,1-4.6c0.2-0.7,0.6-0.8,1-0.4c1.4-2.3,1.1-1,0.5,0.7
			l0.4,0.2C143,89.2,142.3,91.9,142.1,93.3z M147,87.7c-0.5-0.5-1-0.6-1.6-0.2c0,0.7-0.2,0.9-0.6,0.3c-0.5-0.6-0.6-1.4,0-2
			c0.5-0.6,1.2-0.6,1.7-0.2c0.5,0.2,0.6,0.6,0.6,0.8l-1,0.3l1.2,0.3C148.2,87.6,147.6,88.6,147,87.7z M155.8,101.6
			c-0.8-0.9-0.6-1.5,0.4-1.4c-1-1.5,0.1-1.8,1-0.2c0.5,0.7,0.6,2.1,0.4,3.8c-0.1,0.5-0.6,0.6-0.8,0
			C156.5,102.8,156.2,102.2,155.8,101.6z M157.6,112.4c-0.4,0-0.7-0.4-1.1-0.5l0.6,0.9c0.3,0.5-0.3,0.7-0.9,0.2l-1.7-1.4
			c-0.5-0.7-0.3-1.5,0.6-2.5c0.2-0.2,0.5-0.3,0.7-0.1l1.4,0.9c0.2,0.2,0.2,0.3,0.1,0.5c-0.4,0.4-0.2,0.6,0.4,1.3
			C158,112,157.9,112.4,157.6,112.4z M158.3,110c-0.5,0.1-0.9-0.2-1.3-0.6c-0.6-0.6-0.7-1-0.6-1.5l0.4-1.8c0.1-0.5,0.2-0.4,0.5,0
			c0.6,0.8,1.2,1.6,1.3,2.9C158.8,109.6,158.7,109.9,158.3,110z"/>
		<path fill-rule="evenodd" clip-rule="evenodd" d="M110,46.1c0-0.5-1.3-1.9-2.1-3.3c-0.7-1.4-1-2.5-1.3-2.8
			C106.7,42,108,44.4,110,46.1z"/>
	</g>
</g>
</svg>
